<svg xmlns="http://www.w3.org/2000/svg" viewBox="0 0 1212.9 621.25"><defs><style>.cls-1{opacity:0.39;}.cls-2{fill:#fefefe;}</style></defs><title>Fichier 5</title><g id="Calque_2" data-name="Calque 2"><g id="Calque_1-2" data-name="Calque 1"><g class="cls-1"><path class="cls-2" d="M128.73,154.38a1.7,1.7,0,0,1,0-3.39h1V118.36h-1c-2.16,0-2.16-3.45,0-3.45h1.88a2.5,2.5,0,0,1,1.62.75c9.37,13.47,13.35,19.71,15.07,22.19L161.09,116a3.18,3.18,0,0,1,2.15-1.08H165a1.73,1.73,0,0,1,0,3.45h-1V151h1a1.7,1.7,0,0,1,0,3.39h-5.34a1.7,1.7,0,0,1,0-3.39h1V122.93L148.54,141.4a1.43,1.43,0,0,1-1.18.6,1.47,1.47,0,0,1-1.24-.6l-13-18.47V151h1a1.7,1.7,0,0,1,0,3.39Z"/><path class="cls-2" d="M187.53,154.54a14.3,14.3,0,0,1-.22-28.59c7.38,0,14.6,6.19,14.38,14A14.36,14.36,0,0,1,187.53,154.54Zm-.05-25.2A10.93,10.93,0,1,0,198.35,140,11,11,0,0,0,187.48,129.34Z"/><path class="cls-2" d="M233.09,154.38a1.32,1.32,0,0,1-1.3-1.29v-3.45a12.15,12.15,0,0,1-10.12,5,14.28,14.28,0,0,1-.32-28.54,11.74,11.74,0,0,1,10.44,5.6v-15H231a1.67,1.67,0,0,1,0-3.34h2.85a1.33,1.33,0,0,1,1.3,1.35V151h.75a1.7,1.7,0,0,1,0,3.39Zm-11.63-24.93A10.77,10.77,0,0,0,211,140.27c-.1,5.76,4,11,10.56,11a10.42,10.42,0,0,0,10.28-10.83C231.79,134.73,227.65,129.45,221.46,129.45Z"/><path class="cls-2" d="M258.23,154.65a14.14,14.14,0,0,1-14.43-14.32c0-7.76,6.09-14.49,13.79-14.49s12.49,6.41,12.71,14.22c0,1-.49,2-1.67,2H247.2a10.88,10.88,0,0,0,11,9.16,17.08,17.08,0,0,0,6.57-1.35c1.29-.64,2.05-.11,2.37.49a1.71,1.71,0,0,1-.75,2.31A18.63,18.63,0,0,1,258.23,154.65Zm-11-15.94h19.6c-.86-5.33-4-9.48-9.27-9.48S248,133.6,247.2,138.71Zm7.21-24a2.07,2.07,0,0,1,1.24.53c1.4,1.3,2.75,2.64,4.09,4a1.31,1.31,0,0,1-1.56,2.1c-1.45-.92-3.18-2.1-4.63-3.18a2.24,2.24,0,0,1-1-1.56A1.87,1.87,0,0,1,254.41,114.7Z"/><path class="cls-2" d="M276.49,116.74a1.7,1.7,0,0,1,0-3.39h3.88a1.32,1.32,0,0,1,1.34,1.29V151h1.51a1.7,1.7,0,0,1,0,3.39h-6.46a1.7,1.7,0,0,1,0-3.39h1.51V116.74Z"/><path class="cls-2" d="M304.92,154.65a14.14,14.14,0,0,1-14.43-14.32c0-7.76,6.09-14.49,13.79-14.49s12.49,6.41,12.71,14.22c0,1-.49,2-1.67,2H293.88a10.9,10.9,0,0,0,11,9.16,17.08,17.08,0,0,0,6.57-1.35c1.29-.64,2.05-.11,2.37.49a1.71,1.71,0,0,1-.76,2.31A18.56,18.56,0,0,1,304.92,154.65Zm-11-15.94h19.61c-.87-5.33-4-9.48-9.27-9.48S294.69,133.6,293.88,138.71Z"/><path class="cls-2" d="M25.47,205.06a1.31,1.31,0,0,1-1.29-1.29v-3.44a12.17,12.17,0,0,1-10.13,5,14.28,14.28,0,0,1-.32-28.54,11.77,11.77,0,0,1,10.45,5.6v-15h-.76a1.67,1.67,0,0,1,0-3.34h2.86a1.32,1.32,0,0,1,1.29,1.35v36.29h.75a1.7,1.7,0,0,1,0,3.39ZM13.84,180.13c-5.87,0-10.39,5-10.5,10.83s4,11,10.55,11a10.42,10.42,0,0,0,10.29-10.82C24.18,185.41,20,180.13,13.84,180.13Z"/><path class="cls-2" d="M39.26,165.65A2.33,2.33,0,0,1,41.68,168a5,5,0,0,1-.43,1.72c-.43,1.08-1,2.53-1.67,4.2-.43,1.18-2,.92-1.78-.38l1-3.82A1.88,1.88,0,0,1,37,167.91,2.21,2.21,0,0,1,39.26,165.65Z"/><path class="cls-2" d="M62.57,205.23a14.3,14.3,0,0,1-.21-28.6c7.37,0,14.59,6.2,14.37,14.06A14.36,14.36,0,0,1,62.57,205.23Zm0-25.21A10.94,10.94,0,1,0,73.4,190.69,11.05,11.05,0,0,0,62.52,180Z"/><path class="cls-2" d="M89.23,203.77a1.31,1.31,0,0,1-1.29,1.29h-2.8a1.7,1.7,0,0,1,0-3.39h.7V180.13h-.7a1.67,1.67,0,0,1,0-3.34h2.8a1.33,1.33,0,0,1,1.29,1.35v3.45c2.48-3.67,5.92-4.8,10-4.8a1.57,1.57,0,0,1,1.78,1.62,1.73,1.73,0,0,1-1.78,1.72h-.16c-4.36,0-9.85,2.43-9.85,8.4Z"/><path class="cls-2" d="M129.24,200.33a12.16,12.16,0,0,1-10.12,5,14.28,14.28,0,0,1-.33-28.54,11.77,11.77,0,0,1,10.45,5.6v-4.25a1.33,1.33,0,0,1,1.29-1.35h2.86a1.67,1.67,0,0,1,0,3.34h-.76V203c-.38,7.76-5.87,13.14-14.11,13.14a19,19,0,0,1-9.85-2.31s-2-.86-1.19-2.59c.7-1.24,1.89-.91,2.7-.43a17.73,17.73,0,0,0,8.5,1.94c6.31,0,10.29-3.77,10.56-9.64Zm-10.34-20.2c-5.87,0-10.39,5-10.5,10.83s4,11,10.55,11a10.42,10.42,0,0,0,10.29-10.82C129.24,185.41,125.09,180.13,118.9,180.13Z"/><path class="cls-2" d="M166.67,205.06a1.32,1.32,0,0,1-1.3-1.29v-3.44a12.14,12.14,0,0,1-10.12,5,14.28,14.28,0,0,1-.32-28.54,11.76,11.76,0,0,1,10.44,5.6v-4.25a1.33,1.33,0,0,1,1.3-1.35h2.85c2.15,0,2.15,3.4,0,3.4h-.75v21.48h.75a1.7,1.7,0,0,1,0,3.39ZM155,180.19A10.64,10.64,0,0,0,144.53,191c0,5.76,4,11,10.56,11a10.61,10.61,0,0,0,10.55-10.82A10.76,10.76,0,0,0,155,180.19Z"/><path class="cls-2" d="M194,176.79c8.07,0,11.68,5.28,11.68,12.34v12.54h1a1.7,1.7,0,0,1,0,3.39h-5.39a1.7,1.7,0,0,1,0-3.39h1V189.13c0-5.17-2.37-8.94-8.29-8.94-5.33,0-9.53,3-9.53,9.58v11.9h1a1.7,1.7,0,0,1,0,3.39H180a1.7,1.7,0,0,1,0-3.39h1V180.24h-1.24c-2.15,0-2.15-3.45,0-3.45h3.34a1.34,1.34,0,0,1,1.35,1.35v3C186.59,178,190.36,176.79,194,176.79Z"/><path class="cls-2" d="M215.83,176.79h3.28a1.61,1.61,0,0,1,1.67,1.67v23.21h1.57a1.7,1.7,0,0,1,0,3.39h-6.47a1.7,1.7,0,0,1,0-3.39h1.51V180.19h-1.56C213.68,180.19,213.68,176.79,215.83,176.79Zm5.22-9.74a2.6,2.6,0,0,1-2.53,2.58,2.56,2.56,0,0,1,0-5.11A2.59,2.59,0,0,1,221.05,167.05Z"/><path class="cls-2" d="M248.46,176.58a1.51,1.51,0,0,1,1.67,1.51v6.35a1.59,1.59,0,0,1-1.61,1.45,1.55,1.55,0,0,1-1.67-1.56c0-3.23-3-4.79-6.09-4.79-2.69,0-6.08,1.51-6.08,4.52,0,2.7,2.64,4,7.59,5.23,4.42,1.07,8.83,2.2,8.83,7.54s-5.06,8.23-9.69,8.23a9.93,9.93,0,0,1-7.16-2.85v1.35a1.51,1.51,0,0,1-1.67,1.5,1.47,1.47,0,0,1-1.62-1.5v-6.73a1.78,1.78,0,0,1,3.56.1c0,3.72,3.6,5.07,6.83,5,2.8,0,6.41-1.88,6.41-5.11s-3.61-3.83-6.24-4.42c-7-1.51-10.07-4-10.07-8.35,0-4.9,4.63-7.54,8.94-7.54a8.38,8.38,0,0,1,6.46,2.81v-1.24A1.46,1.46,0,0,1,248.46,176.58Z"/><path class="cls-2" d="M283.57,205.06a1.31,1.31,0,0,1-1.29-1.29v-3.44a12.16,12.16,0,0,1-10.12,5,14.28,14.28,0,0,1-.33-28.54,11.77,11.77,0,0,1,10.45,5.6v-4.25a1.33,1.33,0,0,1,1.29-1.35h2.86c2.15,0,2.15,3.4,0,3.4h-.76v21.48h.76a1.7,1.7,0,0,1,0,3.39Zm-11.63-24.87A10.64,10.64,0,0,0,261.44,191c0,5.76,4,11,10.55,11a10.62,10.62,0,0,0,10.56-10.82A10.77,10.77,0,0,0,271.94,180.19Z"/><path class="cls-2" d="M301.72,180.24v17.07a4.28,4.28,0,0,0,4.41,4.42,10.13,10.13,0,0,0,2.43-.38,1.54,1.54,0,0,1,2,.86,1.62,1.62,0,0,1-1,2.26,9.63,9.63,0,0,1-3.18.59c-5.87,0-8.07-3.87-8.07-9.1V180.24h-2.48c-2.15,0-2.15-3.45,0-3.45h2.48v-7.16A1.56,1.56,0,0,1,300,168a1.61,1.61,0,0,1,1.72,1.61v7.16h5.49a1.73,1.73,0,0,1,0,3.45Z"/><path class="cls-2" d="M318.3,176.79h3.29a1.62,1.62,0,0,1,1.67,1.67v23.21h1.56a1.7,1.7,0,0,1,0,3.39h-6.46a1.7,1.7,0,0,1,0-3.39h1.51V180.19H318.3C316.15,180.19,316.15,176.79,318.3,176.79Zm5.23-9.74a2.61,2.61,0,0,1-2.53,2.58,2.56,2.56,0,0,1,0-5.11A2.6,2.6,0,0,1,323.53,167.05Z"/><path class="cls-2" d="M346.79,205.23a14.3,14.3,0,0,1-.21-28.6c7.37,0,14.59,6.2,14.37,14.06A14.37,14.37,0,0,1,346.79,205.23ZM346.74,180a10.94,10.94,0,1,0,10.87,10.67A11,11,0,0,0,346.74,180Z"/><path class="cls-2" d="M383.52,176.79c8.07,0,11.68,5.28,11.68,12.34v12.54h1a1.7,1.7,0,0,1,0,3.39h-5.38a1.7,1.7,0,0,1,0-3.39h1V189.13c0-5.17-2.37-8.94-8.29-8.94-5.33,0-9.53,3-9.53,9.58v11.9h1a1.7,1.7,0,0,1,0,3.39h-5.38a1.7,1.7,0,0,1,0-3.39h1V180.24H369.3c-2.15,0-2.15-3.45,0-3.45h3.34a1.34,1.34,0,0,1,1.35,1.35v3C376.14,178,379.91,176.79,383.52,176.79Z"/><path class="cls-2" d="M431.07,165.59a11.18,11.18,0,0,1,11.3,11c0,9.05-10.66,9.43-10.66,17.83a1.51,1.51,0,1,1-3,0c0-9.75,10.33-10.93,10.33-17.94a7.73,7.73,0,0,0-8-7.53c-3.39,0-6.84,1.56-8.13,4.41-1.08,2.37-4.15,1-3.23-1C421.43,168.07,426.22,165.59,431.07,165.59Zm-1,39.47a1.66,1.66,0,0,1-1.83-1.56v-.91a1.84,1.84,0,0,1,3.66,0v.91A1.66,1.66,0,0,1,430,205.06Z"/></g><g class="cls-1"><path class="cls-2" d="M727.5,474.71a1.93,1.93,0,0,1-2.14,1.93,1.77,1.77,0,0,1-1.93-1.93l-.07-2.28a20,20,0,0,1-12.14,4.21c-13.45.21-25.18-10.9-25.18-25.39A24.93,24.93,0,0,1,711.36,426c4.83,0,10,2,12,5l-.07-3a1.89,1.89,0,0,1,2.07-1.94,1.94,1.94,0,0,1,2.14,1.94V438a2,2,0,0,1-1.93,2.27,1.87,1.87,0,0,1-1.93-1.86v-.55c-.07-3.52-3.73-7.66-12.42-7.66a21.08,21.08,0,0,0-.55,42.15,23.2,23.2,0,0,0,12.48-3.72V457.12H709.77a2.18,2.18,0,0,1-2.07-2.07,2,2,0,0,1,2.07-2.28h15.59a2.07,2.07,0,0,1,2.14,2.14Z"/><path class="cls-2" d="M757.37,476.78a18.32,18.32,0,0,1-.27-36.63c9.45,0,18.69,7.93,18.42,18A18.41,18.41,0,0,1,757.37,476.78Zm-.07-32.29a14,14,0,1,0,.07,28c8,0,13.87-6.62,13.87-14.35S764.62,444.49,757.3,444.49Z"/><path class="cls-2" d="M812.42,444.7c-2.75,0-2.75-4.35,0-4.35h4.07a1.7,1.7,0,0,1,1.73,1.66v30.14h1.66c2.75,0,2.75,4.42,0,4.42H815.6a1.71,1.71,0,0,1-1.73-1.72V471c-2.76,4-7.58,5.59-12.21,5.59-10.34,0-15.45-6.76-15.45-15.8V444.7h-1.45c-2.76,0-2.76-4.35,0-4.35h4.07a1.7,1.7,0,0,1,1.73,1.66v18.76c0,6.63,3.51,11.45,11.1,11.45,6.83,0,12.21-3.86,12.21-12.28V444.7Z"/><path class="cls-2" d="M830.3,444.77h-1.8c-2.76,0-2.76-4.42,0-4.42h7.59c2.76,0,2.76,4.42,0,4.42H835l10.9,24.69,10.76-24.69h-1.11c-2.76,0-2.76-4.42,0-4.42h7.59c2.76,0,2.76,4.42,0,4.42h-1.79L847.68,475.6a2.15,2.15,0,0,1-3.79-.13Z"/><path class="cls-2" d="M888.87,476.91a18.11,18.11,0,0,1-18.49-18.35c0-9.93,7.79-18.55,17.66-18.55s16,8.21,16.28,18.21c0,1.24-.62,2.62-2.14,2.62H874.72a14,14,0,0,0,14.08,11.73,21.7,21.7,0,0,0,8.41-1.73c1.66-.82,2.63-.13,3,.62a2.2,2.2,0,0,1-1,3A23.79,23.79,0,0,1,888.87,476.91ZM874.72,456.5h25.12c-1.11-6.83-5.11-12.15-11.87-12.15S875.76,449.94,874.72,456.5Z"/><path class="cls-2" d="M919.64,474.91a1.68,1.68,0,0,1-1.66,1.66h-3.59c-2.83,0-2.83-4.35,0-4.35h.9V444.63h-.9a2.14,2.14,0,0,1,0-4.28H918a1.7,1.7,0,0,1,1.66,1.73v4.41c3.17-4.69,7.58-6.14,12.83-6.14a2,2,0,0,1,2.27,2.07,2.21,2.21,0,0,1-2.27,2.21h-.21c-5.59,0-12.62,3.1-12.62,10.76Z"/><path class="cls-2" d="M963,440.35c10.35,0,15,6.76,15,15.8v16.07h1.31c2.76,0,2.76,4.35,0,4.35h-6.9c-2.76,0-2.76-4.35,0-4.35h1.24V456.15c0-6.62-3-11.45-10.62-11.45-6.83,0-12.21,3.86-12.21,12.28v15.24H952c2.76,0,2.76,4.35,0,4.35h-6.9c-2.76,0-2.76-4.35,0-4.35h1.24V444.77h-1.58c-2.76,0-2.76-4.42,0-4.42H949a1.71,1.71,0,0,1,1.72,1.73v3.86C953.51,441.94,958.34,440.35,963,440.35Z"/><path class="cls-2" d="M1020.84,476.57a1.68,1.68,0,0,1-1.66-1.66V470.5a15.55,15.55,0,0,1-13,6.41,18,18,0,0,1-18-18.35c0-9.93,7.73-18.21,17.59-18.21,9.66,0,13.38,7.18,13.38,7.18v-5.45a1.7,1.7,0,0,1,1.66-1.73h3.66c2.76,0,2.76,4.35,0,4.35h-1v27.52h1c2.76,0,2.76,4.35,0,4.35Zm-14.9-31.87a13.63,13.63,0,0,0-13.45,13.8c0,7.38,5.1,14.07,13.52,14.07,4.48.07,13.52-3.45,13.52-13.87C1019.53,451.39,1013.87,444.7,1005.94,444.7Z"/><path class="cls-2" d="M1055.82,440.35c10.35,0,15,6.76,15,15.8v16.07h1.31c2.76,0,2.76,4.35,0,4.35h-6.9c-2.76,0-2.76-4.35,0-4.35h1.24V456.15c0-6.62-3-11.45-10.62-11.45-6.83,0-12.21,3.86-12.21,12.28v15.24h1.24c2.76,0,2.76,4.35,0,4.35H1038c-2.76,0-2.76-4.35,0-4.35h1.24V444.77h-1.58c-2.76,0-2.76-4.42,0-4.42h4.27a1.71,1.71,0,0,1,1.73,1.73v3.86C1046.37,441.94,1051.2,440.35,1055.82,440.35Z"/><path class="cls-2" d="M1113,471c-3,4-9.25,5.93-14.07,5.93-9.39,0-17.94-7.86-17.94-17.38,0-12.69,9.38-19.18,18-19.18,4.28,0,9,1.59,10.84,4.76v-1.72a1.72,1.72,0,0,1,1.86-1.93,1.77,1.77,0,0,1,1.93,1.93v7.45a1.81,1.81,0,0,1-2,1.86c-1.1,0-1.59-1-1.86-2.21-.83-3.86-6.07-5.79-10.7-5.79-6.55,0-13.72,4.21-13.72,14.83,0,7.18,6.83,13,13.72,13,3.8,0,8.14-1.17,10.56-4.28a2.1,2.1,0,0,1,3-.41A2.14,2.14,0,0,1,1113,471Z"/><path class="cls-2" d="M1140.4,476.91a18.11,18.11,0,0,1-18.49-18.35c0-9.93,7.8-18.55,17.66-18.55s16,8.21,16.28,18.21c0,1.24-.62,2.62-2.14,2.62h-27.45a13.93,13.93,0,0,0,14.07,11.73,21.79,21.79,0,0,0,8.42-1.73c1.65-.82,2.62-.13,3,.62a2.2,2.2,0,0,1-1,3A23.76,23.76,0,0,1,1140.4,476.91Zm-14.14-20.41h25.11c-1.11-6.83-5.11-12.15-11.87-12.15S1127.29,449.94,1126.26,456.5Z"/><path class="cls-2" d="M1198.42,426a14.33,14.33,0,0,1,14.48,14.15c0,11.59-13.66,12.07-13.66,22.83a1.94,1.94,0,1,1-3.86,0c0-12.49,13.25-14,13.25-23,0-5.59-4.76-9.66-10.28-9.66-4.35,0-8.76,2-10.42,5.66-1.38,3-5.31,1.24-4.14-1.31C1186.07,429.18,1192.21,426,1198.42,426Zm-1.31,50.57a2.12,2.12,0,0,1-2.35-2V473.4a2.36,2.36,0,0,1,4.69,0v1.17A2.12,2.12,0,0,1,1197.11,476.57Z"/></g><g class="cls-1"><path class="cls-2" d="M982.13,33.53V6h-.52a2.06,2.06,0,0,1,0-4.11h5.15c2.61,0,2.61,4.11,0,4.11h-.52V33.46a16.44,16.44,0,0,1-32.88,0V6h-.52c-2.61,0-2.61-4.11,0-4.11H958A2.06,2.06,0,0,1,958,6h-.52V33.53a12.33,12.33,0,0,0,24.66,0Z"/><path class="cls-2" d="M1004.7,19.63V40.31a5.17,5.17,0,0,0,5.35,5.35,11.93,11.93,0,0,0,2.93-.45,1.87,1.87,0,0,1,2.48,1,2,2,0,0,1-1.24,2.74,11.67,11.67,0,0,1-3.85.72c-7.11,0-9.78-4.7-9.78-11v-19h-3c-2.61,0-2.61-4.17,0-4.17h3V6.78a1.89,1.89,0,0,1,2-1.95,2,2,0,0,1,2.09,2v8.68h6.65a2,2,0,0,1,2,2.09,2,2,0,0,1-2,2.08Z"/><path class="cls-2" d="M1024.79,15.46h4a2,2,0,0,1,2,2V45.6h1.89c2.61,0,2.61,4.11,0,4.11h-7.83c-2.61,0-2.61-4.11,0-4.11h1.83v-26h-1.89C1022.18,19.57,1022.18,15.46,1024.79,15.46Zm6.33-11.81a3.16,3.16,0,0,1-3.07,3.13A3.08,3.08,0,0,1,1025,3.65a3.06,3.06,0,0,1,3.07-3.06A3.15,3.15,0,0,1,1031.12,3.65Z"/><path class="cls-2" d="M1043.77,4.11c-2.61,0-2.61-4.11,0-4.11h4.7a1.61,1.61,0,0,1,1.63,1.57v44h1.82c2.61,0,2.61,4.11,0,4.11h-7.82c-2.61,0-2.61-4.11,0-4.11h1.82V4.11Z"/><path class="cls-2" d="M1063.34,15.46h4a2,2,0,0,1,2,2V45.6h1.89c2.61,0,2.61,4.11,0,4.11h-7.82c-2.61,0-2.61-4.11,0-4.11h1.82v-26h-1.89C1060.73,19.57,1060.73,15.46,1063.34,15.46Zm6.33-11.81a3.16,3.16,0,0,1-3.07,3.13,3.07,3.07,0,0,1-3.06-3.13A3.05,3.05,0,0,1,1066.6.59,3.15,3.15,0,0,1,1069.67,3.65Z"/><path class="cls-2" d="M1087.48,19.63V40.31a5.17,5.17,0,0,0,5.35,5.35,11.93,11.93,0,0,0,2.93-.45,1.87,1.87,0,0,1,2.48,1A2,2,0,0,1,1097,49a11.67,11.67,0,0,1-3.85.72c-7.11,0-9.78-4.7-9.78-11v-19h-3c-2.61,0-2.61-4.17,0-4.17h3V6.78a1.89,1.89,0,0,1,2-1.95,2,2,0,0,1,2.09,2v8.68h6.65a2,2,0,0,1,2,2.09,2,2,0,0,1-2,2.08Z"/><path class="cls-2" d="M1121.79,50a17.13,17.13,0,0,1-17.48-17.35c0-9.39,7.37-17.55,16.69-17.55s15.14,7.77,15.4,17.22c0,1.18-.59,2.48-2,2.48h-26a13.17,13.17,0,0,0,13.3,11.09,20.56,20.56,0,0,0,8-1.63c1.57-.78,2.48-.13,2.87.59a2.07,2.07,0,0,1-.91,2.8A22.58,22.58,0,0,1,1121.79,50Zm-13.37-19.31h23.74c-1-6.45-4.83-11.48-11.22-11.48S1109.39,24.53,1108.42,30.72Zm15.52-24.91-5.61,3.84a1.58,1.58,0,0,1-1.89-2.54l5-4.83a2.46,2.46,0,0,1,1.5-.65,2.27,2.27,0,0,1,2.28,2.28A2.44,2.44,0,0,1,1123.94,5.81Z"/><path class="cls-2" d="M924.11,76.59a1.83,1.83,0,0,1,2,1.83v7.7a1.93,1.93,0,0,1-2,1.76,1.89,1.89,0,0,1-2-1.89c0-3.92-3.65-5.81-7.37-5.81-3.26,0-7.37,1.83-7.37,5.48,0,3.26,3.19,4.89,9.19,6.33,5.35,1.3,10.7,2.67,10.7,9.13s-6.13,10-11.74,10c-3.26,0-6.78-1.3-8.67-3.46v1.63a1.83,1.83,0,0,1-2,1.83,1.77,1.77,0,0,1-2-1.83v-8.15a2.15,2.15,0,0,1,4.3.13c0,4.5,4.37,6.13,8.29,6.07,3.39,0,7.76-2.29,7.76-6.2s-4.37-4.63-7.57-5.35c-8.41-1.82-12.2-4.83-12.2-10.11,0-5.94,5.61-9.13,10.83-9.13a10.14,10.14,0,0,1,7.83,3.39v-1.5A1.78,1.78,0,0,1,924.11,76.59Z"/><path class="cls-2" d="M953.26,111.3A17.32,17.32,0,0,1,953,76.66c8.94,0,17.68,7.5,17.42,17A17.41,17.41,0,0,1,953.26,111.3Zm-.06-30.53a13.24,13.24,0,1,0,.06,26.48c7.57,0,13.12-6.26,13.12-13.57S960.11,80.77,953.2,80.77Z"/><path class="cls-2" d="M1008.45,105.82c-2.87,3.78-8.74,5.61-13.31,5.61-8.87,0-17-7.44-17-16.44,0-12,8.87-18.14,17-18.14,4,0,8.54,1.5,10.24,4.51V79.72a1.63,1.63,0,0,1,1.76-1.82,1.68,1.68,0,0,1,1.83,1.82v7a1.71,1.71,0,0,1-1.9,1.76c-1,0-1.5-.91-1.76-2.09-.78-3.65-5.74-5.48-10.11-5.48-6.19,0-13,4-13,14,0,6.78,6.46,12.33,13,12.33,3.59,0,7.7-1.11,10-4a2,2,0,0,1,2.81-.39A2,2,0,0,1,1008.45,105.82Z"/><path class="cls-2" d="M1019.47,76.85h4a2,2,0,0,1,2,2V107h1.9c2.61,0,2.61,4.11,0,4.11h-7.83c-2.61,0-2.61-4.11,0-4.11h1.82V81h-1.89C1016.86,81,1016.86,76.85,1019.47,76.85Zm6.33-11.8a3.16,3.16,0,0,1-3.07,3.13,3.1,3.1,0,0,1,0-6.2A3.15,3.15,0,0,1,1025.8,65.05Z"/><path class="cls-2" d="M1067.35,111.1a1.58,1.58,0,0,1-1.56-1.56v-4.18a14.75,14.75,0,0,1-12.27,6.07,17.07,17.07,0,0,1-17-17.35c0-9.4,7.3-17.23,16.63-17.23a14.26,14.26,0,0,1,12.66,6.79V78.49a1.6,1.6,0,0,1,1.56-1.64h3.46c2.61,0,2.61,4.11,0,4.11h-.91v26h.91c2.61,0,2.61,4.11,0,4.11ZM1053.26,81A12.9,12.9,0,0,0,1040.54,94c0,7,4.83,13.31,12.79,13.31,4.24.06,12.78-3.26,12.78-13.11A13,13,0,0,0,1053.26,81Z"/><path class="cls-2" d="M1082.22,65.5c-2.6,0-2.6-4.1,0-4.1h4.7a1.6,1.6,0,0,1,1.63,1.56v44h1.83c2.61,0,2.61,4.11,0,4.11h-7.83c-2.61,0-2.61-4.11,0-4.11h1.83V65.5Z"/><path class="cls-2" d="M1116.67,111.43a17.13,17.13,0,0,1-17.48-17.35c0-9.4,7.37-17.55,16.69-17.55s15.14,7.76,15.4,17.22c0,1.17-.59,2.48-2,2.48h-26a13.17,13.17,0,0,0,13.3,11.09,20.75,20.75,0,0,0,8-1.63c1.57-.79,2.48-.13,2.87.58a2.08,2.08,0,0,1-.91,2.81A22.58,22.58,0,0,1,1116.67,111.43ZM1103.3,92.12H1127c-1-6.46-4.83-11.48-11.22-11.48S1104.27,85.92,1103.3,92.12Z"/><path class="cls-2" d="M1171.53,63.29a13.54,13.54,0,0,1,13.69,13.37c0,11-12.91,11.41-12.91,21.59a1.83,1.83,0,1,1-3.65,0c0-11.81,12.52-13.24,12.52-21.72,0-5.29-4.5-9.13-9.72-9.13-4.11,0-8.28,1.89-9.85,5.35-1.3,2.87-5,1.17-3.91-1.24C1159.85,66.29,1165.66,63.29,1171.53,63.29Zm-1.24,47.81a2,2,0,0,1-2.22-1.89V108.1a2.23,2.23,0,0,1,4.43,0v1.11A2,2,0,0,1,1170.29,111.1Z"/></g><g class="cls-1"><path class="cls-2" d="M335.54,595.88H354.1c2.52,0,2.52,4,0,4H335.54V617h21.84v-.88c0-2.52,4-2.52,4,0v2.83a1.88,1.88,0,0,1-1.89,2h-28.7a2,2,0,0,1,0-4h.82V578.76h-.82a2,2,0,0,1,0-4h28.7a1.85,1.85,0,0,1,1.89,2.08v2.77c0,2.51-4,2.51-4,0v-.89H335.54Z"/><path class="cls-2" d="M398.73,615.84c-2.77,3.65-8.43,5.41-12.84,5.41-8.56,0-16.36-7.17-16.36-15.86,0-11.58,8.56-17.5,16.42-17.5,3.91,0,8.25,1.45,9.89,4.34v-1.57a1.57,1.57,0,0,1,1.7-1.76,1.62,1.62,0,0,1,1.76,1.76v6.8a1.65,1.65,0,0,1-1.83,1.7c-1,0-1.45-.88-1.7-2-.75-3.52-5.54-5.28-9.75-5.28-6,0-12.53,3.84-12.53,13.53,0,6.54,6.23,11.9,12.53,11.9,3.46,0,7.42-1.08,9.63-3.91a1.92,1.92,0,0,1,2.7-.38A2,2,0,0,1,398.73,615.84Z"/><path class="cls-2" d="M423.72,621.12a16.71,16.71,0,0,1-.25-33.42c8.62,0,17.06,7.24,16.8,16.43A16.78,16.78,0,0,1,423.72,621.12Zm-.06-29.45a12.78,12.78,0,1,0,12.71,12.46A12.9,12.9,0,0,0,423.66,591.67Z"/><path class="cls-2" d="M466.65,587.89c9.44,0,13.66,6.17,13.66,14.41V617h1.19c2.52,0,2.52,4,0,4h-6.29c-2.52,0-2.52-4,0-4h1.13V602.3c0-6-2.77-10.44-9.69-10.44-6.23,0-11.14,3.52-11.14,11.2V617h1.13c2.52,0,2.52,4,0,4h-6.29c-2.52,0-2.52-4,0-4h1.13V591.92H450c-2.52,0-2.52-4,0-4h3.9a1.56,1.56,0,0,1,1.58,1.57V593C458,589.34,462.43,587.89,466.65,587.89Z"/><path class="cls-2" d="M506.55,621.12a16.71,16.71,0,0,1-.25-33.42c8.62,0,17.06,7.24,16.81,16.43A16.79,16.79,0,0,1,506.55,621.12Zm-.06-29.45a12.78,12.78,0,1,0,12.72,12.46C519.21,597.21,513.16,591.67,506.49,591.67Z"/><path class="cls-2" d="M538.34,599.91V617h1.13c2.52,0,2.52,4,0,4h-6.29c-2.52,0-2.52-4,0-4h1.2V591.86h-1.52c-2.51,0-2.51-4,0-4h4a1.61,1.61,0,0,1,1.51,1.64v3a12.8,12.8,0,0,1,9.63-4.66c4.41,0,9.32,1.76,11.52,5.92,2.52-4.16,7.17-6,11.77-5.92,7.3.13,13.41,5,13.41,12.4V617h1.13a2,2,0,0,1,0,4h-6.23a2,2,0,0,1,0-4h1.13V600.16c0-5.72-4.47-8.3-9.63-8.3-4.85,0-9.57,3.46-9.57,8.62V617h1.14a2,2,0,0,1,0,4H556.4a2,2,0,0,1,0-4h1.14V600.48c0-5.23-4.79-8.62-9.7-8.62C542.24,591.86,538.34,596.2,538.34,599.91Z"/><path class="cls-2" d="M596.56,587.89h3.84a1.88,1.88,0,0,1,2,2V617h1.83c2.52,0,2.52,4,0,4h-7.55c-2.52,0-2.52-4,0-4h1.76V591.86h-1.83C594.05,591.86,594.05,587.89,596.56,587.89Zm6.11-11.39a3.06,3.06,0,0,1-3,3,3,3,0,0,1,0-6A3,3,0,0,1,602.67,576.5Z"/><path class="cls-2" d="M629.86,621.25A16.53,16.53,0,0,1,613,604.51c0-9.07,7.11-16.93,16.11-16.93s14.61,7.49,14.86,16.61c0,1.14-.57,2.39-2,2.39H617a12.72,12.72,0,0,0,12.84,10.71,19.94,19.94,0,0,0,7.68-1.58c1.51-.75,2.39-.13,2.77.57a2,2,0,0,1-.89,2.7A21.7,21.7,0,0,1,629.86,621.25ZM617,602.62h22.91c-1-6.23-4.66-11.08-10.83-11.08S617.9,596.64,617,602.62Z"/><path class="cls-2" d="M682.8,574.8A13.07,13.07,0,0,1,696,587.7c0,10.58-12.46,11-12.46,20.84a1.77,1.77,0,1,1-3.52,0c0-11.4,12.08-12.78,12.08-21,0-5.1-4.34-8.82-9.38-8.82-4,0-8,1.83-9.5,5.17-1.26,2.77-4.85,1.13-3.78-1.2C671.53,577.69,677.13,574.8,682.8,574.8Zm-1.2,46.14a1.94,1.94,0,0,1-2.14-1.83V618a2.16,2.16,0,0,1,4.28,0v1.07A1.94,1.94,0,0,1,681.6,620.94Z"/></g></g></g></svg>