<svg xmlns="http://www.w3.org/2000/svg" viewBox="0 0 32.17 34.75"><defs><style>.cls-1{fill:#fff;stroke:#fff;stroke-miterlimit:10;}</style></defs><title>Fichier 1</title><g id="Calque_2" data-name="Calque 2"><g id="Calque_1-2" data-name="Calque 1"><path class="cls-1" d="M6.25,11.67c.21.57.45,1.13.71,1.68-2.07-1.09-4.49-2.56-5.58-4A4.25,4.25,0,0,1,5,2.55L5,3.68l-.29,0a3.06,3.06,0,0,0-1.9.65A3.11,3.11,0,0,0,2.28,8.7,14.12,14.12,0,0,0,6.25,11.67ZM30,3.42a4.23,4.23,0,0,0-2.84-.87l-.05,1.13a3.12,3.12,0,0,1,2.77,5,14.27,14.27,0,0,1-4,3,17.68,17.68,0,0,1-.72,1.68c2.08-1.09,4.5-2.56,5.58-4A4.26,4.26,0,0,0,30,3.42ZM24.61,25.11v8.58a.56.56,0,0,1-.56.56H8.13a.56.56,0,0,1-.57-.56V25.11a.56.56,0,0,1,.57-.56h3.09V22.48a.57.57,0,0,1,.57-.56h1.53a8.07,8.07,0,0,0-2.25-4.64A17.11,17.11,0,0,1,6.25,5.79l-.18-4.7A.57.57,0,0,1,6.22.67.57.57,0,0,1,6.63.5H25.55a.54.54,0,0,1,.4.17.54.54,0,0,1,.16.42L25.92,5.8A17.1,17.1,0,0,1,21.1,17.28a8.11,8.11,0,0,0-2.24,4.64h1.53a.56.56,0,0,1,.56.56v2.07h3.1A.56.56,0,0,1,24.61,25.11ZM14.45,21.92h3.28a9.16,9.16,0,0,1,2.56-5.42A16,16,0,0,0,24.8,5.76L25,1.62H7.21l.17,4.13a16,16,0,0,0,4.5,10.75A9.23,9.23,0,0,1,14.45,21.92Zm-2.1,2.63h7.47V23H12.35Zm11.14,1.12H8.69v7.45h14.8Z"/></g></g></svg>