<svg xmlns="http://www.w3.org/2000/svg" viewBox="0 0 408.44 425.42"><defs><style>.cls-1{fill:none;stroke:#fff;stroke-miterlimit:10;stroke-width:3px;}.cls-2{fill:#272f80;}.cls-3{fill:#fff;}.cls-4{fill:#1896a0;}.cls-5{fill:#f87339;}.cls-6{fill:#d49c40;}.cls-7{fill:#a9771f;}.cls-8{fill:#cc9033;}.cls-9{fill:#1d1f4e;}.cls-10{fill:#593267;}.cls-11{fill:#f9f7f9;}.cls-12{fill:#aed2dd;}</style></defs><title>Fichier 1</title><g id="Calque_2" data-name="Calque 2"><g id="Calque_1-2" data-name="Calque 1"><polyline class="cls-1" points="167.98 275.15 179.37 280.62 167.98 286.54"/><path class="cls-2" d="M170.6,45.69C166,29.94,174.31,11.42,189.18,4.47c6-2.82,12.74-3.85,19.38-4.29S222-.09,228,2.71c4.5,2.11,8.19,5.58,12,8.76a124.28,124.28,0,0,0,49.18,25c7,1.77,14.24,2.92,21,5.46,19,7.09,32.83,24.79,38.07,44.34,1.72,6.39,2.6,13.14,1.31,19.64s-5,12.71-10.71,16c-4,2.26-8.61,3-13.16,3.42-7.93.75-16.4.56-23.23-3.56-12.86-7.74-15.08-26-26.27-36-5.6-5-13.13-7.55-20.64-8-4.24-.24-8.6.15-12.64-1.15a34,34,0,0,1-7.35-3.83,190.11,190.11,0,0,0-45.7-20.44c-8-2.37-14.8-1-19.63-7.75"/><path class="cls-3" d="M87.65,268.08a195.11,195.11,0,0,0-39.22,8A299.05,299.05,0,0,1,63,374.42,34.39,34.39,0,0,1,50,376a6.36,6.36,0,0,1-4.15-1.41,6.84,6.84,0,0,1-1.46-2.77c-9.08-26.43-15.2-53.76-21.3-81-2.37-10.58-4.5-22.57,1.59-31.55,3.15-4.64,8.07-7.72,12.84-10.67l38.73-23.9a63.55,63.55,0,0,1,10.52,42.36"/><path class="cls-3" d="M152.73,283.24c9.61,9.66,14.47,22.92,19.84,35.44s12.12,25.39,23.8,32.41c6.25,3.75,13.44,5.54,20.52,7.27l86.24,21.17a27.31,27.31,0,0,0,3.41-14.67,5.44,5.44,0,0,0-.75-2.84,6,6,0,0,0-2.51-1.77,299.62,299.62,0,0,0-83.15-24.88C216,313.68,204.38,294.24,193,275.31c-1.86-3.09-4.11-6.47-7.64-7.18-2.32-.46-4.69.36-6.91,1.17l-25.39,9.23"/><path class="cls-4" d="M289.66,228.64c-1.32-.16-2.53.8-3.24,2.83-1.64,4.72-3.42,9.38-5.16,14.06-.58,1.58-.81,2.84,1.39,3.43,7.75,2.09,12.93,7.73,17.69,13.63,5.15,6.37,11.85,9.65,19.57,11.44,2.33.54,3.61.13,4.27-2.44,1.27-5,2.81-9.9,4.38-14.79.55-1.74.67-2.89-1.59-3.15-9.15-1-15.06-7.17-20.89-13.41-2.47-2.66-4.86-5.4-7.49-7.9A13,13,0,0,0,289.66,228.64Z"/><path class="cls-4" d="M342,363.49a25.84,25.84,0,0,0-19.14-.05c-4,3.86-3.89,6.78.32,12.54,3.58,4.91,1.7,10.87-3.82,12-1.3.25-2.72,0-3.81,1-5.77.79-7.46,5.82-3.16,9.76,2.45,2.24,4.43,3.35,6.56-.72s3-3.94,5.27,0A26.79,26.79,0,0,1,327,404.2c1.55,5.77-2.07,10.64-8.1,11.06-2.56.18-5.15.07-7.72.13-4.81.12-5.51,1.19-4.11,6.27,8.49,1.55,16.93.43,25.32-.69,3.7-.49,4.78-3.69,5.49-7,1.37-6.42.84-13,1.63-19.46,1.09-8.87,1.67-17.8,3-26.65C342.75,366.38,343.08,364.84,342,363.49Z"/><path class="cls-4" d="M72.4,417.27c1.14-7.75-3-13.48-7.31-19.13-2.56-1.62-3.86.32-5.32,1.86C54.94,405.08,49,404.06,46,397.59c-1.07-2.34-1.7-4.95-4.6-5.82-3.55-1.94-4.55,1.15-5.73,3.19-1.45,2.49.86,3.09,2.51,3.7,3.32,1.24,2.33,2.76.45,4.5-8,7.38-17.73,9.27-28.13,9.11-1.06,0-2.11-.28-3.16-.27-2.35,0-5.22-.91-6.66,1.62s-.52,5,1.17,7.16c8.26,1.3,16.57.88,24.83.4,13.24-.77,26.49-1.27,39.7-2.46C68.47,418.53,70.64,418.81,72.4,417.27Z"/><path class="cls-3" d="M342,363.49c-2.51,12.67-3.39,25.52-4.45,38.36-.34,4.08-.58,8.17-1.05,12.23s-2.56,6.2-6.92,6.2c-6.06,0-12.13.32-18.19.55-1.47.05-3.07-.37-4.33.83,1.28,2.83,3.38,3.87,6.54,3.75,6.06-.22,12.14,0,18.2-.09,6.84-.14,10.39-3.33,11.26-10q2.81-21.43,5.49-42.87C349.44,365.49,349.13,365.11,342,363.49Z"/><path class="cls-3" d="M72.4,417.27c-20.58.47-41.07,2.92-61.68,2.74-2.94,0-6-.86-8.86.77,1.89,3.4,4.78,4.53,8.65,4.5,18-.14,35.94-.06,53.91-.06C71.75,425.22,72.3,424.66,72.4,417.27Z"/><path class="cls-5" d="M274.57,279.81c-3.43-4.5-7.86-4.82-12.25-.88-4.19,3.77-4.13,7.6.19,11.84C270.57,292.27,275.81,287.51,274.57,279.81Z"/><path class="cls-5" d="M359.35,308.44a6.29,6.29,0,0,0-6.19,6c-.16,3.88,3.69,7.91,7.7,8.07a6.47,6.47,0,0,0,6.74-5.93C367.71,312.66,363.51,308.52,359.35,308.44Z"/><path class="cls-5" d="M225.31,210.32c0,4.1,3.71,8.12,7.57,8.12a6.33,6.33,0,0,0,6.36-6.25c-.07-4-3.85-8-7.67-8.17A6.14,6.14,0,0,0,225.31,210.32Z"/><path class="cls-5" d="M407.6,404.48c1.46-3.13,1.14-6-1.85-7.93a8.36,8.36,0,0,0-9.76.09,5.76,5.76,0,0,0-2.08,7.88C398.77,409.24,403,409.23,407.6,404.48Z"/><path class="cls-5" d="M241,245c-2-4.14-5.14-5.37-9.48-3.72s-5.64,4.55-4.3,9.23c3.1,3.41,6.19,4.32,9.82,2.41C240.1,251.35,242.27,249,241,245Z"/><path class="cls-6" d="M274.57,279.81c-.4,7.24-3.58,10.13-12.06,11,4,3.15,7.48,1.33,10.52-1.33S277,283.49,274.57,279.81Z"/><path class="cls-5" d="M241,245c-.79,7.51-6.9,10-13.78,5.51,2.16,4.08,5.46,5.31,9.68,3.6C240.89,252.53,242.17,249.7,241,245Z"/><path class="cls-5" d="M407.6,404.48c-4.55,3.15-9.12,2.93-13.69,0,.88,3.66,3.77,4.51,6.88,4.43S406.86,408.28,407.6,404.48Z"/><path class="cls-7" d="M207.07,168.66c-2.88-4.28-7.06-5.1-10.91-2.14-3.67,2.82-4,6.54-1,10.28C202.41,178.6,205.48,176.49,207.07,168.66Z"/><path class="cls-8" d="M207.07,168.66c-2,5.56-5.51,9-11.91,8.14,2.58,2.06,5.24,2.69,8.24.75C206.73,175.41,208.15,172.57,207.07,168.66Z"/><path class="cls-9" d="M195.47,210.05c9.94,17-2.43,39.33,3.52,58.1.71,2.22,1.68,4.46,1.49,6.78-.42,5.42-6.48,8.28-11.65,10q-14.54,4.75-29.3,8.79a10.72,10.72,0,0,1-5.56.5c-2.58-.7-4.24-3.13-5.58-5.44A101.4,101.4,0,0,1,137,259.29l-49.4,9.07c-2,.37-4.21.7-5.95-.35a8,8,0,0,1-2.2-2.24,69,69,0,0,1-13.18-35.95c-.14-2-.16-4.2.86-6a11,11,0,0,1,4.3-3.62,398.86,398.86,0,0,1,56-26.82c17.83,16.42,45.44,21.27,67.8,11.91l-.27,4.56"/><path class="cls-4" d="M43.66,382.15a43.59,43.59,0,0,0,21.15-2.59c1.79-.68,1-3.58-.8-2.89a41.78,41.78,0,0,1-20.35,2.48c-1.92-.23-1.9,2.77,0,3Z"/><path class="cls-4" d="M44.14,387.75a39.79,39.79,0,0,0,20.86.07,1.5,1.5,0,0,0-.79-2.9,36.63,36.63,0,0,1-19.27-.06,1.5,1.5,0,0,0-.8,2.89Z"/><path class="cls-4" d="M306.44,380.4c1.6-2.85,4.19-5.91,5.25-9,.92-2.75.94-6.1,1.54-9,.39-1.88-2.5-2.68-2.9-.79-.57,2.76-.56,6.15-1.48,8.8s-3.52,5.85-5,8.48a1.5,1.5,0,0,0,2.59,1.51Z"/><path class="cls-4" d="M312.87,381.92l5.55-18.38c.56-1.86-2.34-2.65-2.89-.8L310,381.12c-.56,1.85,2.33,2.64,2.89.8Z"/><path class="cls-10" d="M221.49,170.51c9.08-11.46,16.89-24.92,29.57-32.84,6.17-3.85,11.68-6.87,15-13.66,3.2-6.44,5-13.46,7.73-20.11a3.46,3.46,0,0,1,4-2,282.42,282.42,0,0,0-6-29.64c-3.59-13-9.22-17.23-22.82-17.56-6.72-.17-13.29.84-19.88,1.87-4.13.54-6.67,3.24-8.78,6.49-2.23,3.44-4,7.14-6.4,10.49a13.91,13.91,0,0,1-8.36,5.85c-6.44,1.5-11.07-1.86-10.68-8.47.25-4.3-1.25-5.88-5.27-5.66-2.44.14-4.19-2.67-6.84-1.61-21.27,4.87-34.84,19.57-46.63,36.53,2.74,2.39,5.6,2.84,9.2,1.67s7.63-1.4,11-3.56c1.17-.74,2.68-.16,3.94.44a7.94,7.94,0,0,0,4.36,1c4-.48,5.72,1.44,7.1,5.23,1.57,4.35,2,9.18,4.94,13a4,4,0,0,1,.89,3c-.88,4.62,2.74,7.48,4.22,11.17.72,1.8,2.56,1.91,4.26,2,2.11.11,4.26-.21,6.3.58,4.66,2.5,6.18,11.18,2.6,14.88-1.27,1.32-2.74.87-4.22.6-2.65-.48-5.15-1.79-8-1.32-3.58,3.67-4.9,10.85-2.44,15.48,1.82,3.42,2.83,7.18,5.64,10.24,2.49,2.69,1.32,7.36,4,10.32a1,1,0,0,1-.18,1.26c-.87.7-1.73.17-2.5-.25a45.86,45.86,0,0,1-15.26-13.42,73.09,73.09,0,0,1-8.52-16c-1.12-2.83-2.66-5.06-5.59-6.13-1.47-1.4-2.42-3.54-5-3.27-.28,0-.34.1-.35.12a.5.5,0,0,0,0-.2c-1.34-4-6.42-5.37-7.05-9.91-.44-3.15-3.53-5-4.07-8.18-3.26-1.46-6.25-.45-9.14,1.06-9.06,4.74-16.79,11.43-25.16,17.18a42.52,42.52,0,0,1-11.19,6c-8.44,2.65-14.63-.32-17.7-8.69-1.88-5.14-2.64-10.59-3.82-15.92a48.76,48.76,0,0,0-3-9.55c-.74-1.63-1.34-3.48-3.64-3.56-3.3,3-2.43,7.31-3.49,11-.75,4.16-1.53,8.31-2.25,12.48s0,7.8,3.69,10.44c3.31,2.39,2.66,4.92.32,7.66-5.14,6-4.17,6-2.07,13.16,1.2,4.06,4,8.13,2.93,12.94-.65,2.91,0,6.34,2.33,7.92,3.59,2.42,4.17,7.21,8.18,9.1,1.2.56.8,2.2.93,3.34a8.89,8.89,0,0,0,4.28,7.09c3.6-.24,6,1.14,8.5,4.06,3.85,4.54,11.6,4.51,17.53.53a6.75,6.75,0,0,1,6.54-1c6.68,2.05,13.18,2,18.18-4.1.67-.81,1.37-1.81,2.56-1.62,4.62.72,8.19-3.67,12.95-2.52,1.27.3,2.51-1,3.32-2.11,1.16-1.58,2.69-1.77,4.42-1.54,3.32.32,5.3-1.72,7.06-4.08a11.23,11.23,0,0,1,3.57-3.31c3.8-2.17,6.73-2.13,10.41,1,5.12,4.32,10.77,8.28,17.87,9L197,205a198.27,198.27,0,0,1,23.87-31.16A3.37,3.37,0,0,1,221.49,170.51Z"/><path class="cls-5" d="M192.56,133.72c-.56-.18-1.22-.64-1.68-.49-7.18,2.27-9-3.82-11.89-7.86-.83-1.17.58-3.82-.15-5.22-2.13-4.08-2.89-8.72-5.05-12.65-1.64-3-.24-7.87-5-8.91-3.24-.72-6.85.64-9.87-1.8a3.14,3.14,0,0,0-2.64-.06c-3.28,1.37-6.89,2.36-9.92,3.63-4.09,1.72-6.91-.24-10.27-.18l-1.57.13c-3.32,1.48-3,4.88-3.89,7.59-1.21,3.8-2.78,4.85-6.59,3.78-1.29-.36-2.52-1.13-3.87-1.13-3.88,0-5.38-2.65-6.63-5.66-2.58-1.49-5.17-2.51-8.18-1.09-1.87.88-3.46-.74-5.24-.88-2.08-.82-4.32-1.07-6.34-2.14a6.38,6.38,0,0,0-6.07.19c-2.3,1.21-4.95,1.18-7.27,2.27A17,17,0,0,0,69,111.72c-.7,1.24-2,2.33-.91,4,3.32,3.64,4,8.34,5.15,12.85,1.15,4.69,1.85,9.51,3.18,14.15,3.38,11.88,11.91,15.71,23.1,10.43,7.73-3.64,14.06-9.43,21.11-14.13,3.77-2.52,7.24-5.47,11.28-7.62a15.26,15.26,0,0,1,9.6-2c3.17-.94,4-3.94,5.52-6.31a11,11,0,0,1,19.07.34c5.5,9.89,13.59,12.38,24.19,11.55A2.54,2.54,0,0,0,192.56,133.72Z"/><path class="cls-11" d="M182.75,63.65c3.16,1.26,5.9,3.8,9.75,2.92,1.72-.38,1.47.84,1.27,2-.89,5-.32,9.46,5.18,11.68,4.71,1.9,10.44.25,14.35-4.12a38.5,38.5,0,0,0,5.52-8.33,25.53,25.53,0,0,1,10.26-11.21A30.6,30.6,0,0,1,210,39.39a38.17,38.17,0,0,0,1.51-7.54,7.31,7.31,0,0,0-6.61-8.7c-4-.28-6.93,3.14-7,7.8,0,2.46,2.12,5.56-.47,7.24s-4-1.84-6.07-2.83-4-1.32-5.64,0c-4.34,3.48-8,7.62-9.51,13.17,1.31,3.11.11,5.85-1.13,8.66s.1,4.18,2.66,3C181.77,58.42,181.92,61.3,182.75,63.65Z"/><path class="cls-11" d="M68.09,115.71c3-4,4-10.18,10.86-10.08.55,0,1.11-.89,1.67-1.36-.09-2.44-.75-4.57-3.11-5.79-1.45-.38-2.91-.75-4.36-1.14-.44-.12-.91-.53-1.27-.43-3.73,1-7.2,3.09-11.39,2.23-.76-.15-1,1.66-1,2.74a1.92,1.92,0,0,1-1.32,2.05c-4.52,1.91-5.38,4.51-2.74,8.6.83,1.3,1.77,2.41,1.51,4.08-.38,2.46,1.1,3.74,3.18,4.2,3.16.7,4.69,2.39,4.24,5.67Q66.21,121.1,68.09,115.71Z"/><path class="cls-4" d="M113.57,104.89c-.34,4.25,1.52,6.39,5.89,6.63,3,.16,5.41,2.71,9,1.68,2.07-.6,2.74-1.27,2.92-3.06a26.67,26.67,0,0,1,3.22-9.83c2.25-8.61,2.21-8.21-6.55-9-5.44-.5-9.15-.35-10.15,6.25C117.45,100.15,115.05,102.45,113.57,104.89Z"/><path class="cls-4" d="M77.51,98.48l3.11,5.79c2.72-1,5.73-.9,8.32-2.65,1.69-1.14,3.93-.52,5.47.72a4.75,4.75,0,0,0,5.74.58c-3-4.92-6.15-9.74-8-15.25-.71-2.15-1.82-2.37-3.74-1.37a23.13,23.13,0,0,1-9,2.93c-4.62.28-4.8,2.4-3.13,5.84A32.85,32.85,0,0,1,77.51,98.48Z"/><path class="cls-11" d="M192.56,133.72c-11.8,1.24-21.82-1-26.54-13.6-.65-1.75-2.12-2.42-4-2.55-14.3-1-10.44-3.91-18.26,8.46-.73,1.15-1.53,2.26-2.3,3.38-.16,1-.83,2.54-.39,3,2.21,2.32,4.18,4.57,3,8.09,4.19.86,4.81,5.18,7.34,7.34,1.39,1.2,4.59,1,5.82,3.58,4.41.45,8.83.44,13.23,1.64s8.54-.51,12.07-3.41c3,.66,6,1.11,8.84,2,3.34,1.07,4.83-.41,5.67-3.33a21.21,21.21,0,0,0,.22-10.79C196.7,135,195.29,133.59,192.56,133.72Z"/><path class="cls-5" d="M182.57,149.65c-6.13,2.3-12.13,3.78-18.57.4-1.72-.9-4.26,1.76-6.74,1.37,3,.56,4.21,2.67,5.24,5.34,4.57,11.84,11,22.31,22.27,29.05a22.23,22.23,0,0,0,2.76,1.57c1.18.47,2.47,1.94,3.68.68a3.25,3.25,0,0,0-.12-4.24,10.26,10.26,0,0,1-2.72-7.13,4.9,4.9,0,0,0-1.48-3.22c-5.19-4.95-6.1-11.48-6.57-18C180.19,153.57,181.78,151.58,182.57,149.65Z"/><path class="cls-4" d="M110.21,137.58c2.3-13.39,2-13.8-10.21-14.3-2.58-.11-5.16-.14-7.74-.14-1.15,0-2.69-.27-2.58,1.6.09,1.36-.46,3,1.77,3.61,3.44.9,8.09.87,9.82,3.58C103.59,135.56,107.68,134.21,110.21,137.58Z"/><path class="cls-11" d="M194.07,134a173.65,173.65,0,0,0,53.68,2.37,4.07,4.07,0,0,0,2.34-.77c.89-.79.94-2.15.9-3.35a180.06,180.06,0,0,0-2.33-24.19,70.35,70.35,0,0,1,26.26-6.18,187.81,187.81,0,0,1,6.72,48.82,6.08,6.08,0,0,1-.82,3.77,5.9,5.9,0,0,1-3.11,1.78c-26.09,8.09-53.83-3.1-81.07-5.18a6.16,6.16,0,0,1-3.18-.83,5,5,0,0,1-1.54-2.23,14.39,14.39,0,0,1,.53-11.82"/><path class="cls-12" d="M183.65,269l-13.52,0,1.3,2.26c3.52-5.42,7.11-10.69,12.1-14.87L181,255.32q-.14,11.39.41,22.74c.09,1.92,3.09,1.93,3,0q-.54-11.37-.41-22.74a1.52,1.52,0,0,0-2.56-1.06c-5.19,4.34-8.91,9.84-12.57,15.47a1.51,1.51,0,0,0,1.29,2.26l13.52,0a1.5,1.5,0,0,0,0-3Z"/></g></g></svg>