<svg xmlns="http://www.w3.org/2000/svg" viewBox="0 0 782.55 344.54"><defs><style>.cls-1{fill:#fff;}.cls-2{fill:#f87339;}.cls-3{fill:#1d1f4e;}.cls-4{fill:#272f80;}.cls-5{fill:#593267;}.cls-6{fill:#1896a0;}.cls-7{fill:#aed2dd;}</style></defs><title>Fichier 5</title><g id="Calque_2" data-name="Calque 2"><g id="Calque_1-2" data-name="Calque 1"><path class="cls-1" d="M358.41,78.39a97.46,97.46,0,0,1-6.19-33.26c0-4.07.25-8.34,2.41-11.78a18.69,18.69,0,0,1,6.43-5.77c6.07-3.65,12.95-5.69,19.81-7.48,5.72-1.49,11.79-2.84,17.48-1.23,6,1.68,10.67,6.44,13.66,11.86s4.51,11.51,6,17.52L420.65,59c1.25,5.1,2.45,10.72.07,15.4-2.54,5-8.35,7.27-13.8,8.48a69.48,69.48,0,0,1-51-8.57"/><path class="cls-2" d="M181,167.15A36.13,36.13,0,0,1,201,147c3.4-1.36,8.06-1.82,10,1.28,1.63,2.57.31,5.89-.64,8.78a32.71,32.71,0,0,0,2.37,25.57c5.75,10.49,17,17.27,22.14,28.08a69.45,69.45,0,0,0,22-52c-.09-3.57-.19-7.77,2.64-9.95,1.63-1.26,3.82-1.45,5.88-1.58,19.52-1.22,40.68-.34,56.22,11.54a27.65,27.65,0,0,1,8,8.94c3.85,7.39,2.63,16.3,1.1,24.49a487,487,0,0,1-24.8,87.17c-6.19,16-15.25,33.4-31.81,37.74-6.54,1.72-13.44,1.08-20.14.19a276.71,276.71,0,0,1-59.54-14.78c-4.3-1.59-8.71-3.39-11.8-6.76s-4.54-8-5.75-12.4a266.84,266.84,0,0,1-9-56.07c-.53-10-.48-20.13,2.16-29.77,3-10.94,9.24-20.87,11.52-32"/><path class="cls-3" d="M370.44,130.93c3.86.3,6.3-4.14,6.91-8a29.18,29.18,0,0,0-9.62-26.22c-3.13-2.69-6.84-4.71-9.59-7.8S353.83,81.14,356,77.6c2.25-3.74,8.43-4.13,11.12-.69a73.15,73.15,0,0,0-1.52-29.53c-.56-2.14-1.17-4.59.08-6.41,2.27-3.31,7.29-1.09,11.09.17,9.6,3.17,19.72-2.43,28-8.18l8,22.17c1.23,3.39,4.68,7.54,7.53,5.32.86-.68,1.38-1.86,2.44-2.13,1.39-.35,2.52,1.1,3.23,2.35,2.83,5,5.52,11.64,1.7,15.89-1.15,1.27-2.74,2.08-3.88,3.36-4.36,4.86-.07,12.5-.82,19-.8,6.94-7.52,13.65-4.35,19.87,1,1.93,2.79,3.3,4.4,4.76,9.8,8.93,13.47,22.95,13.42,36.2,0,9.27-2.33,19.6-10.09,24.67-7.48,4.87-17.56,3.13-25.58-.78-19.83-9.68-32.59-32.23-30.66-54.22"/><path class="cls-1" d="M176.41,89.52a40.45,40.45,0,0,0,4.06,26.39c3.68,6.79,9.51,13,9.5,20.83a11.6,11.6,0,0,1,10.13-1.17c6.33,2.27,9.72,9.76,10.1,16.78s-1.52,13.91-2.37,20.87c-1.33,11,.06,22.51,5.24,32.14s14.43,17.09,24.89,18.5,21.79-3.93,26.67-13.73c2.92-5.85,3.45-12.7,3.1-19.28s-1.56-13.2-4.68-18.89a75.9,75.9,0,0,0-6.92-9.67c-12.51-16.16-21.49-38-15-57.65,1.4-4.24,3.48-8.26,4.26-12.66s-.1-9.55-3.56-12.19A5.09,5.09,0,0,0,238,78.63c-2.52.41-3.94,3.16-5.24,5.46a35.24,35.24,0,0,1-27.18,17.79,34.62,34.62,0,0,1-29.51-13.07"/><path class="cls-1" d="M149.51,51.6l-7.93,41.21c-1.94,10.11-4.71,21.44-13.35,26.51-2.53,1.49-5.39,2.3-7.85,3.91s-4.56,4.39-4.16,7.38c.29,2.22,1.87,4,3.38,5.6,4.6,4.93,9.3,9.95,12.25,16.1s3.91,13.73.86,19.82c-2.67,5.33-7.92,8.72-13.21,11.16-8.27,3.8-17.45,5.92-26.42,4.69s-17.68-6.11-22.56-14c-7.54-12.23-4.6-28.44.83-41.82S84.52,106,86.14,91.58c.88-7.77-.09-15.62-.76-23.42-.42-4.78.09-10.93,4.47-12.47,5.33-1.88,9.44,5.15,10.36,10.9,4.19.77,8-2.9,10-6.79s3.09-8.38,5.93-11.66c4.1-4.74,11-5.83,17-4.36s11.2,5.08,16.29,8.62"/><path class="cls-3" d="M147.48,66a38,38,0,0,0,26.68-32.27c-10.78,3.3-22,6.64-33.15,5.11-10.29-1.4-19.71-6.85-30-8.09-16.24-1.95-33.18,8.06-39.31,23.23s-.9,34.13,12.14,44c1.39,1,3,2,4.74,1.9,4.06-.34,5-6.06,3.64-9.92C90.65,85.36,87.72,81.4,85.74,77s-2.93-9.76-.48-13.91,9.33-5.53,12-1.55c1.14,1.66,1.32,3.77,2,5.65s2.42,3.74,4.39,3.37c1.54-.29,2.51-1.78,3.3-3.14C110,62.27,113,57,117.19,52.84s10-7.19,15.94-6.72c9.81.78,16.93,12.56,13.16,21.64"/><path class="cls-4" d="M176.25,116.65a166.61,166.61,0,0,1-4.19-35.88c-.05-7,1.45-15.65,8.1-17.94,1.51-.52,3.16-.63,4.63-1.28,2.3-1,3.83-3.21,5.54-5.07a25.62,25.62,0,0,1,24-7.5c11.3,2.56,19.42,12.52,24.76,22.81s8.88,21.6,15.77,30.92c7.53,10.18,18.45,17.19,28.53,24.87s19.92,16.82,23.64,28.92c2.12,6.87,2.1,14.19,2.05,21.37l-.24,42.84c0,6.35-.08,12.76-1.4,19a7.16,7.16,0,0,1-1.86,4,7.72,7.72,0,0,1-3.87,1.49L260.69,253c-4.83-15.11,2.63-31,5.8-46.56A86.32,86.32,0,0,0,268.2,187a19.45,19.45,0,0,0-1.57-8.25c-1.63-3.27-4.75-5.47-7.59-7.76-23.69-19.1-33.63-53.56-23.75-82.34-9.6,11.75-25,17.39-40.07,19-4.11.45-8.35.66-12.13,2.33s-7.1,5.22-7.06,9.35"/><path class="cls-4" d="M302.48,216c-2.16-10.76.78-22,6.07-31.67s12.79-17.8,20.39-25.73c12.53-13.08,26.32-26.22,43.79-31,6.1,11.94,4.45,27.82,14,37.18a28.23,28.23,0,0,0,11.35,6.36c6.47,2.06,13.91,2.53,19.71-1,4.92-3,7.9-8.38,9.6-13.88A45.74,45.74,0,0,0,426,125.52a95.7,95.7,0,0,0,9,8c13.92,10.41,34.13,14.15,41.88,29.72,3,5.95,3.53,12.78,4.05,19.41,2,25.08,4.24,50.19,9,74.88,3.5,18.21,8.39,36.4,7.82,54.92-.15,4.74-.84,9.88-4.18,13.24-2.42,2.44-5.85,3.55-9.18,4.42-12.32,3.22-25.07,4.38-37.77,5.41-40.95,3.32-82.27,5.33-123,.05C315,334.43,306,332.76,299.49,327c-7.43-6.64-9.76-17.19-10.95-27.08-.94-7.83-1.41-15.89.63-23.52,1.77-6.64,5.35-12.63,8.06-18.94a76.63,76.63,0,0,0,4-48"/><path class="cls-5" d="M183.19,314.87c6.64-34.57,5.83-71.34-7.79-103.8C164,183.89,144.35,161.13,125,138.87c-.84-1-1.88-2-3.15-1.93-1.58.1-2.46,1.82-3,3.29Q115.43,149.11,112,158a22.48,22.48,0,0,1-3.64,6.9c-2.54,2.88-6.43,4.27-10.26,4.6-10,.88-20-5.05-25.17-13.67s-6-19.45-3.41-29.19c-9.4,0-19,0-27.82,3.38-7.38,2.79-13.72,7.74-19.87,12.69-4.45,3.59-8.92,7.27-12.28,11.9-7.27,10-8.47,23.06-9,35.41-1.6,37,.48,74,2.57,111,.28,5,.71,10.32,4,14a21.48,21.48,0,0,0,6.55,4.54,230,230,0,0,0,168.89,15.69c4.19-1.25,8.69-2.89,10.93-6.65,3.44-5.79-2.1-14.47-8.81-13.78"/><path class="cls-6" d="M516.58,136.43c-3.93-7.4-14.87-8.32-22.1-4.1s-11.61,11.91-15.66,19.24L461,183.89c-2.62,4.74-5.32,9.77-5.19,15.19.14,6.14,3.85,11.53,7.19,16.68a200.46,200.46,0,0,1,27.67,66.58c1.37,6.34,3.07,13.64,8.87,16.54a20.92,20.92,0,0,0,7.32,1.63q43.26,4.17,86.57,7.72c2.85.23,6.31.18,7.81-2.25a7.82,7.82,0,0,0,.77-4.24l-.74-135.06c0-3.7-.08-7.57-1.78-10.85a23.62,23.62,0,0,0-5-6c-8.77-8.33-17.65-16.74-28.11-22.81-2.34-1.36-5.15-2.63-7.68-1.65a8.29,8.29,0,0,0-3.91,4.07c-5.41,10-4,23-10.64,32.28-5.57,7.79-15.48,11.07-24.87,13-3.33.67-7.43,1-9.49-1.74-1.4-1.86-1.25-4.43-.95-6.74a104,104,0,0,1,8-28.61"/><path class="cls-2" d="M496,53.13c-4.19-1.23-8.83.83-11.72,4.11s-4.32,7.58-5.35,11.83a85,85,0,0,0,5.64,55.75c1.46,3.1,3.17,6.2,5.82,8.39s6.4,3.33,9.59,2.06c2.22-.88,3.86-2.76,5.32-4.64,8-10.4,12.82-24.07,9.68-36.81-1.57-6.39-5-12.13-8.39-17.77-2.41-4-4.88-8.12-8.4-11.22s-8.31-5.13-12.91-4.22A5.41,5.41,0,0,0,482.32,62a6.64,6.64,0,0,0-1.37,3,69.46,69.46,0,0,0-2.06,18.28"/><path class="cls-1" d="M499.06,60.54c-4.17-5-13-2.9-16.52,2.57s-2.8,12.64-.8,18.81,5.16,12,6.42,18.33a45.56,45.56,0,0,1-.05,15.67c1.47-2.84,5.9-2.73,8.29-.61s3.31,5.39,4.23,8.45,2.13,6.32,4.83,8c2.39,1.54,5.58,1.58,7.77,3.4,4.64,3.88,1.12,11.26-2.08,16.4-2.92,4.69-5.42,9.81-6,15.31s1.11,11.45,5.34,15c3.29,2.77,7.7,3.8,12,4.25,10,1.05,21.51-1.5,26.41-10.22,4.18-7.44,2.15-16.75-.76-24.77s-6.63-16.26-5.48-24.71,7-15.55,9.5-23.72c2-6.45,1.71-13.77-1.69-19.59s-10.21-9.78-16.9-8.89c-4.74.64-9.6,3.49-14,1.61-3.82-1.63-5.39-6.08-7.82-9.45A18.74,18.74,0,0,0,494.34,59"/><path class="cls-2" d="M590.32,125.43a157.74,157.74,0,0,0-3.84-23.17c-1.08-4.4-2.39-8.87-5.07-12.52-3.23-4.38-8.11-7.18-12.48-10.42a66.19,66.19,0,0,1-14.57-14.89c-4-5.68-7.17-12-11.9-17.14-11.84-12.78-33-15.1-47.9-6.11s-22.75,27.9-19.68,45c.93,5.22,2.77,10.34,2.69,15.64s-2,10.2-2.88,15.33c-1.2,6.75-.55,14,2.81,20s9.67,10.46,16.52,10.66l-1.33-1.12c4.17,2.22,9.66-.67,11.65-5a16.45,16.45,0,0,0,1-9.51A8.46,8.46,0,0,1,503,130a22.31,22.31,0,0,1-4.15-3.45,19.49,19.49,0,0,1-2-2.57c-13.51,3.39-17.66-42.93-17.7-50.55a2.81,2.81,0,0,1,.23-1.19,10.42,10.42,0,0,1,.42-5.15c1.39-3.42,5.7-5,9.3-4.15s6.52,3.46,8.77,6.39c5.94,7.75,9.39,18.93,18.79,21.57,7.47,2.1,15-2.44,21.59-6.54,1.83-1.15,4.14-2.29,6-1.26,1.68.92,2.15,3.15,1.93,5.06-1,8.3-10.34,12.45-15.62,18.93-9,11.05-5.11,27.71,1.77,40.19,3.78,6.85,8.43,13.39,14.74,18s14.5,7.11,22.1,5.3c8.85-2.1,15.63-9.71,18.78-18.23S591.14,134.48,590.32,125.43Z"/><path class="cls-7" d="M646.65,119.19c-18.84,2-34.29,17-42,34.35s-9,36.69-9.92,55.62Q592.53,256,593,302.85c0,2.36.11,4.88,1.48,6.8a11.05,11.05,0,0,0,4.8,3.3c28.3,12.42,60.63,11.29,91.25,7.1s61.17-11.21,92-9.81c-.34-48.12-1.1-98.13-22.33-141.33a104.31,104.31,0,0,0-12.57-20.15c-12.76-15.59-31-25.49-48.75-35a5.78,5.78,0,0,0-2.66-.9c-2.8,0-3.83,3.57-4.82,6.19-2.93,7.71-11.37,11.56-19,14.63-4.19,1.69-8.74,3.4-13.11,2.26-7.17-1.87-10.24-10.15-12.21-17.29"/><path class="cls-3" d="M633.51,64.87c1.26-7.71,2.28-16.43-2.51-22.6-3.11-4-8.34-6.37-10.2-11.07s.28-9.86,2.91-14.08C630.86,5.66,645.06-3.56,657.54,1.6c3.16,1.31,6,3.44,9.22,4.45s7.44.47,9.16-2.48c2.25,3.88,8.17,2.71,12,.44s8.31-5.27,12.41-3.45c8.66,3.84.81,20.94,9.33,25.09,2.4,1.17,5.23.67,7.85.17,8.36-1.6,17.33-3,25.12.47s13.14,13.63,8.5,20.76c-1.61,2.47-4.13,4.22-5.76,6.66s-2,6.27.42,7.94a14.87,14.87,0,0,0,3.62,1.3c5.21,1.84,7,8.87,4.89,14s-6.8,8.62-11.48,11.55c-2.08,1.3-4.32,2.69-5.27,5-1.81,4.28,1.86,8.68,4.1,12.76a22.32,22.32,0,0,1,.44,20.21c-3.2,6.52-9.61,11.45-11.1,18.56-2.29,10.92,7.93,20.41,10,31.39,2.11,11.32-4.72,22.45-4.92,34-.17,10,4.24,21.31-2.09,29-4,4.86-11,6.07-17.27,5.94s-12.72-1.24-18.83.33c-10.15,2.61-17.54,13.29-16.42,23.71.69,6.4,3.83,13.94-.7,18.52a10.08,10.08,0,0,1-5.76,2.62c-6.54,1-13.24-2.37-17.41-7.51s-6.05-11.81-6.5-18.41c-1-14.2,6.24-30.22,20-34,2.1-.57,4.59-1.08,5.5-3.06a6,6,0,0,0,.24-3.29c-1.54-12.57-7.93-24.07-10.39-36.5s.69-27.8,12.28-32.94c3-1.31,6.25-1.84,9.1-3.4s5.27-4.69,4.51-7.84c-.39-1.62-1.54-2.93-2.42-4.33-2.8-4.44-3.09-9.95-3.3-15.19l-1.14-28.61c-.08-2-.14-4.13.85-5.89s2.86-2.82,4.54-4c7-4.8,11.9-13.33,10.41-21.67s-10.82-15-18.74-12C674.08,55,670.6,66.49,661.84,68.48a5.17,5.17,0,0,1-4.05-.46,7.64,7.64,0,0,1-2.26-3.47c-2.34-5.26-8.5-10.16-13.42-7.18s-5.6,11.8-11.19,11.53"/><path class="cls-1" d="M644.83,122.79c3-3.29,2.28-8.76.09-12.7S639.38,103,637.33,99c-3-5.79-4.41-14.25-10.68-15.13-1.1-.16-2.3,0-3.23-.67-1.85-1.25-1.11-4.39.59-5.84s4-1.94,5.82-3.23c5.09-3.58,4.71-11.28,4.35-17.65a8.93,8.93,0,0,1,.57-4.54c1.35-2.7,5-3.28,7.79-2.36,5.2,1.7,8.44,6.88,12,11.2s8.82,8.37,14,6.63c6.68-2.23,10-13.07,16.92-11.54,3.41.76,5.34,4.4,6.82,7.66,2.29,5,4.59,10.92,2.19,15.88-1.13,2.31-3.13,4-4.62,6.09-4.82,6.72-3.67,16.19-.87,24s7,15.32,7.88,23.64A13.16,13.16,0,0,1,696,140c-1.48,3.15-4.71,5-7.83,6.29-7.08,3-15.37,4.64-22.25,1.16-9.9-5-13.12-18.27-21.91-25.14"/><path class="cls-3" d="M674.05,69.82a6.48,6.48,0,0,1,12.9.65c.11,3-1.86,5.69-3.38,8.32-2.84,4.94-4.32,10.83-3.23,16.42s5,10.75,10.47,12.49c7.63,2.45,16.09-2.38,20.3-9.19s5.1-15.1,5.61-23.09c.47-7.55.55-15.62-3.45-22-2.38-3.82-6-6.68-9.53-9.46-5.37-4.2-11.45-8.64-18.24-8.07s-12.33,6.26-15.67,12.33-5.31,12.88-9.18,18.62a31,31,0,0,1,13.16,1.71"/></g></g></svg>