<svg xmlns="http://www.w3.org/2000/svg" viewBox="0 0 159.46 306.71"><defs><style>.cls-1{fill:#1896a0;}.cls-2{fill:#1d1f4e;}.cls-3{fill:#272f80;}</style></defs><title>Fichier 3</title><g id="Calque_2" data-name="Calque 2"><g id="Calque_1-2" data-name="Calque 1"><path class="cls-1" d="M159.46,140.49V268.71c-5.08-1.43-10.13-3-15.25-4.25-16.53-4.06-32.58-9.66-48.55-15.47-3.84-1.39-7.14-3.72-8.47-7.92a177.69,177.69,0,0,0-8.76-21.84c2.2-13.65,4.25-27.31,5.44-41.09,4.7,2.06,9.23,4.44,14.29,5.72,15.43,3.9,30.63-2.2,38.59-16,5.78-10,7.9-21.05,8.16-32.51C150,136.43,154.68,138.57,159.46,140.49Z"/><path class="cls-2" d="M78.43,219.23a177.69,177.69,0,0,1,8.76,21.84c1.33,4.2,4.63,6.53,8.47,7.92,16,5.81,32,11.41,48.55,15.47,5.12,1.26,10.17,2.82,15.25,4.25v37c-14.54,3.68-26.42-3.56-38.45-9.64-9.93-5-19.64-10.53-29.21-16.22a44.77,44.77,0,0,0-18.57-6c-4.76-.5-9.24-1.76-12.84-5.17-2.88-3.11-4.31-7-6-10.8-4.12-9-9.58-16.87-18.65-21.67-2.88-1.53-6.49-2.2-7-6.69-.32-3-5.64-5-1.91-9-2.28-3.73-2.25-6.47,3-7.08.2,0,.49-.7.46-1.05-.41-4.53,2.66-4,5.39-3.59,9.72,1.32,19.14,3.47,26.6,11,.21-6.94,2.05-8,8.21-5.45A24.62,24.62,0,0,1,78.43,219.23Z"/><path class="cls-2" d="M83.87,178.14c-.31-8-.34-16-1.67-23.93-2.32-13.84-8.73-25-20.42-32.89-1.76-1.19-3.33-2.67-5-4A72.51,72.51,0,0,1,48.2,91a63.69,63.69,0,0,1,1-21.33c.24-1.08.19-2.46,1.67-2.67a2.89,2.89,0,0,1,3,2c1.76,3.74,4.43,4.48,8.1,2.89A4.63,4.63,0,0,1,67.14,73c2.91,2.79,5.94,2.42,9,.5,2.57-1.61,5-1.84,7.63-.18C87,75.42,89.7,74.49,92,71.54c1.81-2.38,3.51-4.87,6.32-6.31,5.1-2.63,10.1-1.07,12.63,4.06,3.62,7.33.6,17.94-6.48,22-2,1.18-1.66,2.82-1.67,4.44-.12,21.89,10.82,33.92,34.12,37.6l8,2c-.26,11.46-2.38,22.49-8.16,32.51-8,13.79-23.16,19.89-38.59,16C93.1,182.58,88.57,180.2,83.87,178.14ZM67,90c-4.18-1.24-5.81,1.29-7.44,4.55-1.76,3.53,0,5.74,2.15,7.92,5.42,5.51,18.42,2.21,21.28-5.28,1.32-3.45.56-5.69-3-7.11-3.2-1.27-6.17-2.94-9.61-.51C69.5,90.14,68.09,89.88,67,90Z"/><path class="cls-3" d="M9.65,39.23c.48-2.49,1.87-4.23,4.41-4.66,3.67-.62,5.45-2.88,5.91-6.36s2.48-5.49,6-5.4c3.36.09,5.08-1.56,5.69-4.6.85-4.24,3.55-5.53,7.54-5.08,3.12.35,5.41-.56,6.94-3.69,2.25-4.58,4.9-5.24,9.3-2.61,2.82,1.69,4.36.79,5.77-1.89,2.91-5.52,4.26-5.85,9-2.12,2,1.61,3.66,1.36,5.25-.3,3.06-3.22,6.07-3.45,9.19-.14a5.22,5.22,0,0,0,6.6,1.23c3.74-1.72,7-1,9.48,2.39,1.76,2.39,4.18,2.46,6.56,1.65,4.38-1.49,7.55-.4,9.54,3.8,1.26,2.66,3.26,3.26,6,2.64,3.39-.75,6,.37,7,3.89,1,3.18,3.21,4.41,6.4,4.73,4.95.5,6,1.78,6,6.89,0,2.72.62,4.62,3.5,5.58,3.13,1,4.34,3.6,4.05,6.79-.23,2.62.68,4.62,3.13,5.48,4.53,1.58,4.72,5.06,3.73,8.71-.94,3.45,0,5.85,2.8,7.74V93.16c-4.14,1.75-4.69,5.24-3.83,9,.7,3,.16,5.33-2.31,7.2a10.31,10.31,0,0,0-4.16,9.79c.36,4.11-1.86,6.63-5.71,7.34-4,.76-5.79,3.3-6.58,6.94-23.3-3.68-34.24-15.71-34.12-37.6,0-1.62-.35-3.26,1.67-4.44,7.08-4.11,10.1-14.72,6.48-22-2.53-5.13-7.53-6.69-12.63-4.06-2.81,1.44-4.51,3.93-6.32,6.31-2.25,2.95-4.93,3.88-8.19,1.82-2.64-1.66-5.06-1.43-7.63.18-3,1.92-6.08,2.29-9-.5A4.63,4.63,0,0,0,62,71.91c-3.67,1.59-6.34.85-8.1-2.89a2.89,2.89,0,0,0-3-2c-1.48.21-1.43,1.59-1.67,2.67A63.69,63.69,0,0,0,48.2,91a72.51,72.51,0,0,0,8.6,26.27A12.42,12.42,0,0,1,54,116.5c-10.31-5.89-21.66-8.63-33.07-11.39-4.6-1.11-9.64-.88-13.76-3.79,1.84-1.93,4.45-2.51,6.69-3.72a30.68,30.68,0,0,0,6.26-49.54C18.15,46.23,4.5,34.23,6.54,44.43l4.69,1.83c1.11,1.24,0,3.25-1.44,4.13s-3.2,1.37-4.07,2.79c-1.32,2.17.28,5-.3,7.48C5,62.59,3.23,64.48,4.1,66.26c.47.94,1.6,1.49,1.9,2.5.86,2.82-5.1,3.93-4.65,6.85.18,1.19,1.39,1.89,2.2,2.79,2.38,2.67,0,7.79-3.55,7.72V95.4a4.07,4.07,0,0,1,4.4,1.67,4.07,4.07,0,0,1-.32,4.7c7.64,1.41,15.22-2.65,21.39-7.38s12.26-11.1,13.39-19S36.1,60,32.33,53c-1.34-2.48-2.88-5.15-5.51-6.18-1.52-.59-3.22-.55-4.76-1.1-2.32-.81-4-2.82-5.77-4.48s-4.22-3.14-6.59-2.49"/><path class="cls-3" d="M30.44,42.66c-3-3-6.37-5.84-10.44-7s-9-.09-11.35,3.47c-3.36,5.22.46,12,.6,18.18.13,5.37-2.6,10.4-3.32,15.72-.63,4.65.27,9.43-.56,14-.73,4-2.69,8.33-.74,11.91s7,4.29,11.17,4.46c4.38.16,9.15.22,12.68-2.38a19.59,19.59,0,0,0,4.37-5.16,48,48,0,0,0,4.95-8.67C40.72,80,39.94,71.8,39.12,64c-.61-5.72-1.29-11.69-4.47-16.49A30.85,30.85,0,0,0,30.44,42.66Z"/></g></g></svg>