<svg xmlns="http://www.w3.org/2000/svg" viewBox="0 0 261.74 650.1"><defs><style>.cls-1{fill:#1896a0;}.cls-2{fill:#272f80;}.cls-3{fill:#fff;}.cls-4{fill:#f87339;}.cls-5{fill:#4f84b3;}.cls-6{fill:#558da8;}.cls-7{fill:#1d1f4e;}.cls-8{fill:#2e2624;}.cls-9{fill:#e69d7e;}</style></defs><title>Fichier 9</title><g id="Calque_2" data-name="Calque 2"><g id="Calque_1-2" data-name="Calque 1"><text></text><path class="cls-1" d="M154.47,251.1l-6.43-3c-5.63,13-12.15,25.51-20.87,36.72-6.22,8-14,13.14-24.72,9.86s-14.2-11.8-15.15-21.94c-1.12-12,1.92-23.46,4.5-35l-8.31,3.18c-.14,1.07-.45,2-1.78,2l.13-.12c-8.41,24.06-16.55,48.19-21.1,73.36q-1.85,13.18-3.67,26.39-1.86,23.34-3.7,46.65a28.85,28.85,0,0,1-.57,12.43c.05,1.84.11,3.68.16,5.52l82.67,18.12c7.53,2.61,9.64-.92,10.79-8,4.11-25.25,8.88-50.39,13.4-75.56l-4.79-5.9c-11.42-10.46-13.43-24.13-12.93-38.55C142.67,281,148.37,266,154.47,251.1Z"/><path class="cls-2" d="M135.63,425.27,53,407.15q-.63,40.88-1.25,81.74c0,2.84-.68,6.1,3,7.55l29.35.23c5.54-.33,4.67-4.49,4.69-8,.06-9.56,0-19.13,0-28.7,0-3.74-.15-7.08,5.5-7.1,4.89,0,7,1.12,7.61,6.3,1.17,10.15,3.14,20.19,4.69,30.3.57,3.73,1,7.41,6.23,6.71a178,178,0,0,1,30-5.77c5.54-1.53,4.23-5.56,3.48-9.45Q140.94,453.13,135.63,425.27Z"/><path class="cls-3" d="M142.81,490.4a178,178,0,0,0-30,5.77,5,5,0,0,0,.19,1c9.49,24.58,7.28,49.6,3.06,74.77-1,6.13-.73,12.49-1,18.74l23.54,2.48c2.72-17.91,5.79-35.76,8.07-53.72C148.74,522.89,146.82,506.52,142.81,490.4Z"/><path class="cls-3" d="M84.05,496.67l-29.35-.23q2.7,47.05,5.39,94.12l25.34.11C85.52,559.33,85.55,528,84.05,496.67Z"/><path class="cls-4" d="M111.08,625c-1.09,2.35-2.56,4.6-3.21,7.07-4.13,15.86-2.53,17.89,13.78,17.92s32.72,0,50.49,0c-6.43-8.63-15-11.79-23.35-14.36-6.08-1.87-6.92-4.59-5.32-9.88.68-2.28,3.21-5.15.29-7.16s-5.55.58-8.18,1.75c-1.71,3.09-3.4,6.19-5.12,9.29-3.86,7-7.28,7.27-11.87.65C116.62,627.45,114.73,625.14,111.08,625Z"/><path class="cls-4" d="M60.05,617.92c-7.25-.85-5.58,3.78-4.2,7.43,2.28,6,.41,8.46-5.71,10.23a52,52,0,0,0-22.88,13.08c8.35,2.06,16,1,23.62,1.14,11.2.23,22.43-.33,33.6.26,7.32.4,10-2.62,8.44-9.14-1.32-5.65,1-13.06-6.77-16.08-1.45,1.28-3.18,2.36-4.31,3.87-6.44,8.72-8.83,8.61-13.67-1.35C66.25,623.39,63.83,620.14,60.05,617.92Z"/><path class="cls-5" d="M52.8,374.63a28.89,28.89,0,0,0,.57-12.44A30.37,30.37,0,0,0,52.8,374.63Z"/><path class="cls-3" d="M155,335.82q4.53-12.06,9.07-24.14c1.13-4.21-.24-9.9,5.9-11.25,12.37-2.72,23.06-9.35,34.46-14.3l21.83-15.84c9.35-7.2,18.48-14.72,28.14-21.49,5.16-3.62,7.3-7.91,7.31-14a129.54,129.54,0,0,0-7-43.54c-3-8.67-5.43-17.55-8.28-26.28-3.41-10.44-2.28-19.91,5.36-28.2q.06-4.38.11-8.76c-1.92-7.38-5.83-13.4-13.8-14.27-4.09-.45-7.37-2.4-11.14-3.22-4.36,2.19-11.59-.15-12.3,7.81a8.17,8.17,0,0,1-4.28,8.1c-.78,4.06-.35,8,2.36,11.2,9.5,11.3,8.25,24.52,6.14,37.5s-4.68,25.9-1,39c1,3.48-.4,4.63-3.77,5-10.43,1.08-18.63,6-24.3,14.91a5.42,5.42,0,0,1-5.77,2.77c-12.95-1.66-21.94,4.91-29.59,14.27-6.1,14.86-11.8,29.85-12.37,46.17C141.6,311.69,143.61,325.36,155,335.82Z"/><path class="cls-3" d="M.65,282.51q-.3,13.22-.58,26.42a6.45,6.45,0,0,1,.13,1c0,21.94-3.91,23.71,23.1,19.91,13.47-1.9,24.64-10,37.44-13.65,4.55-25.17,12.69-49.3,21.1-73.36-8.94,2-13.39,9.11-17.1,16.35-2.31,4.51-4.55,7.3-10,7.78-6.6.58-12.06,4.63-18.25,9.27a127.9,127.9,0,0,1,4.81-36.35c1.86-6.86,5.16-10.26,12.33-9.39,2.25-4.07,3.21-8.26,1.33-13.52-6,5-11.3,9.74-17,14-2.36,1.78-5.23,5.23-8.53,2.06-2.75-2.64-1.23-6.14,0-9.21,3.05-7.49,7.4-14,14.89-17.68,3.36-1.66,4.31-3,.22-4.82-6.2,1-10.69,4.56-14.73,9.15-16,18.18-23.35,40.06-27.35,63.4C2,276.78,1.27,279.64.65,282.51Z"/><path class="cls-3" d="M91.8,237.73c-2.58,11.52-5.62,23-4.5,35,1,10.14,4.43,18.66,15.15,21.94s18.5-1.86,24.72-9.86c8.72-11.21,15.24-23.72,20.87-36.72-7-3.94-11.29-8.91-6.42-17.27,1.59-6.94,1-14.45,9.49-18.55,4.78-2.3,1.92-6.54-1.79-9-4.78,1.13-6-2-7.45-5.64-1.62-4.14-2.67-8.87-7.44-10.94-.12,12,1.35,24.25-5.09,35.31.08-6.82,1.12-13.51,1.78-20.24.67-6.92-.44-13.74-1.91-20.5v.35c.17-1,.27-1.87-1.22-1.33-4,.75-5.74,4-7.86,6.9-1,1.31-1.57,3.06-2.8,4-6.57,5-7.92,7.32-4.47,14.58,2.27,4.77,2.42,6.73-2.93,8.56-5.92,2-5.26,7.83-3.37,11.57,4,8-.21,8.8-6.31,9.48C97.39,235.65,94.62,236.9,91.8,237.73Z"/><path class="cls-6" d="M128.68,114.38c-16.7-1.72-16.68-1.85-20.52,13.53a59.56,59.56,0,0,1-6.32,16.5c-6,10.07-14.24,16.21-26.69,14.55C64,153.67,57.63,144.44,53.88,133.12a82.27,82.27,0,0,1-.57-51.31C56.63,71,62.72,62.4,73,57.17,85.09,55.11,93.16,61,99.52,70.41a58.7,58.7,0,0,1,9.58,26.7c.6,5.32,2.66,7.11,8,7.52a772.52,772.52,0,0,1,97.65,13.74,8.17,8.17,0,0,1-4.28,8.1C183.38,121.07,156.11,117.21,128.68,114.38ZM101.44,90.8C97.56,75.54,88.44,65.06,79,65S60.93,75.18,57.5,91.25C53.93,107.9,55.42,124,63.82,139c3.67,6.56,8.75,11.92,17,11.73s12.78-5.93,16.55-12.41a18.18,18.18,0,0,0,.85-1.78c3.07-6.63,7.06-14.3,4.69-20.69-2.94-7.95-12.13-1.82-18.26-3.77a14.18,14.18,0,0,0-3.93-.2c-3.51-.08-3-2.7-3.11-4.93s.71-3.84,3.28-3.85c3.28,0,6.57,0,9.85,0C104.82,104.37,104.88,104.3,101.44,90.8Z"/><path class="cls-7" d="M75.15,159C64,153.67,57.63,144.44,53.88,133.12a82.27,82.27,0,0,1-.57-51.31C56.63,71,62.72,62.4,73,57.17c-10.69-1.71-17.39,4.27-22.74,12.24C36.48,90,37.62,127.89,52.59,147.77,58.18,155.2,65.17,160.19,75.15,159Z"/><path class="cls-4" d="M149.32,203.23c3.71,2.48,6.57,6.72,1.79,9-8.52,4.1-7.9,11.61-9.49,18.55,2,0,3.95.09,5.93,0,21.49-.64,21.95-.85,18.83-22.55-1.57-10.95-3.09-22.52-15.39-27.78C151.5,188.16,152.08,195.82,149.32,203.23Z"/><path class="cls-6" d="M149.32,203.23c2.76-7.41,2.18-15.07,1.67-22.73-7.52-4.45-15.11-6.17-22.86-.52a2.66,2.66,0,0,1,1.09,1.59v-.35c4.33-.68,3.79,3.31,5.22,5.43,4.77,2.07,5.82,6.8,7.44,10.94C143.29,201.19,144.54,204.36,149.32,203.23Z"/><path class="cls-8" d="M129.22,181.57a2.66,2.66,0,0,0-1.09-1.59l-.13.26C129.49,179.7,129.39,180.6,129.22,181.57Z"/><path class="cls-9" d="M81.71,242.92c1.33,0,1.64-.94,1.78-2C82.42,241.16,81.57,241.6,81.71,242.92Z"/><path class="cls-4" d="M134.43,186.65c-1.43-2.12-.89-6.11-5.22-5.43,1.47,6.76,2.58,13.58,1.91,20.5-.66,6.73-1.7,13.42-1.78,20.24C135.78,210.9,134.31,198.65,134.43,186.65Z"/><path class="cls-7" d="M90.7,103.12c14.12,1.25,14.18,1.18,10.74-12.32C97.56,75.54,88.44,65.06,79,65S60.93,75.18,57.5,91.25C53.93,107.9,55.42,124,63.82,139c3.67,6.56,8.75,11.92,17,11.73s12.78-5.93,16.55-12.41a18.18,18.18,0,0,0,.85-1.78c3.07-6.63,7.06-14.3,4.69-20.69-2.94-7.95-12.13-1.82-18.26-3.77a14.18,14.18,0,0,0-3.93-.2c-3.51-.08-3-2.7-3.11-4.93s.71-3.84,3.28-3.85C84.13,103.11,87.42,103.12,90.7,103.12Z"/><path class="cls-6" d="M27.32,258.21c-9.9-8.07-13.65-18.24-10.46-30.77,3.23-5.18,4-10.27,3-16.7-2.32-14.06,9.63-27.32,25.23-29.7C65.28,178,82.61,195,77.41,213.37A31.78,31.78,0,0,0,76.79,230c3.29,14.48-7.86,29.32-23.45,32.78C44,264.84,35.4,263.12,27.32,258.21ZM65.64,211.8c2,1.46,3.64,5.06,5.81,4s2-4.84,2.21-7.58a11.7,11.7,0,0,0,0-1.45c-.47-12.72-12-22.5-25.5-21.63-14.11.92-24.94,12.11-23.89,24.75.13,1.47-.11,3.23,1.72,4.37l5.6-4.43C43.21,205.53,54.64,205.05,65.64,211.8ZM21.55,241.51c3.52,13,17.71,20.44,31.71,16.67,13.64-3.67,21.89-17,18.34-29.71C68,215.56,53.72,208.3,39.68,212.22,26.07,216,18.12,228.86,21.55,241.51Z"/><path class="cls-7" d="M21.55,241.51c-3.43-12.65,4.52-25.5,18.13-29.29,14-3.92,28.31,3.34,31.92,16.25,3.55,12.68-4.7,26-18.34,29.71C39.26,262,25.07,254.49,21.55,241.51Zm19.54,2.85c.7,2.82,2.12,4.5,4.69,4.68,2.75.19,4.83-1.15,5.36-3.9A81.68,81.68,0,0,0,52.38,235c.17-2.83-1.48-4.61-4.25-5a4.52,4.52,0,0,0-5.5,3.63C41.83,237.27,41.55,241,41.09,244.36Z"/><path class="cls-7" d="M31.57,209.82,26,214.25c-1.83-1.14-1.59-2.9-1.72-4.37C23.2,197.24,34,186.05,48.14,185.13c13.49-.87,25,8.91,25.5,21.63a11.7,11.7,0,0,1,0,1.45c-.26,2.74,0,6.5-2.21,7.58s-3.85-2.53-5.81-4a4.34,4.34,0,0,0-1.45-3.48,93.86,93.86,0,0,0-17.06-11.84c-2.88-1.56-5.79-.21-7.72,2.3C36.66,202.36,34.17,206.13,31.57,209.82Z"/><path class="cls-3" d="M31.57,209.82c2.6-3.69,5.09-7.46,7.84-11,1.93-2.51,4.84-3.86,7.72-2.3a93.86,93.86,0,0,1,17.06,11.84,4.34,4.34,0,0,1,1.45,3.48C54.64,205.05,43.21,205.53,31.57,209.82Z"/><path class="cls-6" d="M41.09,217.35c.46-3.36.74-7.09,1.54-10.7a4.52,4.52,0,0,1,5.5-3.63c2.77.41,4.42,2.18,4.25,5a81.29,81.29,0,0,1-1.24,10.09c-.53,2.76-2.61,4.1-5.36,3.91C43.21,221.86,41.79,220.18,41.09,217.35Z"/></g></g></svg>