<svg xmlns="http://www.w3.org/2000/svg" viewBox="0 0 30.83 35.58"><defs><style>.cls-1{fill:#fff;}</style></defs><title>Fichier 7</title><g id="Calque_2" data-name="Calque 2"><g id="Calque_1-2" data-name="Calque 1"><polygon class="cls-1" points="4.84 1.11 22.85 1.11 29.72 7.99 29.72 34.47 4.84 34.47 4.84 31.45 3.73 31.45 3.73 35.59 30.83 35.59 30.83 7.53 23.31 0 3.73 0 3.73 14.54 4.84 14.54 4.84 1.11"/><path class="cls-1" d="M1.49,24.22h.86A2.23,2.23,0,0,0,4,23.52a2.31,2.31,0,0,0,.68-1.67V20.41a2.36,2.36,0,0,0-.6-1.67,2.27,2.27,0,0,0-1.74-.69H0V28H1.49Zm0-4.65h.9a.81.81,0,0,1,.62.24.85.85,0,0,1,.24.63v1.44a.86.86,0,0,1-.25.61.82.82,0,0,1-.61.25h-.9Z"/><path class="cls-1" d="M10.58,25.58V20.4a2.27,2.27,0,0,0-.69-1.66A2.21,2.21,0,0,0,8.23,18H5.88V28H8.23a2.37,2.37,0,0,0,2.35-2.37Zm-1.46,0a.85.85,0,0,1-.24.6.81.81,0,0,1-.6.26h-.9v-6.9h.9a.78.78,0,0,1,.59.25.82.82,0,0,1,.25.61Z"/><polygon class="cls-1" points="16.14 19.54 16.14 18.04 11.89 18.04 11.89 27.95 13.38 27.95 13.38 23.75 15.39 23.75 15.39 22.24 13.38 22.24 13.38 19.54 16.14 19.54"/></g></g></svg>