<svg xmlns="http://www.w3.org/2000/svg" viewBox="0 0 32.68 32.68"><defs><style>.cls-1{fill:#f87339;}</style></defs><title>Fichier 2</title><g id="Calque_2" data-name="Calque 2"><g id="Calque_1-2" data-name="Calque 1"><path class="cls-1" d="M11,9.14h0a8,8,0,0,0-3.5,2C4,14.64,4.35,20.53,8.16,24.34s9.7,4.11,13.13.68a7.86,7.86,0,0,0,2.05-3.5v0c1.93-6.68,3.24-8.7,8.41-10.55A16.38,16.38,0,0,0,21.52.84C19.68,5.93,17.64,7.23,11,9.14Z"/><path class="cls-1" d="M32.33,13c-4.37,1.56-5.26,3.16-7,9.15v0a10.1,10.1,0,0,1-2.57,4.37,10.41,10.41,0,0,1-7.42,3,12.34,12.34,0,0,1-8.67-3.68C2.06,21.19,1.75,14,6,9.73a10.06,10.06,0,0,1,4.36-2.57h0C16.32,5.44,18,4.56,19.5.32A15.68,15.68,0,0,0,16.34,0a16.31,16.31,0,1,0,16,13Z"/></g></g></svg>