<svg xmlns="http://www.w3.org/2000/svg" viewBox="0 0 464.27 436.63"><defs><style>.cls-1{fill:#fff;}.cls-2{fill:#f87339;}.cls-3{fill:#272f80;}.cls-4{fill:#1d1f4e;}.cls-5{fill:#1896a0;}.cls-6{fill:#fefefe;}.cls-7{fill:#cb74b7;}</style></defs><title>Fichier 3</title><g id="Calque_2" data-name="Calque 2"><g id="Calque_1-2" data-name="Calque 1"><path class="cls-1" d="M380.38,235.75c.35.07.71.12,1.08.17a36.74,36.74,0,0,1,4-18.31,9,9,0,0,1-2.55-4,258.84,258.84,0,0,1-10.82-42.1c-.88-5.23-1.73-10.78-5.1-14.88-2.73-3.32-6.85-5.33-9.3-8.85-2.62-3.77-2.92-8.65-2.74-13.24a10.66,10.66,0,0,1,.75-4.16c2.74-5.87,13.69-4.41,19-4.85a6,6,0,0,0,6.19-4.16l3-5.64c2.56-4.82,3.94-10,.76-14.93-2.19-3.4-5.83-5.59-9.51-7.28-4.5-2.07-9.84-3.54-14.3-1.38-3.88,1.87-7.37,6.4-11.41,4.91-1-.38-1.91-1.13-3-1.22-2.4-.23-3.81,2.9-3.26,5.24s2.22,4.27,3,6.55c1.78,5.46-2.4,11.49-7.77,13.53s-11.39,1-16.9-.57c-11.91-3.49-22.83-9.66-34.17-14.71-28.7-12.78-60-18.4-90.91-23.92a16.77,16.77,0,0,0,2.82,15.29c3.88,4.86,10.08,7.1,15.95,9.12l55.23,19c5.08,1.74,10.3,3.57,14.32,7.12,10.94,9.68,9,27.82,17.79,39.46a11,11,0,0,0,4.94,4c3.84,1.33,7.93-.81,11.49-2.78,8.18-4.52,18.84-8.31,26.29-2.67a14.47,14.47,0,0,1,3.77,4.35,9.79,9.79,0,0,1,3.68,5.75c2.46,10.16,4.82,20.57,8.62,30.34C364,217.69,366.67,227,372,232.2s13.21,5,18.91,1.09c19.09-12.9,38.59-26.21,52-44.92"/><path class="cls-1" d="M169.05,261.57c-5-15.2-13.84-33.06-26.11-43.3s-25.34-20.4-32.82-34.53c-6,.57-5.85,4.44-5.87,10.42s2.84,11.55,5.65,16.82c14.27,26.75,29.48,53.86,52.51,73.58,2,1.72,4.27,3.46,6.92,3.55,2.36.08,4.53-1.18,6.56-2.4C186,279.63,196.13,273.54,206,267c8.29-5.53,16.83-12,20-21.48L203,222.68a2.24,2.24,0,0,0-3.66-.21C189.27,230.27,173.77,249.71,169.05,261.57Z"/><path class="cls-2" d="M96.8,175.28c-1.43.87-3,1.95-3.23,3.61a5.54,5.54,0,0,0,.81,3.11,111,111,0,0,0,10.52,17.18,15.5,15.5,0,0,1,9-17.51,48.06,48.06,0,0,1-6.31-10.91C103.69,171.14,100.17,173.24,96.8,175.28Z"/><path class="cls-1" d="M269.55,375.84c-3.28,2.87-6.78,7.83-11.14,8.83s-8.31.23-9.53-3.81c6-8.07,14.51-15.51,19.11-24.35,2.52-4.85,4.6-9.9,7.19-14.73C281,330.94,289.29,321.44,297.5,312c3.59-4.11,7.21-8.26,11.59-11.65,6.22-4.84,13.73-8,21.13-11.06-8.33-6.51-20.62-16.73-29-23.24-1.82-1.42-3.83-3.42-3.1-5.52a5.58,5.58,0,0,1,1.83-2.2A71.92,71.92,0,0,1,319.06,247a6.31,6.31,0,0,1,7.89,1c10.92,8.55,21.56,18,27.57,30.05,2.1,4.2,3.61,8.95,2.38,13.43a22,22,0,0,1-3.83,7c-9.33,12.65-21.46,23.24-33.48,33.73Z"/><path class="cls-1" d="M314.11,254.53a21.57,21.57,0,0,0-28.93,10.33l37.58,19.68a44.05,44.05,0,0,0,9.07,3.91,34.64,34.64,0,0,0-13.54-31.37A26.69,26.69,0,0,0,314.11,254.53Z"/><path class="cls-3" d="M207.19,204.67c-3.19,2.66-6.52,5.32-8.65,8.89-3.15,5.27-3.24,12-1.46,17.83s5.27,11.09,9,16c4,5.24,8.57,10.38,14.59,13.11s13.82,2.47,18.49-2.21c2.62-2.63,3.93-6.24,5.81-9.45s4.79-6.28,8.5-6.42a11.3,11.3,0,0,1,6.61,2.41,31.7,31.7,0,0,1,9.42,10.07c3.74,6.35,6,14.74,13,17.2,6.26,2.21,12.86-1.72,18.33-5.48l22.58-15.52c2.44-1.68,5.15-3.84,5.13-6.8a8.07,8.07,0,0,0-1.84-4.47c-8.2-11.67-22.44-17.72-31.52-28.72-3.38-4.1-6-8.87-10.1-12.3-7.06-6-16.92-6.81-25.94-8.76s-18.9-6.44-21.4-15.33A260.3,260.3,0,0,1,207.19,204.67Z"/><path class="cls-2" d="M240.43,171.11a9.34,9.34,0,0,0-3.28,3.95c-.84,2.48.41,5.17,2,7.28,9.81,13.38,30.05,14.26,42,25.77,6.39,6.17,11.56,15.85,20.43,15.69,8.36-.16,13.33-9.08,16.93-16.62A267,267,0,0,1,353.74,152c2.11-2.55,4.37-5.29,4.61-8.58s-2.7-7-5.88-6.06c-1.61.46-2.72,1.89-3.72,3.24-6.24,8.41-12.65,17-21.34,22.83a22.38,22.38,0,0,1-8.33,3.74,14.74,14.74,0,0,1-16.45-19.71c1.7-4.51,5.45-7.87,8.9-11.23s6.86-7.25,7.53-12-2.73-10.36-7.54-10.18c-3.33,11.17-14.95,19.27-26.59,18.53C276.66,150.65,255.88,158.61,240.43,171.11Z"/><path class="cls-4" d="M345.94,114.87c2.19-1.31,3.8-3.36,5.63-5.13,9.15-8.83,24.92-9.63,34.91-1.77,3.13-5.6.26-13-4.78-17s-11.63-5.28-18-6.26-12.91-1.83-18.42-5.13c-7.15-4.27-11.4-12-17.07-18.05a48.75,48.75,0,0,0-31.51-15.23c-6-.48-12.89.65-16.2,5.66s-1.78,11.29-.24,16.91a12.31,12.31,0,0,0,2.18,4.94c3.43,4,11,2.82,13.41,7.49a26.12,26.12,0,0,0-13.31,2.14c-1.44.65-3.06,2-2.57,3.47a3.2,3.2,0,0,0,1.46,1.56c7.42,4.7,17.73,3,24.84,8.15,3,2.17,5.06,5.33,7.53,8.07A36.54,36.54,0,0,0,335,116.24C338.7,116.85,342.72,116.81,345.94,114.87Z"/><path class="cls-1" d="M445.34,172.64a34.6,34.6,0,0,1,17.6-14.24c1.66,2,1.65,5,.65,7.4a21.66,21.66,0,0,1-4.6,6.26c-18,19.19-36.21,38.53-57.88,53.47-7.07,4.87-14.86,9.38-23.44,9.89-1.52-4.67.26-9.91,3.34-13.74s7.3-6.54,11.41-9.23q17-11.17,33.27-23.5c3.7-2.81,7.54-5.9,9.18-10.25,1.33-3.52,2.23-8.62,6-8.58L439,178C441.93,178.17,443.81,175.11,445.34,172.64Z"/><path class="cls-2" d="M272.76,373.3a3.89,3.89,0,0,1,1.82,1.33,27.33,27.33,0,0,0-11.94,7.9c-1.92,2.3-3.61,5.12-7.08,6a8.49,8.49,0,0,1-7.85-2.27,7.25,7.25,0,0,1-1.5-6.45c5.27-2.86,7.66-10.48,14-11.45C264.53,367.66,269.16,371.56,272.76,373.3Z"/><path class="cls-5" d="M238.39,386.11a4.82,4.82,0,0,0-.88,1.5c-.63,2.19,1.66,3.86,3.39,5.07,4.53,3.17,7.29,8.78,11.38,12.64a33.43,33.43,0,0,0,9.26,5.82,87.85,87.85,0,0,0,27,7.53c.72-1.4-.64-3-1.87-3.8-5.45-3.68-11.56-6.17-16.49-10.7s-8.55-12.08-6.5-18.9c-3.52-.26-7.15-.56-10.27-2.42s-3.34-4.24-2.76-8.19C247.35,379,241.74,381.8,238.39,386.11Z"/><path class="cls-1" d="M286.12,422.25c2.25-.37,5.15-2,4.45-4.5-13,1.16-25.48-5.44-37.24-11.88a36.71,36.71,0,0,1-6.79-4.41c-4-3.5-6.61-8.76-10.88-11.75-2,3.72-5.77,7.2-4.67,11.36a9.17,9.17,0,0,0,2.78,4.05C248,418.93,267.6,425.34,286.12,422.25Z"/><path class="cls-2" d="M241.3,51.38a4.55,4.55,0,0,1-2.09.82c-2.25.08-3.53-3-5.78-3.21-2.49-.25-3.71,2.87-5.47,4.66-2,2.05-5.16,2.41-8,2.54a110,110,0,0,1-19.54-.84c-2.91-.38-5.94-.94-8.26-2.73a12.3,12.3,0,0,1-3.48-4.53c-3.87-8-1.71-17.71,2.23-25.7a37.19,37.19,0,0,1,9.75-12.91c4.25-3.39,9.77-5.43,15.16-4.72S226.37,9,232,8.77c4-.17,7.58-2.21,11.21-3.85A58.82,58.82,0,0,1,261.06.09a6,6,0,0,1,3.32.3,5.41,5.41,0,0,1,2.34,2.84,16.74,16.74,0,0,1,.18,12.94c-.76,1.85-1.85,3.56-2.42,5.47-1.22,4.19.21,8.84-1.19,13C261.8,39,257.55,41.67,253.6,44Z"/><path class="cls-6" d="M40.7,46.14A24.69,24.69,0,0,0,48,53.31C59.19,61,72.74,64.11,85.94,67.1c1.56.35,6.27,2.77,7.85,2.59a24.11,24.11,0,0,0,7-1.81c12.17-6.8,21.84-13.61,34-20.41-2.85,4.09-8.29,6.56-7.11,11.41,1,4.31,1,11,5.3,11.95s12.64,5.06,17,4.3c7.51-1.29,12.45-2.56,20-3.85a30.76,30.76,0,0,1,12.24,0c4.19.91,10.7-1.48,11.56,2.72-35.14-1.59-51.71,12-65.52,30.84-4.24,5.76.4,14.89,3.94,21.1,1.87,3.28,5.26,5.35,8.12,7.83,10.63,9.2,14,23.95,17.72,37.51a324.7,324.7,0,0,0,15.12,43.17c2.31,5.38,4.85,10.8,8.88,15,9.16,9.64,24.11,11.19,37.23,9,10.84-1.83,21.2-5.76,31.41-9.85,13.11-5.24,26.09-10.78,39.08-16.32a16,16,0,0,0,5.23-3.05c4.07-4,2.86-10.74,1.37-16.25a276,276,0,0,1-88,15.91c-4.93-33.8-6.36-68-7.78-102.12-.4-9.47-.25-20.3,6.84-26.58,5.07-4.49,12.9-5.74,16.54-11.45,1.76,6.58,12.3,8.23,16,2.5,1.74-2.7,1.91-6.17,3.54-9s6.18-4.32,7.86-1.57L255.69,42a104.76,104.76,0,0,1-16,9.85c1.3-4.41-1.22-9.94-5.73-10.8s-9.1,4.76-6.59,8.6a28,28,0,0,1-23.54,3.94c-2.07-.6-4.06-1.45-6.14-2a59.17,59.17,0,0,0-8.8-1.34c-7.2-.82-14.31-2.28-21.41-3.73L144,41.76C115.33,35.9,86.41,30,59.42,18.58c-6.5-2.74-15.4-5.19-19.44.59-1.56,2.23-1.79,5.11-2,7.83C37.59,33.54,37.28,40.55,40.7,46.14Z"/><path class="cls-6" d="M310.6,183.75c4.54-1.22,8.38-4.19,12.38-6.65s8.68-4.53,13.3-3.65a4,4,0,0,1-.54,3.51l5.08-.72-2.65,4.55a14.71,14.71,0,0,0,5.16-.93L342.12,185a154.46,154.46,0,0,1-63.83,31.78,23.69,23.69,0,0,1,15.86-24.08,15.62,15.62,0,0,0,4.22-1.67c1.88-1.3,2.8-3.55,3.87-5.58a30.79,30.79,0,0,1,10.16-11.31Z"/><path class="cls-6" d="M55,382c24.78-16.84,31.46-42.33,60.56-49.46C86.72,315.32,82,305.33,61.3,278.9c-8.37-10.7-48.41-24.42-51.86-37.56,13.7-7.69,49.1-15.83,64.74-17.37a17.45,17.45,0,0,1,6,.15c3.77.95,6.55,4,9.08,7l50.22,58.25c6.33,7.34,12.73,14.79,17,23.51s6.19,19,3.17,28.19c-2,6.26-6.22,11.61-10.84,16.31-10.89,11.07-24.44,19.07-37.87,26.84q-38.36,22.16-77.33,43.2c-6.29-6.33.58-8.12-3.69-16a6.09,6.09,0,0,1-1-3.34,6,6,0,0,1,1.05-2.56C36.07,395.75,45.44,388.45,55,382Z"/><path class="cls-5" d="M152.94,186.16c1.46-.53,8.13-2.46,8-4-.46-4.31-1.37-4.37-2-7.49-1.5-6.91-2-14.54-4.09-21.31a48.94,48.94,0,0,0-5.66-12.47c-3.45-5.19-10.47-7.75-14.54-12.47s-6.92-11.5-4.24-17.12a21,21,0,0,1,4.69-5.75l6.63-6.38c8.52-8.22,17.44-16.68,28.67-20.4s25.65.56,31.84,10.65c-.46-1.85,2-4.52,3.22-6,1.91-2.26.11-5.73-2-7.76-7.81-7.35-19.52-8.72-30.23-8S151.72,71,141.06,69.81c-3-.32-6.19-1.07-8.14-3.36-3.26-3.84-1.3-9.91,2-13.73s15.34-9.78,10.2-11.11C127.35,38.4,116,54,102.68,62.67a104.3,104.3,0,0,0-12.91,9.46,111.49,111.49,0,0,0-9.7,10.33c-11.39,13.23-54.54,31.2-65.93,44.43a14.7,14.7,0,0,0-2.88,4.26c-.81,2.14-.59,4.51-.46,6.79.47,7.93-7.65,24.93-9.52,32.65-.69,2.86-1.55,5.77-1.2,8.7.65,5.42,44.36-4.3,48.58-.83,5,4.11,10.15,8.31,16.28,10.42,6.33,2.18,13.2,2,19.89,1.72l49.45-1.8C140.58,188.57,147,188.32,152.94,186.16Z"/><path class="cls-7" d="M43.05,253.14c-2.26,1.8-5.15,3.45-7.9,2.57-1.45-.47-19.3,8.57-20.27,7.39C9.57,256.61,4.66,233.37,4,225c-1.14-14.35,18.44-24.55,17.3-38.9-.27-3.46-.44-7.29,1.71-10,2.31-2.91,6.42-3.5,10.11-3.87l16.33-1.65c3.75-.38,8.28-.42,10.38,2.71,1,1.49,1.17,3.36,1.48,5.13,1.28,7.31,5.4,13.78,9.79,19.77a186.24,186.24,0,0,0,22.51,25.43c-11.13,9.46-27.35,10.67-39.06,19.4C50.46,246.07,47.05,250,43.05,253.14Z"/><path class="cls-4" d="M7.1,432.38c-3.7-4.84-2.58-11.92-.89-17.88,2.75-9.74,7-19.85,15.38-24.91,2.95-1.79,6.37-2.92,8.69-5.54a71.2,71.2,0,0,0,31.09,30.64C48.43,416.7,38.8,428.09,27,434,20.5,437.26,11.6,438.29,7.1,432.38Z"/></g></g></svg>