<svg xmlns="http://www.w3.org/2000/svg" viewBox="0 0 75.99 24.92"><defs><style>.cls-1{fill:#272f80;}</style></defs><title>Fichier 2</title><g id="Calque_2" data-name="Calque 2"><g id="Calque_1-2" data-name="Calque 1"><path class="cls-1" d="M2.55,6.22c0,3.3,3.47,4,6.15,4.79,3.64.89,6.94,2.69,6.94,7,0,4.05-3.91,6.94-7.72,6.94a8,8,0,0,1-5.81-2.75l0,1.8a1,1,0,0,1-1,1,.92.92,0,0,1-1-1L0,18S0,17,1,17a1,1,0,0,1,1.08,1v.14c0,3.16,2.49,4.76,5.51,4.72,2.75,0,5.92-1.73,5.92-4.83s-2.69-4.42-5.31-5C3.23,11.8.48,9.83.48,6.22.48,2.45,4.08,0,7.51,0a6.55,6.55,0,0,1,5.27,2.41l0-1.46a.92.92,0,0,1,1-.95,1,1,0,0,1,1.05,1v5a1,1,0,0,1-1,1.12.92.92,0,0,1-.95-.92c0-2.89-2.55-4.22-5.41-4.22C5.1,1.9,2.55,3.54,2.55,6.22Z"/><path class="cls-1" d="M21.83,12.48C21.83,18,26.28,23,31.89,22.81a9.82,9.82,0,0,0,7-3.13,1.05,1.05,0,1,1,1.5,1.47,11.66,11.66,0,0,1-8.57,3.77,12.29,12.29,0,0,1-12.1-12.44A12.51,12.51,0,0,1,31.86,0c2.38,0,5.1,1,6.08,2.48l0-1.49a.93.93,0,0,1,1-1,1,1,0,0,1,1,1V6A1,1,0,0,1,39,7.07a.92.92,0,0,1-1-.92V5.88c0-1.73-1.94-3.77-6.22-3.77A10.32,10.32,0,0,0,21.83,12.48Z"/><path class="cls-1" d="M49.1,22.78h.27a1.07,1.07,0,0,1,0,2.14H46.68a1.07,1.07,0,0,1,0-2.14H47V2.14h-.27a1.07,1.07,0,0,1,0-2.14h2.69a1.07,1.07,0,0,1,0,2.14H49.1Z"/><path class="cls-1" d="M57.12,12.48C57.12,18,61.57,23,67.18,22.81a9.86,9.86,0,0,0,7-3.13,1,1,0,1,1,1.49,1.47,11.66,11.66,0,0,1-8.57,3.77A12.29,12.29,0,0,1,55,12.48,12.52,12.52,0,0,1,67.15,0c2.38,0,5.1,1,6.08,2.48L73.2,1a.93.93,0,0,1,1-1,1,1,0,0,1,1,1V6a1,1,0,0,1-1,1.12.92.92,0,0,1-.95-.92V5.88c0-1.73-1.94-3.77-6.22-3.77A10.32,10.32,0,0,0,57.12,12.48Z"/></g></g></svg>