<svg xmlns="http://www.w3.org/2000/svg" viewBox="0 0 261.74 593.34"><defs><style>.cls-1{fill:#1896a0;}.cls-2{fill:#272f80;}.cls-3{fill:#fff;}.cls-4{fill:#f87339;}.cls-5{fill:#4f84b3;}.cls-6{fill:#558da8;}.cls-7{fill:#1d1f4e;}.cls-8{fill:#2e2624;}.cls-9{fill:#e69d7e;}</style></defs><title>Fichier 2</title><g id="Calque_2" data-name="Calque 2"><g id="Calque_1-2" data-name="Calque 1"><path class="cls-1" d="M154.47,194.34l-6.43-3c-5.63,13-12.15,25.51-20.87,36.71-6.22,8-14,13.15-24.72,9.87S88.25,226.08,87.3,216c-1.12-12,1.92-23.46,4.5-35l-8.31,3.18c-.14,1.07-.45,2-1.78,2l.13-.11c-8.41,24.05-16.55,48.19-21.1,73.35q-1.85,13.2-3.67,26.39-1.86,23.34-3.7,46.65a28.89,28.89,0,0,1-.57,12.44c.05,1.84.11,3.68.16,5.52l82.67,18.12c7.53,2.61,9.64-.92,10.79-8,4.11-25.25,8.88-50.39,13.4-75.57L155,279.06c-11.42-10.46-13.43-24.13-12.93-38.55C142.67,224.19,148.37,209.2,154.47,194.34Z"/><path class="cls-2" d="M135.63,368.51,53,350.39q-.63,40.88-1.25,81.73c0,2.85-.68,6.1,3,7.56l29.35.23c5.54-.33,4.67-4.49,4.69-8,.06-9.57,0-19.13,0-28.7,0-3.74-.15-7.08,5.5-7.11,4.89,0,7,1.12,7.61,6.31,1.17,10.14,3.14,20.19,4.69,30.29.57,3.73,1,7.42,6.23,6.72a179,179,0,0,1,30-5.78c5.54-1.53,4.23-5.56,3.48-9.44Q140.94,396.35,135.63,368.51Z"/><path class="cls-3" d="M142.81,433.63a179,179,0,0,0-30,5.78,5,5,0,0,0,.19,1c9.49,24.58,7.28,49.59,3.06,74.77-1,6.13-.73,12.48-1,18.74l23.54,2.48c2.72-17.91,5.79-35.77,8.07-53.73C148.74,466.13,146.82,449.76,142.81,433.63Z"/><path class="cls-3" d="M84.05,439.91l-29.35-.23q2.7,47.06,5.39,94.12l25.34.1C85.52,502.56,85.55,471.22,84.05,439.91Z"/><path class="cls-4" d="M111.08,568.24c-1.09,2.35-2.56,4.6-3.21,7.07-4.13,15.86-2.53,17.89,13.78,17.91s32.72,0,50.49,0c-6.43-8.63-15-11.79-23.35-14.36-6.08-1.87-6.92-4.59-5.32-9.89.68-2.27,3.21-5.14.29-7.15s-5.55.58-8.18,1.74c-1.71,3.1-3.4,6.2-5.12,9.29-3.86,7-7.28,7.27-11.87.66C116.62,570.69,114.73,568.38,111.08,568.24Z"/><path class="cls-4" d="M60.05,561.16c-7.25-.85-5.58,3.78-4.2,7.43,2.28,6,.41,8.46-5.71,10.22A52,52,0,0,0,27.26,591.9c8.35,2.06,16,1,23.62,1.14,11.2.23,22.43-.33,33.6.26,7.32.39,10-2.62,8.44-9.14-1.32-5.65,1-13.07-6.77-16.08-1.45,1.28-3.18,2.35-4.31,3.87-6.44,8.71-8.83,8.61-13.67-1.35C66.25,566.63,63.83,563.38,60.05,561.16Z"/><path class="cls-5" d="M52.8,317.87a28.89,28.89,0,0,0,.57-12.44A30.37,30.37,0,0,0,52.8,317.87Z"/><path class="cls-3" d="M155,279.06q4.53-12.07,9.07-24.14c1.13-4.21-.24-9.9,5.9-11.25,12.37-2.72,23.06-9.35,34.46-14.31l21.83-15.83c9.35-7.2,18.48-14.72,28.14-21.49,5.16-3.62,7.3-7.91,7.31-14a129.54,129.54,0,0,0-7-43.54c-3-8.67-5.43-17.55-8.28-26.28-3.41-10.44-2.28-19.92,5.36-28.2q.06-4.38.11-8.76c-1.92-7.38-5.83-13.4-13.8-14.27-4.09-.45-7.37-2.4-11.14-3.22-4.36,2.18-11.59-.15-12.3,7.81a8.17,8.17,0,0,1-4.28,8.1c-.78,4.06-.35,8,2.36,11.2,9.5,11.3,8.25,24.52,6.14,37.49s-4.68,25.9-1,39c1,3.48-.4,4.63-3.77,5a31.29,31.29,0,0,0-24.3,14.91,5.44,5.44,0,0,1-5.77,2.77c-12.95-1.67-21.94,4.91-29.59,14.27-6.1,14.86-11.8,29.85-12.37,46.17C141.6,254.93,143.61,268.6,155,279.06Z"/><path class="cls-3" d="M.65,225.75Q.35,239,.07,252.16a6.76,6.76,0,0,1,.13,1c0,21.94-3.91,23.71,23.1,19.91,13.47-1.9,24.64-10,37.44-13.66,4.55-25.16,12.69-49.3,21.1-73.35-8.94,2-13.39,9.1-17.1,16.35-2.31,4.5-4.55,7.3-10,7.78-6.6.57-12.06,4.62-18.25,9.26a127.88,127.88,0,0,1,4.81-36.34c1.86-6.86,5.16-10.27,12.33-9.4,2.25-4.07,3.21-8.25,1.33-13.51-6,5-11.3,9.74-17,14-2.36,1.79-5.23,5.23-8.53,2.06-2.75-2.63-1.23-6.14,0-9.2,3.05-7.49,7.4-14,14.89-17.68,3.36-1.67,4.31-3,.22-4.82-6.2,1-10.69,4.56-14.73,9.14-16,18.19-23.35,40.06-27.35,63.41C2,220,1.27,222.87.65,225.75Z"/><path class="cls-3" d="M91.8,181c-2.58,11.52-5.62,23-4.5,35,1,10.13,4.43,18.66,15.15,21.94S121,236,127.17,228c8.72-11.2,15.24-23.72,20.87-36.71-7-3.94-11.29-8.91-6.42-17.27,1.59-6.94,1-14.45,9.49-18.55,4.78-2.3,1.92-6.55-1.79-9-4.78,1.12-6-2-7.45-5.64-1.62-4.14-2.67-8.87-7.44-10.94-.12,12,1.35,24.25-5.09,35.3.08-6.81,1.12-13.5,1.78-20.23.67-6.92-.44-13.75-1.91-20.51v.36c.17-1,.27-1.88-1.22-1.33-4,.75-5.74,4-7.86,6.9-1,1.31-1.57,3.06-2.8,4-6.57,5-7.92,7.32-4.47,14.58,2.27,4.77,2.42,6.73-2.93,8.56-5.92,2-5.26,7.83-3.37,11.57,4,8-.21,8.79-6.31,9.48C97.39,178.89,94.62,180.14,91.8,181Z"/><path class="cls-6" d="M128.68,57.62C112,55.9,112,55.77,108.16,71.15a59.5,59.5,0,0,1-6.32,16.49c-6,10.07-14.24,16.22-26.69,14.55C64,96.91,57.63,87.68,53.88,76.36a82.27,82.27,0,0,1-.57-51.31C56.63,14.27,62.72,5.64,73,.41c12.07-2.06,20.14,3.86,26.5,13.23a58.78,58.78,0,0,1,9.58,26.71c.6,5.31,2.66,7.1,8,7.52A772.52,772.52,0,0,1,214.7,61.61a8.17,8.17,0,0,1-4.28,8.1C183.38,64.31,156.11,60.44,128.68,57.62ZM101.44,34C97.56,18.78,88.44,8.3,79,8.21S60.93,18.42,57.5,34.49c-3.57,16.65-2.08,32.74,6.32,47.77,3.67,6.57,8.75,11.93,17,11.74s12.78-5.93,16.55-12.41a19.35,19.35,0,0,0,.85-1.78c3.07-6.63,7.06-14.3,4.69-20.7-2.94-7.94-12.13-1.81-18.26-3.76a14.18,14.18,0,0,0-3.93-.2c-3.51-.08-3-2.7-3.11-4.93s.71-3.84,3.28-3.86H90.7C104.82,47.61,104.88,47.54,101.44,34Z"/><path class="cls-7" d="M75.15,102.19C64,96.91,57.63,87.68,53.88,76.36a82.27,82.27,0,0,1-.57-51.31C56.63,14.27,62.72,5.64,73,.41,62.33-1.3,55.63,4.68,50.28,12.64,36.48,33.2,37.62,71.13,52.59,91,58.18,98.43,65.17,103.43,75.15,102.19Z"/><path class="cls-4" d="M149.32,146.47c3.71,2.47,6.57,6.72,1.79,9-8.52,4.1-7.9,11.61-9.49,18.55,2,0,3.95.09,5.93,0,21.49-.64,21.95-.85,18.83-22.55-1.57-11-3.09-22.52-15.39-27.78C151.5,131.4,152.08,139.06,149.32,146.47Z"/><path class="cls-6" d="M149.32,146.47c2.76-7.41,2.18-15.07,1.67-22.73-7.52-4.45-15.11-6.17-22.86-.52a2.63,2.63,0,0,1,1.09,1.59v-.36c4.33-.67,3.79,3.32,5.22,5.44,4.77,2.07,5.82,6.8,7.44,10.94C143.29,144.43,144.54,147.59,149.32,146.47Z"/><path class="cls-8" d="M129.22,124.81a2.63,2.63,0,0,0-1.09-1.59l-.13.26C129.49,122.93,129.39,123.84,129.22,124.81Z"/><path class="cls-9" d="M81.71,186.15c1.33,0,1.64-.93,1.78-2C82.42,184.4,81.57,184.84,81.71,186.15Z"/><path class="cls-4" d="M134.43,129.89c-1.43-2.12-.89-6.11-5.22-5.44,1.47,6.76,2.58,13.59,1.91,20.51-.66,6.73-1.7,13.42-1.78,20.23C135.78,154.14,134.31,141.89,134.43,129.89Z"/><path class="cls-7" d="M90.7,46.36c14.12,1.25,14.18,1.18,10.74-12.32C97.56,18.78,88.44,8.3,79,8.21S60.93,18.42,57.5,34.49c-3.57,16.65-2.08,32.74,6.32,47.77,3.67,6.57,8.75,11.93,17,11.74s12.78-5.93,16.55-12.41a19.35,19.35,0,0,0,.85-1.78c3.07-6.63,7.06-14.3,4.69-20.7-2.94-7.94-12.13-1.81-18.26-3.76a14.18,14.18,0,0,0-3.93-.2c-3.51-.08-3-2.7-3.11-4.93s.71-3.84,3.28-3.86Z"/><path class="cls-6" d="M27.32,201.45c-9.9-8.07-13.65-18.24-10.46-30.77,3.23-5.18,4-10.27,3-16.7-2.32-14.06,9.63-27.32,25.23-29.7,20.22-3.08,37.55,13.92,32.35,32.33a31.74,31.74,0,0,0-.62,16.61c3.29,14.49-7.86,29.33-23.45,32.78C44,208.08,35.4,206.36,27.32,201.45ZM65.64,155c2,1.46,3.64,5.06,5.81,4s2-4.85,2.21-7.58a11.7,11.7,0,0,0,0-1.45c-.47-12.72-12-22.5-25.5-21.63-14.11.92-24.94,12.1-23.89,24.75.13,1.47-.11,3.23,1.72,4.37l5.6-4.43C43.21,148.77,54.64,148.29,65.64,155ZM21.55,184.75c3.52,13,17.71,20.44,31.71,16.67,13.64-3.68,21.89-17,18.34-29.71C68,158.8,53.72,151.54,39.68,155.45,26.07,159.25,18.12,172.1,21.55,184.75Z"/><path class="cls-7" d="M21.55,184.75c-3.43-12.65,4.52-25.5,18.13-29.3,14-3.91,28.31,3.35,31.92,16.26,3.55,12.68-4.7,26-18.34,29.71C39.26,205.19,25.07,197.73,21.55,184.75Zm19.54,2.84c.7,2.83,2.12,4.51,4.69,4.69,2.75.19,4.83-1.15,5.36-3.91a81.29,81.29,0,0,0,1.24-10.09c.17-2.84-1.48-4.61-4.25-5a4.52,4.52,0,0,0-5.5,3.63C41.83,180.51,41.55,184.23,41.09,187.59Z"/><path class="cls-7" d="M31.57,153.06,26,157.49c-1.83-1.14-1.59-2.9-1.72-4.37C23.2,140.47,34,129.29,48.14,128.37c13.49-.87,25,8.91,25.5,21.63a11.7,11.7,0,0,1,0,1.45c-.26,2.73,0,6.5-2.21,7.58s-3.85-2.53-5.81-4a4.34,4.34,0,0,0-1.45-3.48,94.41,94.41,0,0,0-17.06-11.85c-2.88-1.55-5.79-.21-7.72,2.31C36.66,145.6,34.17,149.37,31.57,153.06Z"/><path class="cls-3" d="M31.57,153.06c2.6-3.69,5.09-7.46,7.84-11,1.93-2.52,4.84-3.86,7.72-2.31a94.41,94.41,0,0,1,17.06,11.85A4.34,4.34,0,0,1,65.64,155C54.64,148.29,43.21,148.77,31.57,153.06Z"/><path class="cls-6" d="M41.09,160.59c.46-3.36.74-7.09,1.54-10.7a4.52,4.52,0,0,1,5.5-3.64c2.77.42,4.42,2.19,4.25,5a81.45,81.45,0,0,1-1.24,10.1c-.53,2.76-2.61,4.1-5.36,3.91C43.21,165.1,41.79,163.42,41.09,160.59Z"/></g></g></svg>