<svg xmlns="http://www.w3.org/2000/svg" viewBox="0 0 550.74 374.99"><defs><style>.cls-1{fill:#242f80;}.cls-2{fill:#1d1f4e;}.cls-3{fill:#fff;}.cls-4{fill:#cb74b4;}.cls-5{fill:#3baeaf;}.cls-6{fill:#1a96a0;}</style></defs><title>Fichier 2</title><g id="Calque_2" data-name="Calque 2"><g id="Calque_1-2" data-name="Calque 1"><path class="cls-1" d="M212.13,176.28c-1.49,2.63-2,6.3-2.44,9.59a20,20,0,0,1,3-1.29c1.83-.6,4.12.58,4.28,2.53l.4-.18a2.83,2.83,0,0,1,1.16-.25A27.6,27.6,0,0,0,212.13,176.28Z"/><path class="cls-1" d="M218.69,197.46q.08.85.12,1.71c.3-.32.61-.63.93-.94a31.84,31.84,0,0,0,.16-3.22C219.53,195.84,219.12,196.66,218.69,197.46Z"/><path class="cls-2" d="M195.06,235.7c-2,.9-5.21-.67-4.8-3.34a35.45,35.45,0,0,1,1.21-5.39,2.67,2.67,0,0,1-1.62-3.17c.64-3.28,1.2-6.58,1.72-9.87a37.72,37.72,0,0,1,.38-4.13c-3.39-4.42-4.39-9.55-4.22-14.8a3.41,3.41,0,0,1-.33-2.58c.74-2.89.95-5.87,2-8.68s5.11-2.39,6.13-.19a41,41,0,0,1,5.19-10.12c.41-2.48.72-5,1-7.47.51-4.18.94-9.24,3-13.21a15.22,15.22,0,0,0-17.36,4.31c-1.85,1.87-2.89,4.29-4.26,6.47-6.42,10.25-9.37,21.87-12.9,33.24-5.26,16.94-8.33,34.34-10.58,51.89a17.82,17.82,0,0,1-3.41,8.79,168.41,168.41,0,0,0-19.67,33.34C130.72,303.71,126,317.1,121,330.38c-.91,2.42-1.88,5.18-5,5.49a51.73,51.73,0,0,1-9.87.24c-4.16-.37-8.11-.32-11.88,1.78-5.15,2.88-10.38,5.6-15.55,8.44-2.75,1.51-2.81,2.66-.43,4.65a4.18,4.18,0,0,0,2.81,1c4.15,0,8.06-.61,11.7-2.92,5.95-3.77,12.11-4.68,18.58-.86a34.16,34.16,0,0,0,8.17,3.37c9.93,2.76,16.34-1.22,18.52-11.26a32.4,32.4,0,0,1,2.9-8.7,244.39,244.39,0,0,1,24.29-37.29c5.07-6.3,9.72-12.77,12.95-20.3,2.77-6.47,4.63-13.28,8.05-19.51s7.21-12.3,10.55-18.6A2.82,2.82,0,0,1,195.06,235.7Z"/><path class="cls-2" d="M311.26,73.4c11.07,24.34,22.15,48.71,31.4,73.8,4.31,11.72,8.27,23.67,14.56,34.46,12.81,22,34.13,37.29,53.44,53.81s38.45,37.47,39.88,63c.3,5.34-.54,11.37-4.77,14.63-4.54,3.48-10.92,2.38-16.6,3.07s-12.07,6-9.48,11.08c1.26,2.5,4.15,3.62,6.79,4.53,6.77,2.35,14,4.72,21,2.88,12.64-3.36,18.41-18.92,30.51-23.89,5.44-2.23,12-2.22,16.4-6.07,3.8-3.28,5.11-8.76,4.49-13.73s-2.92-9.58-5.34-14c-7.08-12.81-15.62-24.75-24.13-36.66-10.82-15.13-21.73-30.37-35.24-43.16-7.67-7.26-16.17-13.71-23-21.79s-11.72-17.59-16.82-26.86c-9.63-17.53-20.28-34.75-34.42-48.91-8.1-8.12-19.89-15.56-30.4-11-4.94,2.16-8.78,7.86-7,12.93"/><path class="cls-3" d="M169.3,216.68c5.77,9.49.83,19.54-5.39,26.7s-14,14.16-13.95,24c.07,9.31,7.66,19.06,17.27,24.72s20.84,7.7,31.27,7.64,21.49-3.2,23.35-11.91c1.05-4.88-1.14-10.35-2.18-15.6-.76-3.83-.92-7.69-2.38-11.48a44.54,44.54,0,0,0-5.33-9c-5.27-7.52-10.6-15.1-17.35-21.75s-15.15-12.37-24.31-14.81"/><path class="cls-3" d="M178.18,294.59a9.91,9.91,0,0,0-10.81-.2,8.57,8.57,0,0,0-3.17,9.72c1.6,4.71,6.74,7.55,11.64,9.1a47,47,0,0,0,31-.87,5.19,5.19,0,0,0,4.1-5.8c.15-4.05-.47-8.91-4.2-11.06-4.75-2.73-10.44,1.08-15.83.37-2.2-.28-4.27-1.32-6.47-1.61-4.51-.58-9.07,2.08-13.38.51"/><g id="NTNmSB"><path class="cls-1" d="M498.46,361.94c1.18.83,1.46,1.6.11,2.65-3.07,2.38-6.92,1.23-8.54-2.63Z"/><path class="cls-1" d="M211.24,247.68c-8.7-3.17-12.8-2.06-18.77,5.09-.74.9-1.46,1.82-2.25,2.68-6.26,6.86-12.06,6.65-17.68-.64-4.79-6.22-5.54-6.41-12.61-3.43-1.91.81-3.77,1.55-5.92.3s-.94,1.1-1.47,1.63c-.7-3.49-3.37-6.33-3.13-10.18.26-4.19,2-6.6,6-7.3.92-.16,2.05.15,1.68-1.26-1.1-4.23-1.36-8.67-3.17-13.12-2.55,2.58-3.76,5.67-5,8.46-5.12,11-12.29,20.78-18.59,31.06-4.25,6.92-6.74,14.61-10.25,21.84-4.09,8.43-9.75,15.56-15.88,22.48a279.32,279.32,0,0,0-29.74,41.27,37.32,37.32,0,0,0-3.79,9.77c-3,11.35-10.56,15.55-21.74,11.86a39.18,39.18,0,0,1-9.15-4.28c-7.19-4.72-14.26-4-21.26,0-4.29,2.44-8.78,2.93-13.52,2.7a4.73,4.73,0,0,1-3.15-1.3c-2.61-2.4-2.48-3.7.74-5.28,6-3,12.17-5.79,18.2-8.8,4.42-2.19,8.93-2,13.67-1.39a59,59,0,0,0,11.28.26c3.56-.19,4.81-3.29,6-6,6.43-14.9,12.58-29.92,20-44.37a192.47,192.47,0,0,1,24.25-37,20.31,20.31,0,0,0,4.37-9.85c3.51-19.92,8-39.61,14.87-58.67,4.65-12.8,8.64-25.91,16.52-37.26,1.68-2.43,3-5.13,5.22-7.16,7-7.13,17.61-7.61,24.79-.7,10.53,10.14,12.7,22.48,8.5,36.16a163.84,163.84,0,0,1-11.95,29.1c2.8-2.47,5.29-5.25,8.06-7.73,7.39-6.61,15.73-10.95,26-10.5a20.32,20.32,0,0,1,11.12,4.22c1.23.88,2.56,1.89,2.31,3.76-5.82,3.14-8.2,8.74-10.46,14.46a2.85,2.85,0,0,0,.62,3.51c2.69,2.63,3.91,6.07,4.95,9.56.34,1.13.25,2.34,2.08,2,3.69-.71,5.48,1.67,6.63,4.58A22.35,22.35,0,0,1,211.24,247.68Z"/></g><path class="cls-1" d="M217.72,36.59a212.76,212.76,0,0,0-45.65,61.1c-1.8,3.64-3.32,8.53-.37,11.32,2.15,2,5.51,1.74,8.47,1.79,11.38.22,21.22,7.53,30.34,14.33,6.94,5.17,14.25,10.36,22.74,12a6.28,6.28,0,0,0,4.2-.24c2.37-1.29,2.42-4.59,2.4-7.28-.12-17.66,11.46-34.83,27.88-41.32a281.19,281.19,0,0,0-45.41-51.4c-2.2-2-6.83-3-7.06-.11"/><path class="cls-4" d="M235.75,139.86c-5.19,3.2-5.87,10.66-4.09,16.5s5.37,11,6.8,17c2,8.47-.72,17.73-6.34,24.39s-13.84,10.83-22.4,12.48a8,8,0,0,1-4.93-.18c-1.86-.88-2.83-2.89-4.11-4.49-5.56-7-16.86-5.8-24.39-1s-13.09,12.2-20.52,17.14l-6.35-4.11c6.51-8,12.31-16.87,14.66-26.9s.75-21.4-6.1-29.1-19.47-10.37-27.88-4.42l33.64-55c1.1-1.78,2.4-3.73,4.45-4.18a7.84,7.84,0,0,1,4.61.88c23,9.51,46.85,19.58,63.52,38.09"/><path class="cls-5" d="M280,81a161.65,161.65,0,0,0,23.63,61.89c3.82,5.94,8.5,12,15.24,14.08,6.18,1.92,12.84.17,19.07-1.59l28-7.9a6.06,6.06,0,0,0,3.47-1.9c1.12-1.57.5-3.74-.18-5.54A201.12,201.12,0,0,0,350,102.2c-8-12.42-18-24.4-31.71-30.06s-31.67-3.06-39.94,9.21"/><path class="cls-1" d="M228.36,31.59c12.24-18.72,32.4-21.43,54.75-20.69S326.76,22.33,343,37.7c13.67,12.92,24,28.9,34.35,44.61A2530.23,2530.23,0,0,0,547,310.43a15.44,15.44,0,0,1,3.44,5.59c1.35,5-2.52,9.87-6.77,12.76s-9.31,4.91-12.43,9c-7.14,9.32-1.18,24.92-9.53,33.17-7,6.86-18.52,3.66-27.59,0-2.65-1.06-5.63-2.49-6.34-5.26-.87-3.44,2.42-6.58,5.76-7.81s7.09-1.5,10-3.58c3.89-2.82,5-8.1,5.22-12.9,1.37-30.18-20.13-56-40.34-78.44q-57.51-63.86-115-127.72c-17.56-19.48-36.57-39.9-61.91-46.66a51.09,51.09,0,0,0-22.79-1.23c-5.23,1-10.24,3.05-15.5,3.9a35.51,35.51,0,0,1-33.9-14.38,35.48,35.48,0,0,1-1.88-36.78c1.9-3.41,3.92-6.94,7.83-7"/><path class="cls-6" d="M211.21,39.52A127,127,0,0,1,263,93c6.71-.33,13.16,2.42,19.22,5.32a297.36,297.36,0,0,1,77.18,53.33c1.94,1.84,4,3.82,6.69,4.17a12.35,12.35,0,0,0,5.88-1.14q25.57-9.5,50.38-20.94c-6.47-10.11-15-18.68-22.48-28.09-12.31-15.55-21.52-33.27-32.17-50s-23.15-32.9-40-43.28C309.86,1.46,288-2.23,267.37,1.29s-39.75,14.07-54.48,28.88c-2.46,2.48-4.76,6.81-2,9"/></g></g></svg>