<svg xmlns="http://www.w3.org/2000/svg" viewBox="0 0 735.79 401.64"><defs><style>.cls-1{fill:#aed2dd;}.cls-2{fill:#2d315c;}.cls-3{fill:#272f80;}.cls-4{fill:#fff;}.cls-5{fill:#1896a0;}.cls-6{fill:#f87339;}.cls-7{fill:#cb74b7;}.cls-8{fill:#593267;}</style></defs><title>Fichier 1</title><g id="Calque_2" data-name="Calque 2"><g id="Calque_1-2" data-name="Calque 1"><path class="cls-1" d="M504.5,95.36c-9.72,13.51-21,25-33.66,36.34a23.54,23.54,0,0,1-5.19,3.81,20,20,0,0,1-9.5,1.63,107.8,107.8,0,0,1-18.38-2.2,245.25,245.25,0,0,0-25.83-3.56l-34-3.46a5.27,5.27,0,0,0-2.06.06,5,5,0,0,0-1.63,1l-5.42,4.56c5.87,2.8,11.78,5.61,18.11,7.39,6.72,1.88,13.76,2.56,20.71,3.49a210.08,210.08,0,0,1,32.55,6.74c4.65,1.39,9.44,3,14.29,2.41,6.71-.81,35.58-16.89,44.26-21.49,6.81-3.62,12.77-8.4,18.69-13.15a2.72,2.72,0,0,0,1-1.16,2.44,2.44,0,0,0-.11-1.33L513.14,98c-.52-1.83-1.12-3.79-2.73-5s-4.54-1-5.21.8"/><path class="cls-1" d="M563.43,176.26,582.12,243c3.28,11.71,6.71,23.72,14.34,33.61,5.84,7.55,13.82,13.45,21,19.95,24.31,21.94,40,51.06,65.62,71.74a20.15,20.15,0,0,1,6.52-3.25C681,342,672.21,318.51,656.29,299c-4.86-6-10.32-11.49-15.12-17.49a214,214,0,0,1-13.85-20.31C614.55,240.76,601.61,220,596.11,197c-5.56-1.32-12.89-2-15.7,2.56a10.72,10.72,0,0,0-1.19,5.38,200,200,0,0,0,.88,28.54"/><path class="cls-1" d="M522.27,290.75c-2.42-18.13-11.3-35-21.57-50.69s-16.5-27.47-25.65-43.71c4-.65,1.9-.73,5.1,1.57,5.21,3.74,11.44,6.08,17.63,8.24q19,6.59,38.57,11.47a171.27,171.27,0,0,1-1.08-40.78c-22-5.09-44.87-6.32-67.55-7.54-3.58-.19-7.46-.3-10.38,1.59-3.49,2.27-4.38,6.65-4.33,10.56.17,11,3.2,20.36,8.45,30.32l11.67,22.16c9.46,17.95,22.54,39.28,36.42,54.66,3,3.33,4.19,9.18,8.54,7.49.67-.26,4.15-4.54,3.72-4"/><path class="cls-1" d="M470.17,51.12c2.39,6,4.81,12.07,9.07,17.3a17.56,17.56,0,0,0,14.61,6.88c10.75-.15,20,3.06,27.43,10.34a57.55,57.55,0,0,0,4.82,3.88c4.24,3.34,9.16,4.32,14.6,3.5A28.63,28.63,0,0,1,533,106.15c-5,4.73-11.2,6.35-17.9,4s-9.86-7.47-10.69-13.89c-.21-1.68.75-3.56-.86-5-4.63-4.74-10.42-6.22-17.13-5.09-1.11.18-2.17.54-3.27.72-6.69,1.15-13-2.32-15.15-8.23-.39-1.08-.2-1.44,1-1.72a33.13,33.13,0,0,0,4.57-1.53c.65-.24,1.36-.66,1.2-1.44-.13-.58-.77-.82-1.38-1A15.49,15.49,0,0,0,471,72.5c-2.4-.1-4.66.53-5.84-2.77-.59-1.64-4.12-2.4-6.34-3.56.17-.25.23-.45.37-.51,4.3-2.08,8-4.4,8.33-9.57C467.61,54.4,469.24,52.78,470.17,51.12Z"/><path class="cls-1" d="M503.55,90.18l13.64,25.31a16.8,16.8,0,0,0,3.2,4.61c2.64,2.41,6.55,3.12,10.23,3.72a2.91,2.91,0,0,0,1.58,0,2.34,2.34,0,0,0,1-1.15c3.93-7.27,4.22-15.68,4.43-23.79.05-1.93.06-4-1.06-5.62-1.65-2.39-5.09-3-8.16-3.47l-11.57-1.63c-4.87-.69-10.34-1.25-14.3,1.42"/><path class="cls-2" d="M297.91,88.54l-3.56,9.81,13,6.23a61.9,61.9,0,0,1,9.4,5.2c2.71,2,5.08,4.34,7.83,6.24a74.72,74.72,0,0,0,8.6,4.73c4.9,2.5,9.59,5.38,14.42,8,6.8,3.72,13.87,6.94,20.93,10.16a20,20,0,0,1,4.6-5.5,9.73,9.73,0,0,0-3.62-2.72c-4.5-2.51-8.37-6-12.43-9.17a228.65,228.65,0,0,0-19.48-13.26c-3.92-2.47-7.84-5-11.91-7.17-4.9-2.68-10-5-15.08-7.28l-11.88-5.37"/><path class="cls-3" d="M205.2,166q27.62,44.47,55.69,88.73c28.19-14.26,47.75-41.61,78.87-49.66L348.57,219c.82,1.3,1.67,2.72,1.46,4.21a6.68,6.68,0,0,1-2,3.29c-22.94,24.88-56,40.27-88.13,55-3.16,1.45-6.59,2.95-10.1,2.47a17.53,17.53,0,0,1-6.86-3,278.22,278.22,0,0,1-74.7-68.63,11.25,11.25,0,0,1-2.57-5.12c-.4-3.48-1.19-29.87,1.55-32.37,11.42-10.47,26.57,2.47,38-8"/><path class="cls-3" d="M191.59,163.12c3.51,12.31,7.23,32.07,1.64,43.54-3.35,6.86,26,3.31,20,7.8-4.57,3.39-27.91,12.88-33.16,15-7.19,2.87-21.42,5.51-28.88,7.49-5.84,1.56-15.86,3.93-21.39,6.42-7,3.12-12.3,4.36-19.25,7.49-2.5,1.12-6.14,4-7.49,6.41a31.72,31.72,0,0,0-2.54,8.2c-1.74,18.54-28.46,90-36.29,102,0-4.5-9-3.3-11.24-7.19a7.29,7.29,0,0,1-.56-4.07,169,169,0,0,1,3.09-21.59q8.24-43.21,20-85.58c1.51-5.41,3.09-10.9,6.09-15.6C87,225,96.06,220.19,104.22,214.71c23.72-15.92,42-39.93,67.15-53.26,4.14-2.19-.05-5.5,4.55-4.75s9.84,2.78,9,7.49"/><path class="cls-2" d="M152.83,12.46C149,3.46,137.8.28,128,0s-20.24,1.66-27,8.65c-5.86,6.05-7.92,14.79-12.53,21.85-4.29,6.58-10.8,11.69-14,18.85,3,1.36,7.39-.25,9,2.54s-1.54,5.48-3.78,7.59A18.63,18.63,0,0,0,74.41,77,85.68,85.68,0,0,1,94.69,65.89c1.53-.58,3.59-1,4.5.39a3.17,3.17,0,0,1,.07,2.79C96.07,78.21,81,79.2,78.94,88.66a3.45,3.45,0,0,0,.67,3.3,3.62,3.62,0,0,0,2.17.74c11.33.9,18.85-13,30.11-14.53,1.55,3.8,7.34,3,10.59.47s6.25-6.14,10.36-6.14c1.71,0,3.4.68,5.09.41,3.64-.58,5.15-4.88,6-8.47"/><path class="cls-1" d="M149.74,55.85l-3.26,1.8A98.94,98.94,0,0,0,136.15,68.3c-1.53,1.78-2.89,1.79-4.84.84-4.29-2.07-8.67-3.94-13-5.89.69-5.07,2.62-9.82,3.79-14.77,4.08-3.21,5.23-6.92,3.43-11.61-1.06-2.78-1.41-5.44.43-8a2.53,2.53,0,0,1,2.65-1.22,2.22,2.22,0,0,1,1.79,1.93,6,6,0,0,1,.22,2.21c-.27,1.39.33,1.66,1.51,1.52a9,9,0,0,1,2.52-.12c2.24.4,2.72-.82,2.84-2.67a24.66,24.66,0,0,1,.66-4.44c1.16-4.6,3.6-6.46,8.34-6.37a4.17,4.17,0,0,0,4-2.12c.48-.79.77-1.72,1.63-2.24a20.58,20.58,0,0,1,3.08,8.93c.28,3.29,1.48,4.06,4.83,3.95,1.25-.05,2.86-.63,3.44,1,.65,1.83-.89,2.67-2.16,3.47-1.11.7-2.28,1.3-3.41,2-.56.32-1.47.55-1.44,1.22.11,2.18-1.28,2.91-2.91,3.78-1.48.8-1.62,2.37.06,3,2,.72,1.71,1.94,1.28,3.31a21.17,21.17,0,0,1-3.77,7.49A4.75,4.75,0,0,0,149.74,55.85Z"/><path class="cls-1" d="M318.55,98.48c.39,1,.72,2,1.17,3,.58,1.28-.05,1.59-1.15,1.58-2.38,0-3.62-1.69-4.55-3.47a2.35,2.35,0,0,0-2.73-1.49c-3.3.3-5.67-1.4-7.39-4-1.31-2-3.59-1.82-5.41-2.67-.6-.28-.74.5-.91,1q-1,2.53-1.93,5.09c-2-.48-15.12-7-17.2-7,0-3.63,11.48-4.07,12.84-8.56,5,1.92,11.81,4.33,16.91,6.1C313.45,89.76,316.45,93.64,318.55,98.48Z"/><path class="cls-1" d="M296.2,100.22,300,97.35c1.85-1.38,3.14-1.09,4,1,.21.5.21.75,1,.66,1.77-.21,2.28.31,2.79,2.39,1.77-.8,3.31-.81,3.9,1.47.13.48.29.5.77.45,2.8-.31,3.62.77,2.75,3.51-1.22,1-2.43,2-3.65,3-1.79,1.43-2.94,1.24-4.09-.73-.29-.49-.5-.86-1.13-.63l-.36.11c-1.89.41-2-2.24-3.3-2.16-1.7.11-2.88,0-3.09-1.93,0-.36-.18-.48-.6-.5C295.79,103.77,295.26,103,296.2,100.22Z"/><path class="cls-1" d="M355.67,123.21c-.74.31-1.46.65-2.21.91-1,.34-.83.84-.26,1.43,1.23,1.27,2.77,1.08,4.21.67a1.76,1.76,0,0,1,2.21.71c1.54,1.94,3.68,2.34,6,1.93,1.75-.32,2.83,1,4.22,1.54.46.18.12.65,0,1L368,135c1.27.81,17.35,4.54,18.46,5.62,1.95-1.88-9.52-8.24-7.79-11.28-3.63-1.74-8.41-4.15-12-6S359.37,121.86,355.67,123.21Z"/><path class="cls-1" d="M364.62,140.05c.27-1.14.55-2.28.81-3.42.39-1.68-.21-2.47-1.87-2.43-.41,0-.57.09-.74-.45-.39-1.27-.91-1.46-2.47-1.17,0-1.45-.46-2.51-2.19-2.22-.37.07-.43,0-.54-.38-.64-2-1.63-2.23-3.23-.8-.31,1.13-.62,2.25-.92,3.39-.43,1.65,0,2.37,1.74,2.56.42,0,.74.08.77.58,0,.09,0,.18,0,.28.29,1.41,2.12.65,2.47,1.59.44,1.19.84,2,2.25,1.51.26-.08.39,0,.53.26C362.33,141.42,363,141.55,364.62,140.05Z"/><path class="cls-4" d="M478.86,199.41c.05-.15.09-.29.13-.44.35.28.13.38-.18.46Z"/><path class="cls-4" d="M711.11,184.41c-.2-.18-.38-.39-.05-.6.05,0,.25.18.38.27Z"/><path class="cls-1" d="M205.79,62.19c-10.87-.79-21.88-.54-32.55-2.78-4.43-.93-9-2.43-12.25-5.48a28.88,28.88,0,0,1-5.24,1c.35,2.64.69,5.29.9,8,.07.84.13,1.68.17,2.51,4.11,4.37,8,8.94,11.68,13.4a123.52,123.52,0,0,1,11.88,16.85c4.85-5.15,9.69-10.19,16.4-11.78,4.58-1.08,9.38-.33,14,.42l63.36,5.06c5.39.87,10,5.36,15,3.21,4.35-1.87,4.49-5,5.35-9.63C268.27,74.36,233.3,64.18,205.79,62.19Z"/><path class="cls-1" d="M119.33,85.7c-.45-.91-.89-1.82-1.33-2.73-.69-.85-1.24-1.56-1.62-2.11-.67-.45-1.34-.92-2-1.41-.15.24-.28.5-.44.73-2.62,3.77-7,5.92-9.95,9.47C100.41,94,99.5,100,98.55,105.57A277.32,277.32,0,0,1,87,150.6a9.78,9.78,0,0,1-2.73,4.27,39,39,0,0,1,4.32,18.53L22.77,123.6c14.38,20,35.24,34.24,55.65,48.05,6.11,4.13,14.53,4.31,20.24-1.17s8.64-15.52,11.45-22.75c4.06-10.45,6.58-21.58,9.22-32.45a10.43,10.43,0,0,1,3.94-6.15,15.27,15.27,0,0,1,4-4.65,14.54,14.54,0,0,1,2-1.23A147.65,147.65,0,0,1,119.33,85.7Z"/><path class="cls-1" d="M20.25,106.77A37,37,0,0,0,1.43,91.54c-1.78,2.15-1.76,5.35-.7,7.92a23.34,23.34,0,0,0,4.92,6.7c19.27,20.52,38.74,41.21,61.91,57.18,7.57,5.22,15.9,10,25.07,10.59,1.63-5-.28-10.61-3.57-14.7s-7.81-7-12.21-9.88q-18.22-11.94-35.58-25.13c-4-3-8.07-6.31-9.82-11C30,109.49,29.06,104,25,104.08l2,8.38C23.9,112.69,21.88,109.42,20.25,106.77Z"/><path class="cls-5" d="M67.49,382.82a3.89,3.89,0,0,1,0,1.52c-.54,1.92-3,2.1-4.87,2.19-4.84.25-9.49,3.12-14.33,4.09a29.33,29.33,0,0,1-9.58,0,76.85,76.85,0,0,1-23.59-7c.12-1.37,1.86-1.9,3.15-1.95,5.76-.2,11.46.8,17.23-.27s12-5,13.62-11c2.73,1.44,5.57,2.91,8.76,3s4.44-1.59,5.85-4.79C64.16,373.35,67,378.05,67.49,382.82Z"/><path class="cls-4" d="M15.24,387.44c-1.5-1.32-2.88-3.91-1.21-5.41,9.12,6.92,21.45,7.82,33.18,8.51a31.77,31.77,0,0,0,7.09-.12c4.57-.75,9-3.43,13.55-3.66-.27,3.68.93,8-1.82,10.61a8,8,0,0,1-4,1.71C45.08,402.71,27.55,398.36,15.24,387.44Z"/><path class="cls-5" d="M366.15,200a6,6,0,0,1,1.84-.11c2.38.35,2.89,2.8,3.23,4.63.89,4.79,4.92,9.13,6.67,13.84a24.6,24.6,0,0,1,1.18,9.54,65.26,65.26,0,0,1-5.54,24.18c-1.66,0-2.52-1.66-2.73-3-.95-5.71-.44-11.48-2.43-17.11s-7.47-11.4-14.92-12.44c1.4-2.86,2.83-5.84,2.52-9s-2.46-4.26-6.48-5.35C355.16,204.28,360.47,201,366.15,200Z"/><path class="cls-4" d="M378.1,251.53c-1.42,1.62-4.36,3.26-6.37,1.75,7.21-9.77,6.79-22.13,6.19-33.87a26.27,26.27,0,0,0-1-7c-1.46-4.47-5.23-8.59-6.06-13.11,4.46-.11,9.55-1.74,13,.74a7.8,7.8,0,0,1,2.55,3.75A46.16,46.16,0,0,1,378.1,251.53Z"/><path class="cls-1" d="M125.06,59.65c2,3,.11,7.16-2.47,9.73s-5.89,4.63-7.26,8c-2.47,6,2.47,12.43,7.46,16.62a95.42,95.42,0,0,0,23.26,14.45c5.33,2.33,11.82,4.08,16.71.92,4-2.56,5.53-7.54,6.38-12.18a77.06,77.06,0,0,0,.14-27.05c-1.08-6.29-3.78-13.33-9.86-15.25-7.53-2.36-14.89,4.58-22.78,4.87-2.82.1-5.65-.67-8.45-.32s-5.78,2.41-5.66,5.23"/><path class="cls-6" d="M189.41,133.65c-1-9.05,1.52-18.73-1-27.26-2.55-8.68-9.54-13.76-13.89-21.18C170,77.46,167.46,74,166.14,64.4c-.46-3.35-1-6.89-2.84-9.34s-5.46-3.06-7.12-.32c6.76,14.2,9.62,25.68,5.89,41.83-1.55,6.71-5.43,14.23-10.9,13.59-2.37-.28-4.4-2.1-6.31-3.87L128.32,91c-4.81-4.45-10.15-10.31-9.51-17.88l-.28,2.3c.09,2-2.3,2.17-3.62,3.29-2.47,2.09-.71,6.72.36,10.14,3.59,11.42-3.87,25.27-.07,36.58,1.64,4.87,5.1,8.29,7.59,12.53,5.36,9.15,5.92,21.51,10,31.65,1.79,4.41,4.24,8.36,5.81,12.91,0,.08.05.17.08.25,1.76,6,8.07,8.52,10.31,8.16,7.5-1.21,8.56,3.21,16.76-4.32,3-1.78,6.48-2.24,9.77-3.1,7.41-1.95,14.36-6.13,21.21-10.27,1.42-.86,6.48,2.5,6.81.58.15-.88,3.38-4.49,3.21-5.35C204.52,156.86,190.67,145.53,189.41,133.65Z"/><path class="cls-1" d="M601.56,188.83A129.81,129.81,0,0,0,589,140.05c-1.18-2.45-3.18-5.27-6.08-5-2.13.22-3.51,2-4.92,3.51-5.38,5.64-14,7.51-22,9.23-6.06,1.31-12.31,2.81-17.17,6.37A4.21,4.21,0,0,0,537,156.4c-.38,1.74,1.41,3.16,2.91,4.29,9.81,7.39,13.92,20.47,9.91,31.48A222.29,222.29,0,0,0,599.24,191c2.1-.29,4.84-2.16,3.33-3.52"/><path class="cls-7" d="M590.38,134,575.57,93.82c-.61,6.74-7.93,12-15.35,12.17s-14.43-3.8-18.88-9.21S534.66,84.69,533.27,78l-5.21,1.46c-.5,4.08.09,8.22.21,12.32a9.13,9.13,0,0,1-.3,5.55,15.8,15.8,0,0,1-3.53,7.55,26.38,26.38,0,0,1-4.05,8.39c-2.61,3.68-6.45,6.63-8.88,10.39-1.38,2.12,0,6.33,2,9.71,1.53,2.56,3.83,4.63,6,6.77.85.55,1.72,1.1,2.61,1.69a32.36,32.36,0,0,1,3,2.26,32.68,32.68,0,0,1,3.76,1.16c4,1.57,7.85,5.06,7.22,9l1.39,1.55c17.93-.58,34.52-8.33,50.43-15.91a5.66,5.66,0,0,0,2.62-1.94C591.33,136.78,590.86,135.3,590.38,134Z"/><path class="cls-7" d="M511.56,124.52c2.19-9.44-2.22-19-6.32-27.87a4.09,4.09,0,0,1-.54-2.94c.33-1,1.83-1.6,2.59-.86a2.11,2.11,0,0,1,.47.87c3.54,10.06,9.57,19.22,15.55,28.27a20.4,20.4,0,0,0-10.41,2"/><path class="cls-7" d="M505.2,94.62a75,75,0,0,0,7.25,13.58c1.64,2.39,3.32,4.83,6.53,4.58,3.41-.26,5.16-3,6.61-5.76a74.39,74.39,0,0,0,6-14.71l-3-.4a25,25,0,0,1-2.16,10.92c-1.32,2.94-4.88,9.53-8.82,9.31-1.93-.1-1.92,2.9,0,3,3,.16,5.26-3.31,2.1-5.12-3-1.69-5.42,1.71-3.63,4.26a1.52,1.52,0,0,0,1.3.74c10-1.14,14.33-14.55,14.21-23.11a1.5,1.5,0,0,0-2.94-.39,61.4,61.4,0,0,1-3.1,8.51c-.58,1.32-1.21,2.62-1.85,3.92-1.33,2.73-1,2.85-4.61,3.52s-3,.89-4.58-1.48c-.77-1.17-1.52-2.35-2.22-3.56a74,74,0,0,1-4.26-8.61c-.73-1.75-3.64-1-2.89.8Z"/><path class="cls-5" d="M599.9,185.18c-6.73-.13-13.3-1.78-19.83-3.26a414.69,414.69,0,0,0-56-8.69c-3.68-.32-7.48-.61-10.78-2.14-1,7.57-2,15.18-1.59,22.79.47,7.79,3,16.17,9.86,20.77,4.12,2.74,9.26,3.78,14.24,4.76l31,6.06c-1.41,2.61-.12,5.71,1.2,8.36,5.91,11.83,5.57,12.74,12.91,23.87a7.58,7.58,0,0,0,3.21,3.18,8.49,8.49,0,0,0,4.17.24c7.11-.78,14.25-2,20.8-4.6s12.54-6.85,16-12.56c-5.87-9.92-4.76-9.23-10.63-19.15-4.05-6.85-8.14-13.77-10.51-21.25a50.38,50.38,0,0,1-2.35-17.26"/><path class="cls-6" d="M534.23,319.08c.86-5.18-2.24-9-5.51-12.81-1.92-1.08-2.9.22-4,1.25-3.64,3.4-8.14,2.72-10.37-1.61-.81-1.57-1.28-3.32-3.46-3.9-2.68-1.3-3.43.77-4.32,2.13-1.09,1.67.65,2.07,1.89,2.49,2.5.83,1.76,1.84.34,3-6,4.94-13.35,6.2-21.19,6.1-.8,0-1.59-.19-2.38-.18-1.77,0-3.93-.61-5,1.08s-.4,3.34.88,4.8c6.22.87,12.48.58,18.7.26,10-.51,19.95-.85,29.9-1.65C531.27,319.93,532.91,320.12,534.23,319.08Z"/><path class="cls-4" d="M534.23,319.08c-19.5.4-34.93,1.93-46.46,1.84-2.21,0-4.54-.57-6.67.52,1.43,2.28,3.6,3,6.52,3,13.53-.09,27.07,0,40.6,0C533.74,324.41,534.16,324,534.23,319.08Z"/><path class="cls-5" d="M514.81,296.06a30.08,30.08,0,0,0,14.43-1.75c1.79-.67,1-3.57-.79-2.89a28.31,28.31,0,0,1-13.64,1.64c-1.91-.23-1.89,2.78,0,3Z"/><path class="cls-5" d="M515,299.8a27.64,27.64,0,0,0,14.36,0,1.5,1.5,0,0,0-.79-2.89,24.58,24.58,0,0,1-12.77,0,1.5,1.5,0,0,0-.8,2.89Z"/><path class="cls-6" d="M700.57,396.27c.88-5.18-2.29-9-5.63-12.81-2-1.08-3,.22-4.09,1.25-3.71,3.4-8.31,2.72-10.59-1.61-.82-1.57-1.3-3.32-3.53-3.9-2.74-1.3-3.5.77-4.42,2.13-1.11,1.67.67,2.07,1.93,2.48,2.56.84,1.8,1.85.35,3-6.13,4.94-13.63,6.2-21.64,6.1-.81,0-1.62-.19-2.43-.18-1.8,0-4-.61-5.11,1.08s-.41,3.33.9,4.79c6.35.88,12.74.59,19.09.27,10.18-.51,20.38-.85,30.54-1.65C697.55,397.12,699.22,397.31,700.57,396.27Z"/><path class="cls-4" d="M700.57,396.27c-15.83.32-31.59,2-47.45,1.84-2.26,0-4.64-.58-6.81.52,1.46,2.27,3.68,3,6.66,3,13.82-.09,23.64,0,37.46,0C696.06,401.6,700.49,401.23,700.57,396.27Z"/><path class="cls-5" d="M681.15,373.25a30.08,30.08,0,0,0,14.43-1.75c1.79-.67,1-3.58-.8-2.89a28.25,28.25,0,0,1-13.63,1.64c-1.91-.23-1.9,2.77,0,3Z"/><path class="cls-5" d="M681.35,377a27.64,27.64,0,0,0,14.36,0,1.5,1.5,0,0,0-.79-2.89,24.48,24.48,0,0,1-12.77-.05,1.51,1.51,0,0,0-.8,2.9Z"/><path class="cls-1" d="M533.37,94.43c4.42,7.3,13.13,11.68,22,13.75s18.09,2.2,27.16,3.19c40.62,4.43,64.17,14.18,100.76,30.87,4.65,2.12,19.78,12.12,23.2,11.39s6.26-4.35,4.57-7.16a8.19,8.19,0,0,0-1.57-1.71C667.55,107.34,606.93,94.54,549.58,83.3c-4.28-.84-9-1.63-12.84.27s-5.31,7.74-1.52,9.74"/><path class="cls-8" d="M629,93.29c-5.66,4.23-5.83,4.42-11.67.22-4.76-3.41-9.61-3.59-14.93-1.78-3.82,1.3-7.52,3-11.58,3.56-5.55.82-10.64-.82-15.12-3.48-9.13-5.41-18.26-5.62-27.83-1.21A69.64,69.64,0,0,1,540.7,93c-5.44.82-10.36-.16-14.6-3.5a57.55,57.55,0,0,1-4.82-3.88c-7.43-7.28-16.68-10.49-27.43-10.34a17.56,17.56,0,0,1-14.61-6.88c-4.26-5.23-6.68-11.26-9.07-17.3-1.13-4.19-1-4.51,3.43-6.6,12-5.71,23.75-4,33.36,4.71,3.1,2.83,5.83,6,10.08,7.61a14.66,14.66,0,0,0,11.59-.3c10.54-4.85,20.31-3.62,29.59,2.72,8.34,5.69,17.49,6.13,27.11,3.35a105.86,105.86,0,0,1,10.3-2.67,16.87,16.87,0,0,1,13.57,2.81c3.2,2.32,6.32,4.73,9.47,7.11,5,3.79,10.33,4.53,16.14,1.5a21.31,21.31,0,0,1,9-2.51,8.41,8.41,0,0,1,7,2.69c1.4,1.54,1.66,2.44-.25,3.94C643.72,80.91,637,86.54,630.26,92.1,629.8,92.47,629.4,92.89,629,93.29Z"/><path class="cls-1" d="M692.35,147c7.17,2.1,11.68,9,15.32,15.43A14.31,14.31,0,0,0,709,156.7a46.43,46.43,0,0,0,26.79,13.88,21.21,21.21,0,0,0-3.83-5.51c-7-8-14-16.12-22.83-22.12-3.31-2.26-7.46-4.27-11.21-2.83-2.48.94-4.17,3.18-5.72,5.32"/></g></g></svg>