<svg xmlns="http://www.w3.org/2000/svg" viewBox="0 0 832.99 402.19"><defs><style>.cls-1{fill:#272f80;}.cls-2{fill:#1896a0;}.cls-3{fill:#558da8;}.cls-4{fill:#aed2dd;}.cls-5{fill:#593267;}.cls-6{fill:#fff;}.cls-7{fill:#f87339;}.cls-8{fill:#2d315c;}.cls-9{fill:#d6d6de;}.cls-10{fill:#7a81ae;}</style></defs><title>Fichier 11</title><g id="Calque_2" data-name="Calque 2"><g id="Calque_1-2" data-name="Calque 1"><path class="cls-1" d="M169.36,210.58c-17.08-12-30.12-27.71-41.88-44.65a342.72,342.72,0,0,1-17.94-29.38c-3,4.79-5.77,9.36-8.65,13.87-7.14,11.16-14.33,22.3-23,32.39-3.06,3.57-6.23,7.1-10.72,9a14.37,14.37,0,0,1-16.53-3.1,29.61,29.61,0,0,1-6.24-8.85c-8.87-19.12-17.63-38.28-26.64-57.32-1.3-2.76.68-2.85,1.88-3.82a194.83,194.83,0,0,0,20.1-10.26c2.22-1.13,3.18-.32,4.18,1.93,5.67,12.8,11.55,25.5,17.37,38.24.4.87.84,1.73,1.42,2.94,5.15-9.87,10.36-19.26,15-28.92a94.72,94.72,0,0,1,32.68-37.82c2.75-1.88,5.45-3.82,8.18-5.73,4.74,2.94,9.54,5.8,14.2,8.86,1.87,1.23,2.21.42,2.63-1.21,1-3.69,2.21-7.32,3-11.05.52-2.36,1.42-2.27,3.16-1.27,4.33,2.47,8.72,4.83,13.43,7.42-1-7.71-2-15-2.93-22.26l3.41-1.87c13.27-6.52,27.18-6.69,41.06-3.1,50,12.94,99.86,26.23,149.8,39.27,2.7.7,2.51,2.07,2.13,4-2.05,6.93-3.36,14.05-5,21.09-.1,2.49-1.33,2.89-3.65,2.41q-68.26-14.09-136.55-28.07c-2.4-.49-3-.18-2.31,2.48,6.69,27.52,13.23,55.08,19.81,82.63.2.85.29,1.73.43,2.6a13,13,0,0,0-1.89.75c-14.68,8.63-29.33,17.31-44,25.9C173.44,208.78,171.74,210.4,169.36,210.58Z"/><path class="cls-1" d="M723.7,170a61.56,61.56,0,0,1,1.11,17.55,8.19,8.19,0,0,0,1,4.73q35.79,64,71.54,128.05c2.21,4,2.22,4-1.4,6.81l-3.24,2.54c-1.77,1.37-3.58,2.68-5.29,4.13-5.43,4.58-11.4,8.5-16.53,13.45a43.54,43.54,0,0,0-7.7,5.85c-2,1.72-2.65,1.1-3.63-.95-8.3-17.32-16.71-34.59-25.07-51.88q-20.16-41.68-40.31-83.38c-.52-1.08-.81-2.24-2.58-2.32-15.11-.67-29.26-5.33-43.17-10.77A326,326,0,0,1,609,184.94c-.83-.46-1.57-1.64-2.81-.82.29-.09.51-.19.17-.49l-.12.47q16.38,22.82,32.75,45.62c7.14,9.95,14.26,19.91,21.63,30.21l-15.5,4.71-24.59,6.9c-4,1.11-8,2.08-11.87,3.38-2.13.71-3,.34-3.83-1.84-7.45-20.33-15.08-40.59-22.52-60.92-3.94-10.76-8.39-21.34-11.46-32.41a38.86,38.86,0,0,1-1.38-16.89c1.78-10.67,12.45-18,24-16.28,10.09,1.49,20.09,3.53,30.12,5.31q17.67,3.13,35.33,6.23c5.44,1.07,10.87,2.19,16.33,3.18Q699.46,165.71,723.7,170Z"/><path class="cls-2" d="M723.7,170q-24.24-4.36-48.46-8.74c-5.46-1-10.89-2.11-16.33-3.18-6-8.61-12-17.25-18-25.83-8.19-11.64-16.5-23.2-24.58-34.91-1.59-2.32-3-2.72-5.55-1.86q-48.25,16.17-96.56,32.17c-2.7.89-5.47,1.6-8.1,2.65-2.28.9-3.77.83-4.13-2,0-.35-.36-.67-.54-1-2-7.6-4.45-15-7.11-22.44-.84-4.49-.83-4.46,3.75-6L623.16,55.71c1.55,1.56.63,3.54.84,5.31.79,6.76,3.83,12.13,10.25,14.61s12.36.79,17.19-4.19a31,31,0,0,0,7.42-13.82,64.71,64.71,0,0,0,6.86-2.55c9.18-4.64,17.95-4.42,26.71,1.28,4.3,2.79,9.18,4.52,14.51,3.66,3.9-.63,7.45-2.38,11.12-3.74,5.11-1.91,9.76-1.73,14.33,1.87,5.61,4.42,5.77,4.21,11.2-.23,8.08,2.73,16.45,4.43,24.75,6.21,12.77,2.73,21.15,10,25.63,22.15,2.54,6.9,5.45,13.65,8.2,20.46l-20.63,9.45a5.71,5.71,0,0,0-1.38.44c-1.79,1.15-2.67.55-3.43-1.34-2.64-6.55-5.53-13-8.11-19.57-.94-2.39-2.29-3.38-4.83-3.87-19.13-3.7-38.23-7.6-57.34-11.45-3.33-.67-3.62-.42-2.85,2.89q7.53,32.34,15.08,64.7C720.39,155.32,722,162.68,723.7,170Z"/><path class="cls-3" d="M169.36,210.58c2.38-.18,4.08-1.8,6-2.91,14.7-8.59,29.35-17.27,44-25.9a13,13,0,0,1,1.89-.75c2.53,3.16,3.56,7.09,5.37,10.62.62,3.84,2,7.53,2.22,11.45.54,11.71-3.76,21.53-11.61,30-4.9,5.29-10.83,9.24-16.65,13.36a191.5,191.5,0,0,1-37.89,15.93,258,258,0,0,1-35.77,8.3c-1.94.29-2.79,1-3.05,3.13-1.79,14.59-3.75,29.16-5.64,43.74q-2.51,19.4-5,38.8c-.42,3.3-.85,6.61-1.23,9.92-.2,1.75-.69,2.48-2.53,1.29-2.38-1.54-4.92-2.84-7.39-4.24-6.68-4.21-13.4-8.34-20.44-11.92-5.6-2.09-5-6-3.79-10.79,5.68-23.2,10.89-46.51,16.55-69.72,2.93-12,9.49-21.47,20.53-27.78,17.46-10,34.69-20.32,52-30.53C167.89,212.08,169,211.78,169.36,210.58Z"/><path class="cls-4" d="M200.59,246.48c5.82-4.12,11.75-8.07,16.65-13.36,7.85-8.5,12.15-18.32,11.61-30-.18-3.92-1.6-7.61-2.22-11.45,3.17,2.05,3.94,5.73,5.64,8.7,8.6,15,17,30.22,25.4,45.36,2.57,4.62,5.06,9.29,7.59,13.93,1.82,3.34,1.82,3.35,4.72,1q18.54-15,37.09-30.07c9.62-7.82,19.26-15.62,28.79-23.57,1.87-1.56,2.15-.58,2.6.92s.92,3,1.38,4.48c1.68,5.77,3.34,11.55,5.08,17.3.71,2.36.8,5,2.54,7a15.64,15.64,0,0,0,1.29,6.27,2.13,2.13,0,0,1-.85,2.93c-18.43,13.55-36.79,27.19-55.24,40.71-6.06,4.45-12,9-18.8,12.49-10.07,5.22-18.66,2.73-26.35-3.59-8.66-7.12-15.78-15.77-23.42-23.91-5.63-6-11.45-11.85-17.12-17.82C204.76,251.4,202.71,248.9,200.59,246.48Z"/><path class="cls-5" d="M743.59,57.91c-5.43,4.44-5.59,4.65-11.2.23-4.57-3.6-9.22-3.78-14.33-1.87-3.67,1.36-7.22,3.11-11.12,3.74-5.33.86-10.21-.87-14.51-3.66-8.76-5.7-17.53-5.92-26.71-1.28a64.71,64.71,0,0,1-6.86,2.55,16.35,16.35,0,0,1-14-3.68,56.45,56.45,0,0,1-4.62-4.09c-7.13-7.66-16-11-26.34-10.88-6,.1-10.53-2.55-14-7.24-4.09-5.5-6.41-11.85-8.7-18.2-1.09-4.42-.93-4.75,3.28-6.95,11.49-6,22.81-4.25,32,5,3,3,5.6,6.34,9.68,8a13,13,0,0,0,11.12-.32c10.12-5.11,19.5-3.81,28.41,2.86,8,6,16.79,6.46,26,3.53a96.92,96.92,0,0,1,9.89-2.82,15.07,15.07,0,0,1,13,3c3.08,2.45,6.08,5,9.1,7.49,4.81,4,9.91,4.77,15.49,1.58a19.11,19.11,0,0,1,8.65-2.65A7.69,7.69,0,0,1,764.6,35c1.34,1.62,1.59,2.56-.24,4.14-6.61,5.71-13,11.64-19.53,17.49C744.39,57,744,57.49,743.59,57.91Z"/><path class="cls-6" d="M781.54,116.18l20.63-9.45c5.49,12.8,11,25.58,16.46,38.41,4.66,11,9.18,22.11,13.72,33.19,1.34,3.28.67,4.34-2.89,5-.13-.09-.32-.29-.37-.26-.32.2-.14.4,0,.58.26.84.48,1.7.79,2.52,1.47,3.93.82,5.11-3.26,5.84.4,1.93,1.05,4.11-1.52,4.93-2.88.91-3.69-1.4-4.57-4-1.11,1.4-2.11,2.61-3.85,2.21s-2.14-2.14-2.75-3.54c-2.78-6.37-5.52-12.75-8.45-19.52-1.28,2.17-1,4.29-1.6,6.16-1,2.84-2.06,5.54-5.31,6.56-1.43.44-2.41.34-2.22-1.46.9-8.35-.58-16.91,2.18-25.1.57-1.69-.28-3.07-.89-4.49Q789.64,135,781.54,116.18Z"/><path class="cls-6" d="M494.34,104.91c2.66,7.39,5.11,14.84,7.11,22.44L448.79,143.7a10.62,10.62,0,0,1-1.15.22c-8-2.79-16.05-5.53-24-8.41-2.31-.83-3.11-.47-3.07,2.15,0,3.81-2.32,6.45-5.57,6.74-1.21.11-2,0-1.84-1.69.25-3.59.15-7.22.2-10.83a23.25,23.25,0,0,1,16.31-7.73c.48,0,1-.26,1.45-.13,8.06,2.24,14.89-1.89,22-4.37C466.87,114.85,480.59,109.84,494.34,104.91Z"/><path class="cls-7" d="M804.61,350.36c1.25-.77,1.85,0,2.6.92,4.81,5.81,6.73,12.74,7.92,20,1.64,9.93-.52,19.72-1.13,29.56-.06,1-.45,1.47-1.46,1.37-3.6-.36-7.2-.73-10.81-1.05-1.74-.16-1.34-1.43-1.26-2.42.37-4.58.83-9.16,1.2-13.75.07-.82.57-2-.31-2.43s-1.84.51-2.55,1.09c-3.78,3.06-5.37,7.37-6.5,11.9s-1.13,4.67-5.68,4.33c-10-.73-20.1-1.63-30.16-2.42-2.74-.21-2.18-1.63-1.21-3.13,3.32-5.12,8.57-6.8,14.15-7.24,6.79-.53,11.6-6.64,10.62-14.16a15.14,15.14,0,0,0-.46-3.48c-.69-1.79,0-2.73,1.47-3.55a31.27,31.27,0,0,0,2.9-2C790.94,359.53,797.89,355.12,804.61,350.36Z"/><path class="cls-7" d="M650.88,277.75c3,5.33,3.51,11.14,3.08,17.07-.78,10.79-5.7,20.28-9.68,30.05-.46,1.13-1,1.62-2.2,1.13-2.9-1.19-5.8-2.36-8.7-3.56-1.54-.64-.87-1.68-.45-2.68,1.78-4.24,3.57-8.49,5.31-12.75.23-.57.89-1.25.26-1.87s-1.32-.24-2,0c-4.15,1.42-6.65,4.65-9,8.09-1.16,1.68-1.45,4.7-3.25,4.94-2,.25-4.19-1.28-6.26-2.14-7.61-3.16-15.16-6.42-22.8-9.49-2-.81-1.79-1.67-.62-2.89,2.87-3,6.55-3.78,10.47-3.69a43.52,43.52,0,0,1,5.51.79c4.07.62,8-1.72,9.75-6a11,11,0,0,0,1.23-4.5c-.2-3.23,1.23-4.84,4.2-5.44C634.25,282.85,642.58,280.34,650.88,277.75Z"/><path class="cls-6" d="M591.16,13.53c2.29,6.35,4.61,12.7,8.7,18.2,3.49,4.69,8,7.34,14,7.24,10.32-.16,19.21,3.22,26.34,10.88a56.45,56.45,0,0,0,4.62,4.09,16.35,16.35,0,0,0,14,3.68,31,31,0,0,1-7.42,13.82c-4.83,5-10.75,6.68-17.19,4.19S624.79,67.78,624,61c-.21-1.77.71-3.75-.84-5.31-4.43-5-10-6.56-16.44-5.36-1.06.19-2.08.56-3.14.76A12.71,12.71,0,0,1,589,42.45c-.37-1.14-.18-1.52,1-1.81A32.12,32.12,0,0,0,594.42,39c.62-.26,1.3-.7,1.15-1.52-.12-.61-.74-.87-1.33-1A12.29,12.29,0,0,0,592,36c-2.3-.12-4.47.55-5.61-2.92-.56-1.73-4-2.53-6.08-3.75.16-.26.22-.47.35-.54,4.13-2.18,7.72-4.62,8-10.06C588.7,17,590.27,15.27,591.16,13.53Z"/><path class="cls-6" d="M39.76,108.47a194.83,194.83,0,0,1-20.1,10.26Q10.21,98.14.76,77.53c-1.42-3.09-.94-4.25,2.28-5,1.27-.31,1.07-.77.69-1.59S3,69.1,2.56,68.22c-1.07-2.29-.4-3.82,2-4.49.78-.22,1.7-.16,1.28-1.35-.68-1.88-.3-3.38,1.69-4s3.32.58,4.06,2.44a4.2,4.2,0,0,0,.46.75c3.78-2.73,4.74-2.51,6.74,1.72C22,70.13,25.2,77,28.44,83.82a6.58,6.58,0,0,0,1.92,3c.35-2.43.51-4.7,1-6.89.72-3,2-5.52,5.41-6.35,1.17-.29,1.61-.08,1.61,1.17,0,5.89,0,11.79,0,17.68a4.9,4.9,0,0,1-.67,2.83c-2.8,3.5-1,6.55.65,9.71A35.13,35.13,0,0,1,39.76,108.47Z"/><path class="cls-6" d="M155.52,57.73l-3.41,1.87a105.88,105.88,0,0,0-10.79,11.12c-1.59,1.86-3,1.87-5,.89-4.47-2.17-9.05-4.12-13.59-6.16.73-5.29,2.73-10.25,4-15.41,4.26-3.35,5.46-7.23,3.58-12.13-1.11-2.9-1.47-5.68.45-8.38a2.64,2.64,0,0,1,2.76-1.27,2.29,2.29,0,0,1,1.87,2,6.06,6.06,0,0,1,.23,2.3c-.27,1.45.34,1.73,1.58,1.58a9.35,9.35,0,0,1,2.63-.12c2.34.42,2.84-.86,3-2.79a25.86,25.86,0,0,1,.68-4.63c1.22-4.8,3.76-6.75,8.71-6.66a4.34,4.34,0,0,0,4.16-2.21c.5-.82.8-1.79,1.7-2.33a21.44,21.44,0,0,1,3.21,9.32c.29,3.43,1.55,4.24,5.05,4.12,1.3-.05,3-.65,3.59,1.06.68,1.92-.93,2.79-2.26,3.63-1.16.73-2.38,1.36-3.56,2.05-.58.34-1.54.58-1.5,1.28.12,2.28-1.34,3-3.05,3.95-1.54.83-1.69,2.47.08,3.1,2.11.76,1.77,2,1.33,3.46a22.2,22.2,0,0,1-3.94,7.82A5,5,0,0,0,155.52,57.73Z"/><path class="cls-1" d="M95.34,379.72c-3.62,7.49-8.13,14.32-14.45,19.86-1.75,1.52-3,1.9-4.84-.05-2.6-2.8-5.5-5.33-8.32-7.92-1-1-1.58-1.67-.57-3.16,1.14-1.68,1.53-3.79-.23-5.38s-3.61-.88-5.13.33c-1.36,1.08-2.07.61-3.13-.39q-13.12-12.48-26.38-24.85c-1.35-1.26-1.17-1.93.21-2.88,4.26-2.91,8.61-2.93,13-.49a60,60,0,0,1,5.5,3.42c7.46,5.2,15.63,8,24.82,7.58.51,2.17,1.93,3.81,3.29,5.47C83.33,376.38,89,378.68,95.34,379.72Z"/><path class="cls-1" d="M356.24,202.93a58.17,58.17,0,0,1,25.35-1c1.92.36,2.49,1.2,2.23,3.18-.5,3.89-.75,7.81-1,11.72-.1,1.5-.2,2.55-2.2,2.64s-3.74,1.14-4,3.28,1.39,3.47,3.27,4,1.92,1.44,1.79,3c-1,12-2.05,24-3,36.07-.14,1.81-.88,1.77-2.24,1.47-4.9-1.11-8.28-5.46-8.89-11.5-.27-2.64-.66-5.26-.87-7.9-.62-7.8-3.8-14.49-8.75-20.43a4,4,0,0,1,.13-1.16C361.59,218.11,360.81,210.37,356.24,202.93Z"/><path class="cls-8" d="M413.33,131.88c-.05,3.61.05,7.24-.2,10.83-.12,1.73.63,1.8,1.84,1.69,3.25-.29,5.62-2.93,5.57-6.74,0-2.62.76-3,3.07-2.15,8,2.88,16,5.62,24,8.41-.44,1.33-.88,2.66-1.33,4-2.44-.56-5.42,1.68-7.43-1.49-.3-.47-1.61-.36-2.19.21-1.24,1.24-1.74.6-2.64-.51-1.27-1.54-2.94-.4-4.5-.36-1.07,0-2-2.67-4.06-2.35-1.17.18-1.8,1.11-2.5,1.92-1.09,1.25-1.6,2.94-3,3.93l-37.06-13.07c1.37-4.27.09-6-4.27-5.48-.74.08-1,.06-1.2-.69-.92-3.56-3.32-3.55-6.09-2.29-.78-3.24-1.59-4.06-4.35-3.73-1.15.14-1.16-.24-1.48-1-1.33-3.2-3.35-3.66-6.22-1.51-1.95,1.48-3.89,3-5.84,4.47-3.39-.84-.63-2.89-.86-4.36q1.5-4,3-7.94c.26-.7.48-1.91,1.41-1.47,2.84,1.32,6.39,1.06,8.43,4.16,2.68,4.09,6.38,6.74,11.51,6.28,2.16-.2,3.23.36,4.26,2.32,1.46,2.78,3.38,5.38,7.09,5.4,1.72,0,2.7-.45,1.79-2.45-.69-1.51-1.22-3.09-1.82-4.65Z"/><path class="cls-7" d="M158,15.42c-.9.54-1.2,1.51-1.7,2.33A4.34,4.34,0,0,1,152.1,20c-4.95-.09-7.49,1.86-8.71,6.66a25.86,25.86,0,0,0-.68,4.63c-.13,1.93-.63,3.21-3,2.79a9.35,9.35,0,0,0-2.63.12c-1.24.15-1.85-.13-1.58-1.58a6.06,6.06,0,0,0-.23-2.3,2.29,2.29,0,0,0-1.87-2,2.64,2.64,0,0,0-2.76,1.27c-1.92,2.7-1.56,5.48-.45,8.38,1.88,4.9.68,8.78-3.58,12.13-1.38-3.14-2.83-6.25-4.11-9.43A24,24,0,0,1,122,23.9c2.52-7.87,9-12.53,17.61-12.59,2.65,0,5-.24,7-2.3a3.91,3.91,0,0,1,3.84-.93,3.37,3.37,0,0,0,4.11-2c1.28-2.47,3.1-3.45,5.79-2.48a3,3,0,0,0,4.13-1.69c.5-1,1.09-2.21,2.32-1.81,1.39.44.5,1.86.5,2.79,0,2.64-.17,5.29-.34,7.93-.22,3.52-1.71,4.64-5.15,4C160.44,14.53,159.06,14.15,158,15.42Z"/><path class="cls-6" d="M388.28,123.22c.6,1.56,1.13,3.14,1.82,4.65.91,2-.07,2.47-1.79,2.45-3.71,0-5.63-2.62-7.09-5.4-1-2-2.1-2.52-4.26-2.32-5.13.46-8.83-2.19-11.51-6.28-2-3.1-5.59-2.84-8.43-4.16-.93-.44-1.15.77-1.41,1.47q-1.51,4-3,7.94c-3.05-.75-5.83-2.48-9.07-2.6,1.62-7,2.93-14.16,5-21.09,7.88,3,15.69,6.14,23.64,8.9C380.33,109.63,385,115.67,388.28,123.22Z"/><path class="cls-6" d="M804.61,350.36c-6.72,4.76-13.67,9.17-20.67,13.5-3.53-6.16-8.35-11.3-13-16.56,5.13-4.95,11.1-8.87,16.53-13.45,1.71-1.45,3.52-2.76,5.29-4.13-.08,1.08.63,1.81,1.17,2.6A152.33,152.33,0,0,1,804.61,350.36Z"/><path class="cls-9" d="M122.68,65.45c4.54,2,9.12,4,13.59,6.16,2,1,3.46,1,5-.89A105.88,105.88,0,0,1,152.11,59.6c.95,7.28,1.91,14.55,2.93,22.26-4.71-2.59-9.1-5-13.43-7.42-1.74-1-2.64-1.09-3.16,1.27-.81,3.73-2.06,7.36-3,11.05-.42,1.63-.76,2.44-2.63,1.21-4.66-3.06-9.46-5.92-14.2-8.86C119.86,74.53,120.65,69.8,122.68,65.45Z"/><path class="cls-6" d="M95.34,379.72c-6.33-1-12-3.34-16.2-8.46-1.36-1.66-2.78-3.3-3.29-5.47a40.74,40.74,0,0,0,5.83-14.36c7,3.58,13.76,7.71,20.44,11.92A97,97,0,0,1,95.34,379.72Z"/><path class="cls-6" d="M356.24,202.93c4.57,7.44,5.35,15.18,1.88,23.27a4,4,0,0,0-.13,1.16c-3.91,2.64-7.08,6.12-10.53,9.29-1.74-2-1.83-4.6-2.54-7-1.74-5.75-3.4-11.53-5.08-17.3C345.09,208.86,350.19,205.07,356.24,202.93Z"/><path class="cls-6" d="M650.88,277.75c-8.3,2.59-16.63,5.1-25.12,7.05a45.4,45.4,0,0,0-5.27-13.26l24.59-6.9Q648,271.2,650.88,277.75Z"/><path class="cls-6" d="M353.46,125.93c2-1.49,3.89-3,5.84-4.47,2.87-2.15,4.89-1.69,6.22,1.51.32.79.33,1.17,1.48,1,2.76-.33,3.57.49,4.35,3.73,2.77-1.26,5.17-1.27,6.09,2.29.2.75.46.77,1.2.69,4.36-.48,5.64,1.21,4.27,5.48-1.89,1.55-3.77,3.11-5.68,4.64-2.79,2.22-4.57,1.93-6.37-1.14-.45-.76-.78-1.34-1.76-1a5.18,5.18,0,0,1-.56.17c-3,.65-3.06-3.48-5.14-3.36-2.65.16-4.49.07-4.82-3-.05-.55-.29-.74-.93-.77C352.81,131.46,352,130.29,353.46,125.93Z"/><path class="cls-10" d="M420,149.26c1.42-1,1.93-2.68,3-3.93.7-.81,1.33-1.74,2.5-1.92,2.1-.32,3,2.38,4.06,2.35,1.56,0,3.23-1.18,4.5.36.9,1.11,1.4,1.75,2.64.51.58-.57,1.89-.68,2.19-.21,2,3.17,5,.93,7.43,1.49a4.78,4.78,0,0,1-.44,6.4c-1,1.19-1.73,2.62-2.7,3.85-1.7,2.14-3.23,2.25-5.19.49-.14-.13-.22-.33-.36-.46-1.58-1.44-3.07,1.43-4.81,0-.93-.75-1.61-3.3-3.64-1.09a2.21,2.21,0,0,1-1.9.16c-1.74-3.31-5.84-.49-7.78-3.07C418.14,152.41,419.38,150.86,420,149.26Z"/><path class="cls-6" d="M606.2,184.1l.12-.47c.34.3.12.4-.17.49Z"/><path class="cls-6" d="M829.14,183.61c-.19-.18-.37-.38,0-.58,0,0,.24.17.37.26Z"/></g></g></svg>