<svg xmlns="http://www.w3.org/2000/svg" viewBox="0 0 287.82 515.13"><defs><style>.cls-1{fill:#fff;}.cls-2{fill:#f87339;}.cls-3{fill:#1896a0;}.cls-4{fill:#272f80;}</style></defs><title>Fichier 1</title><g id="Calque_2" data-name="Calque 2"><g id="Calque_1-2" data-name="Calque 1"><path class="cls-1" d="M108.37,308.43c.48.35.58-.91,0-.87s-.86.75-1,1.33c-5.63,26.3-11.13,53.73-4.49,79.78,3,11.79,8.41,22.81,12.82,34.14,5.79,14.86,9.92,30.32,13.44,45.88.45,2,1,4.08,2.48,5.42,2.48,2.2,6.65,1.19,8.89-1.25s3-5.86,3.7-9.11c4.47-22,6.14-45.66-2.64-66.35-1.51-3.55-3.34-7.13-3.33-11,0-3.16,1.29-6.17,2.48-9.11a216.64,216.64,0,0,0,13.65-51c.25-1.73.45-3.59-.35-5.13a8.48,8.48,0,0,0-3.38-3A106.68,106.68,0,0,0,115.5,304.9c-2.14-.4-5.19-.09-5.36,2.08"/><path class="cls-1" d="M217,298.1c4.31,6.92,8.07,32.24,11.14,46.13,1.08,4.87,5.63,8.38,7,13.17,1.28,4.38,1.18,9,.88,13.56-2.42,36.75-24.78,55-29.09,91.62-.54,4.6-1.06,9.58-4.15,13s-9.8,3.9-11.74-.31a10.24,10.24,0,0,1-.7-2.86,138.55,138.55,0,0,1,6.76-65.72c3.26-9.1,7.56-18.28,7-27.93-.68-11.49-8.07-21.3-14.64-30.75A303.38,303.38,0,0,1,171.66,319a8.09,8.09,0,0,1-1.28-3.9c.06-2.81,2.83-4.7,5.35-6,9.66-4.84,28.61-12.63,39.38-13.57"/><path class="cls-1" d="M173.73,317.32a76.47,76.47,0,0,0,27.93,57.37c-11.59,12-17.59,28.66-18.79,45.3s2.08,33.34,7.06,49.26c3.27,2.51,7.3-2.05,8.77-5.9,8.42-22,12.28-45.37,16.09-68.59,1.17-7.09,2.34-14.27,1.86-21.45-.86-12.8-6.92-24.74-14.51-35.07-7.1-9.66-16.16-18.59-27.67-21.95"/><path class="cls-1" d="M147.25,485.52c-1.78.43-1.63,2.84-1.54,4.59.17,3.66-1.83,7.17-4.6,9.71a37,37,0,0,1-9.68,5.86q-7.75,3.58-15.77,6.6c-5.81,2.18-12.41,4.13-18.14,1.76-2.38-1-4.63-3.37-3.72-5.67.6-1.51,2.29-2.31,3.83-3l35.5-15.05a17.61,17.61,0,0,1,6.73-1.84c2.35,0,4.88,1.21,5.59,3.34"/><path class="cls-1" d="M118.59,306.35A418.16,418.16,0,0,1,116,356.26c-1.73,15.34-4.32,30.74-3.1,46.13,2.14,26.76,15.66,51.72,17.08,78.53,2.85,3,8.25,1.54,10.7-1.77s2.78-7.69,3-11.8c.88-15.72,1.75-31.64-1.27-47.09-2.16-11.06-6.32-21.92-5.91-33.18s5.27-21.6,8.36-32.34c4.09-14.24,5.1-29.16,6.08-43.95.12-1.77.17-3.72-1-5.09a6.44,6.44,0,0,0-3.33-1.8,34.52,34.52,0,0,0-26.53,3.41"/><path class="cls-2" d="M99.51,72.12a78.77,78.77,0,0,0-.3-22.22A150,150,0,0,0,54.7,74.44c2.63,1.27,3.46,4.71,4.25,7.65A49,49,0,0,0,80.86,111.4a2.68,2.68,0,0,0,2.23.51,3,3,0,0,0,1.31-1.52,231.53,231.53,0,0,0,16-39.41"/><path class="cls-3" d="M181.66,488.05c-1-6.6,2.53-11.49,6.23-16.3,2.18-1.38,3.29.27,4.54,1.58,4.11,4.33,9.21,3.47,11.73-2.05.92-2,1.45-4.22,3.92-5,3-1.66,3.88,1,4.89,2.71,1.23,2.13-.73,2.64-2.14,3.16-2.83,1.06-2,2.36-.39,3.84,6.81,6.29,15.12,7.9,24,7.77.9,0,1.8-.25,2.69-.23,2,0,4.45-.78,5.68,1.37s.44,4.25-1,6.11c-7,1.11-14.13.75-21.17.34-11.28-.66-22.58-1.08-33.84-2.1C185,489.13,183.15,489.37,181.66,488.05Z"/><path class="cls-1" d="M181.66,488.05c17.54.4,35,2.5,52.58,2.35,2.5,0,5.15-.74,7.56.65-1.62,2.9-4.08,3.86-7.39,3.83-15.31-.11-30.63-.05-45.95-.05C182.21,494.83,181.74,494.36,181.66,488.05Z"/><path class="cls-2" d="M188.63,237.63c1.36,7,5,13.26,8.58,19.39l25,42.89c.89,1.53,1.81,3.25,1.38,5a6.21,6.21,0,0,1-2.7,3.23c-4.73,3.33-10.35,5.14-15.86,6.9-7.43,2.37-14.87,4.75-22.42,6.66-4.62,1.17-9.39,2.18-14.11,1.57a5,5,0,0,1-3.66-1.73,5.61,5.61,0,0,1-.7-2.69l-1.28-14.64-6.05,17.58a2.55,2.55,0,0,1-3.07,2.28A127.4,127.4,0,0,1,102,310.84c-.63-.31-1.32-.72-1.46-1.4a2.49,2.49,0,0,1,.22-1.23l21.09-56.27a9.07,9.07,0,0,1,6.54-7c13.14-5.21,26.48-10.33,40.48-12.24,7-1,14.75-.94,20.52,3.18"/><path class="cls-3" d="M105.15,307.26h0c-44.22,0-72.75-10.94-76.34-29.27-2.64-13.53,8.86-28.64,32.38-42.54,22.46-13.28,53.54-24.24,87.53-30.89a332.39,332.39,0,0,1,62.39-6.4c44.21,0,72.75,11,76.33,29.28,2.65,13.52-8.85,28.63-32.38,42.54-22.45,13.27-53.53,24.24-87.52,30.88A331.56,331.56,0,0,1,105.15,307.26Zm106-101.87a324.51,324.51,0,0,0-61,6.27c-33.2,6.49-63.46,17.15-85.23,30-20.39,12.05-30.94,24.78-29,34.93,2.78,14.23,30,23.43,69.24,23.43a324.49,324.49,0,0,0,61-6.27c33.2-6.49,63.47-17.14,85.23-30,20.39-12.05,30.95-24.78,29-34.93C277.56,214.59,250.39,205.39,211.11,205.39Z"/><path class="cls-1" d="M88.72,218.15l-7.55-20.07c-.93-3.49.21-8.23-4.91-9.35C66,186.47,57.1,181,47.62,176.84L29.48,163.68c-7.78-6-15.37-12.24-23.4-17.87A13,13,0,0,1,0,134.2,107.66,107.66,0,0,1,5.81,98c2.52-7.21,4.52-14.59,6.89-21.85,2.83-8.67,1.89-16.55-4.46-23.44l-.09-7.28C9.74,39.3,13,34.29,19.62,33.56c3.4-.37,6.13-2,9.26-2.67,3.63,1.81,9.64-.13,10.22,6.49a6.81,6.81,0,0,0,3.56,6.73c.65,3.38.29,6.63-2,9.31-7.89,9.4-6.86,20.39-5.1,31.18s3.89,21.53.84,32.42c-.81,2.89.34,3.85,3.14,4.14a26,26,0,0,1,20.2,12.4,4.54,4.54,0,0,0,4.8,2.3c10.76-1.39,18.24,4.08,24.6,11.86,5.07,12.36,9.81,24.82,10.28,38.38C99.88,198.09,98.21,209.45,88.72,218.15Z"/><path class="cls-1" d="M138.82,187.19q3.77-10,7.54-20.06c.93-3.49-.21-8.23,4.9-9.35,10.28-2.26,19.16-7.77,28.64-11.89L198,132.74c7.78-6,15.37-12.24,23.39-17.86a13,13,0,0,0,6.08-11.61,107.51,107.51,0,0,0-5.81-36.18c-2.52-7.21-4.52-14.59-6.89-21.85-2.83-8.67-1.88-16.54,4.46-23.43,0-2.43.07-4.85.09-7.28C217.76,8.4,214.51,3.4,207.88,2.67c-3.39-.37-6.12-2-9.25-2.67C195,1.81,189-.13,188.41,6.49a6.8,6.8,0,0,1-3.56,6.73c-.65,3.38-.29,6.63,2,9.3,7.9,9.4,6.86,20.38,5.1,31.17S188,75.21,191.07,86.1c.81,2.89-.34,3.85-3.13,4.14a26,26,0,0,0-20.2,12.39,4.52,4.52,0,0,1-4.8,2.3c-10.76-1.38-18.23,4.08-24.59,11.86-5.06,12.35-9.8,24.8-10.27,38.37C127.66,167.14,129.33,178.5,138.82,187.19Z"/><path class="cls-1" d="M94.3,70l0,.35c-.25-.94-.43-1.81,1.07-1.41,3.94.37,5.95,3.43,8.27,6,1.07,1.19,1.8,2.85,3.08,3.65,6.86,4.27,8.38,6.43,5.66,13.81-1.78,4.85-1.75,6.77,3.62,8.08,6,1.44,5.82,7.16,4.31,11-3.2,8.12,1,8.54,7,8.66,2.83.06,5.64,1,8.46,1.59,3.54,11,7.53,21.91,7.5,33.69,0,10-2.65,18.58-12.81,22.73s-18.19-.16-25-7.41C96,160.62,88.56,149,81.91,136.85c6.49-4.47,10.21-9.69,4.72-17.41-2.16-6.62-2.23-14-10.9-17.23-4.86-1.82-2.45-6.21.94-8.95,4.75.67,5.7-2.52,6.75-6.16,1.22-4.18,1.82-8.88,6.29-11.33"/><path class="cls-4" d="M78.83,139.85l5.29-3.45c6.9,9.4,14.53,18.27,23.92,25.74,6.71,5.34,14.35,8.16,23.45,3.8s10.94-11.68,10.31-19.88c-.74-9.7-5.11-18.31-9.08-27l7.86,1.17c.28.83.69,1.51,1.87,1.3l-.13-.07c11,17.72,21.74,35.55,29.45,54.78l7.1,20.34L188.94,233a20.74,20.74,0,0,0,2.31,9.78l.66,4.41L120.9,275c-6.32,3.3-8.72.84-10.77-4.58-7.32-19.37-15.22-38.54-22.91-57.79l3.42-5.46c8.65-10.16,8.45-21.34,5.91-32.7C93.68,161.62,86.42,150.65,78.83,139.85Z"/><path class="cls-3" d="M146.57,472.88c-1,5.86,1.69,12.53-1.8,17.48-1.58,2.24-4.17,3.64-6.67,4.94q-12.32,6.36-25,12c-3.3,1.46-6.7,2.91-10.32,3.25s-7.6-.64-9.91-3.3c1-2.56,2.14-5.23,4.3-7.07a18.69,18.69,0,0,1,5.65-2.91l16.87-6.39a18.24,18.24,0,0,0,4.39-2.14c3.12-2.31,4.19-6.23,6-9.56a3,3,0,0,1,1.36-1.47,4,4,0,0,1,2.27.1,12,12,0,0,0,11.7-4.29"/></g></g></svg>