<svg xmlns="http://www.w3.org/2000/svg" viewBox="0 0 285.06 491.5"><defs><style>.cls-1{opacity:0.57;}.cls-2{fill:#fff;}</style></defs><title>Fichier 1</title><g id="Calque_2" data-name="Calque 2"><g id="Calque_1-2" data-name="Calque 1"><g class="cls-1"><path class="cls-2" d="M144.25,0c77.11,0,140.81,61,140.81,137.46,0,112.65-132.77,117.34-132.77,222,0,26.82-37.55,27.49-37.55,0,0-121.37,128.75-136.12,128.75-223.29,0-54.32-46.27-93.88-99.91-93.88-42.25,0-85.16,19.45-101.25,55C28.92,126.73-9.3,109.3,2.09,84.49,24.22,30.84,83.9,0,144.25,0ZM131.51,491.5c-10.73,0-22.8-6-22.8-19.45V460.66c0-13.41,12.07-20.12,22.8-20.12s22.79,6.71,22.79,20.12v11.39C154.3,485.46,142.24,491.5,131.51,491.5Z"/></g></g></g></svg>