<svg xmlns="http://www.w3.org/2000/svg" viewBox="0 0 73.75 23.69"><defs><style>.cls-1{fill:#272f80;}</style></defs><title>Fichier 1</title><g id="Calque_2" data-name="Calque 2"><g id="Calque_1-2" data-name="Calque 1"><path class="cls-1" d="M0,15.94l2.86-.25a6.35,6.35,0,0,0,.94,2.82,5.22,5.22,0,0,0,2.31,1.78A8.76,8.76,0,0,0,9.62,21a8.34,8.34,0,0,0,3.07-.52,4.2,4.2,0,0,0,2-1.41,3.23,3.23,0,0,0,.65-2,3,3,0,0,0-.62-1.88,4.69,4.69,0,0,0-2.07-1.36,39,39,0,0,0-4.07-1.11A21.12,21.12,0,0,1,4.12,11.3,6.3,6.3,0,0,1,1.68,9.16a5.17,5.17,0,0,1-.8-2.85,5.81,5.81,0,0,1,1-3.24A6.13,6.13,0,0,1,4.73.78,11,11,0,0,1,8.94,0a11.42,11.42,0,0,1,4.49.82,6.49,6.49,0,0,1,3,2.41,7,7,0,0,1,1.13,3.61l-2.91.22a4.67,4.67,0,0,0-1.59-3.28,6.16,6.16,0,0,0-4-1.11,6.43,6.43,0,0,0-4,1A3,3,0,0,0,3.8,6.11a2.58,2.58,0,0,0,.89,2c.58.53,2.1,1.08,4.57,1.63a31.42,31.42,0,0,1,5.07,1.46,7,7,0,0,1,3,2.34,5.65,5.65,0,0,1,.95,3.26,6.17,6.17,0,0,1-1,3.44,6.9,6.9,0,0,1-3,2.52,10.47,10.47,0,0,1-4.41.9,13.13,13.13,0,0,1-5.22-.91,7.23,7.23,0,0,1-3.29-2.72A7.72,7.72,0,0,1,0,15.94Z"/><path class="cls-1" d="M38.72,15.27l3,.76a10.26,10.26,0,0,1-3.43,5.7,9.49,9.49,0,0,1-6,2,10.87,10.87,0,0,1-6-1.51,9.43,9.43,0,0,1-3.53-4.37,15.5,15.5,0,0,1-1.21-6.14,13.53,13.53,0,0,1,1.37-6.24,9.35,9.35,0,0,1,3.89-4A11.36,11.36,0,0,1,32.31,0a9.36,9.36,0,0,1,5.78,1.75,9.11,9.11,0,0,1,3.27,4.92l-3,.71a7.2,7.2,0,0,0-2.32-3.65,6.16,6.16,0,0,0-3.81-1.14,7.42,7.42,0,0,0-4.41,1.27,6.66,6.66,0,0,0-2.5,3.4,13.66,13.66,0,0,0-.72,4.4,13.93,13.93,0,0,0,.86,5.1A6.35,6.35,0,0,0,28.12,20,7.53,7.53,0,0,0,32,21.09a6.58,6.58,0,0,0,4.31-1.46A7.6,7.6,0,0,0,38.72,15.27Z"/><path class="cls-1" d="M46,23.3V.39h3V23.3Z"/><path class="cls-1" d="M70.72,15.27l3,.76a10.26,10.26,0,0,1-3.43,5.7,9.49,9.49,0,0,1-6,2,10.87,10.87,0,0,1-6-1.51,9.37,9.37,0,0,1-3.53-4.37,15.5,15.5,0,0,1-1.21-6.14,13.41,13.41,0,0,1,1.37-6.24,9.29,9.29,0,0,1,3.89-4A11.36,11.36,0,0,1,64.31,0a9.36,9.36,0,0,1,5.78,1.75,9.11,9.11,0,0,1,3.27,4.92l-3,.71a7.13,7.13,0,0,0-2.31-3.65,6.16,6.16,0,0,0-3.81-1.14,7.42,7.42,0,0,0-4.41,1.27,6.66,6.66,0,0,0-2.5,3.4,13.66,13.66,0,0,0-.72,4.4,13.93,13.93,0,0,0,.86,5.1A6.35,6.35,0,0,0,60.12,20,7.53,7.53,0,0,0,64,21.09a6.58,6.58,0,0,0,4.31-1.46A7.6,7.6,0,0,0,70.72,15.27Z"/></g></g></svg>