<svg xmlns="http://www.w3.org/2000/svg" viewBox="0 0 471 475.6"><defs><style>.cls-1{fill:#593267;}.cls-2{fill:#9ad4e0;}.cls-3{fill:#1d1f4e;}.cls-4{fill:#272f80;}.cls-5{fill:#fff;}.cls-6{fill:#f87339;}.cls-7{fill:#f6f6f6;}.cls-8{fill:#55a3b0;}.cls-9{fill:#f5f6f7;}.cls-10{fill:#55a2b0;}.cls-11{fill:#193637;}.cls-12{fill:#626da6;}.cls-13{fill:#f9f7f9;}.cls-14{fill:#6bba99;}.cls-15{fill:#aed2dd;}.cls-16{fill:#1896a0;}</style></defs><title>Fichier 4</title><g id="Calque_2" data-name="Calque 2"><g id="Calque_1-2" data-name="Calque 1"><path class="cls-1" d="M300.94,199c-4.14,4.77-4.17,10.87-4.9,16.56-4,31.41-4.8,63.06-4.37,94.61.21,15,3.59,30,1.6,45.1-1.93,14.68-4.47,29.29-7.35,43.82-.87,4.39.33,6.94,3.42,9.35,7.25,6.44,12,7.06,19.2,2.46,5-.39,7.68-2.67,9.29-7.8a217.2,217.2,0,0,0,10.08-67c-.05-7.33.81-14.56,3.85-21.24,4.91-10.79,7.77-22.18,10.74-33.55,1.8-1.6,2.51.29,3.56,1.1,7.8,28.89,22.56,53.7,43.3,75.22a152.78,152.78,0,0,1,18.3,22.85c4.68,7.22,9.42,9.59,16.88,4.79,9.46-1.92,15.09-7.26,15.92-15.09-7.47-17-16.9-32.95-30.13-46-8.76-8.62-13.1-17.54-13-30.14.12-13.38-4.08-26.54-8.87-39.08a32.53,32.53,0,0,1,.63-26.09c7.79-17.17,3.62-32.57-6-47.41-4.48-.95-7.16,2.34-10.34,4.42-17.88,11.73-37.17,15.6-58.08,10.41C309.91,196.13,305,195.18,300.94,199Z"/><path class="cls-2" d="M314.19,197.71c7.17,6.19,15.86,4.17,23.84,3.59,17.2-1.26,32.55-7.57,45.1-19.8l8.42-10.18c3.1-1.67,4.41-4.62,5.53-7.71l0,.09c1.78-3.28,4.57-6,5.1-9.94,6.05-15.56,13.13-30.73,17.49-46.92C407.1,101,395,93.18,380.07,97.63c-2.31.89-4.29,2.41-6.48,3.53-1.92,1,.07-1.17-.8-1.2-6.07-3.86-12.75-6.39-19.38-9-7.33,8.15-18.12,12.33-24.63,21.43-7.42,2.89-8,10.62-11.53,16.27a16.2,16.2,0,0,1-7.34,9.49c-3.18,1.9-6.87,3.85-7.07,8.45.72,1.82,2.25,2.39,4,2.64a15.89,15.89,0,0,0,5-.59c9.76-1,15.33,7,22.76,10.91,3,1.57.87,5.11-.36,7.55a112.18,112.18,0,0,1-15.63,23.76C316.77,192.9,314.19,194.5,314.19,197.71Z"/><path class="cls-2" d="M314.19,197.71c12.5-8.62,18.86-21.7,25.13-34.82,1.47-3.07.74-5.23-2.78-6.44a52.81,52.81,0,0,1-17.88-10.8c-2.56-2.27-4.65-3.1-6.63.45-3.66,3.56-5.74,8.06-7.34,12.79-1.29,3.81-3.66,6.06-7.79,6.25-13.77,1.77-20.32,8.72-20.69,22,7.42,5.68,16.22,8.49,24.73,11.9C305.4,199,309.94,199.92,314.19,197.71Z"/><path class="cls-3" d="M468.27,391.11c-4.06-7.78-12.12-9.08-19.24-11.88-6.16,3.92-7.22,11.86-12.8,16.24-1.26.58-3.49,1-3.61,1.76-1.56,9.7-8.81,13.61-16.55,17.52-3.53,1.78-3.61,6.06-3.57,9.79,10.55,3.7,20.68.7,29.53-4.15,10.59-5.81,17.78-16,25.4-25.25A5.67,5.67,0,0,0,468.27,391.11Z"/><path class="cls-3" d="M286.17,419.89c-4.1,4.93-9.43,7.2-15.77,7.59-4.91.3-8.38,2.43-8.53,8,3.06,4.79,8.48,4.59,13.07,6.16,11.23,3.07,22.44,5.89,34.17,2.39,4.1-1.22,8.15-2.15,8.65-7.42-2.28-6.06-3.13-12.74-7.7-17.81-1.73-1.09-4-1.79-5.43-.58C298.76,423,292.51,421.42,286.17,419.89Z"/><path class="cls-4" d="M468.27,391.11c-5.56,5.91-11.53,11.47-16.58,17.78-10.21,12.75-24.47,14.62-39.19,15.65.75,4.09,4,4.61,7.06,4.14,12.61-1.89,25.72-2.36,34.47-14.19,4.29-5.8,9.7-10.77,14.54-16.17C470.74,395.9,472.87,393.32,468.27,391.11Z"/><path class="cls-5" d="M436.23,395.47c5.67-1.18,10.41-3.06,10.3-10.3,0-2,1.61-4,2.49-5.94-1.84-4-5.42-6.29-8.56-9-3.53,6.91-10.39,10.29-15.92,15.09C428.36,388.77,428.35,396.65,436.23,395.47Z"/><path class="cls-4" d="M317.76,436.59c-9.58,7.24-20.3,7.81-31.51,5.37-4-.88-8-1.95-12.06-2.93-2.1,1.82-5-1.8-6.94,1-.28,2,1.26,2.45,2.57,3.12,13.19,3.7,26.37,7.13,40.22,3.29,3.57-1,7.11-1.66,9.18-5.16.71-1.85.72-3.55-1.07-4.85Z"/><path class="cls-5" d="M359.59,82.5c-2.81.68-5.75.41-8.64.22-4-.27-8.08-.37-12.12-.3-1.55,0-3.28,0-4.38-1.07a5,5,0,0,1-1.18-2.47,20.64,20.64,0,0,1,2.55-15.73c-.41-.63-1.3-.64-2-.7s-1.66-.4-1.69-1.15.58-1,1.09-1.35a25.1,25.1,0,0,0,7.43-8.39c1.94-3.24,3.56-6.66,5.68-9.78a10.94,10.94,0,0,1,3.57-3.62,9.91,9.91,0,0,1,4.63-1C362.9,37,370.9,41.9,375.86,48.7S383,64,383.59,72.37c.1,1.58.1,3.31-.87,4.56s-2.62,1.67-4.15,2a108,108,0,0,1-11,2.1c-3,.37-6.15.49-9,1.55"/><path class="cls-5" d="M346.61,83q2.79,6.27,4.94,12.78a1.74,1.74,0,0,0,.73,1.11,1.81,1.81,0,0,0,.8.1l8.92-.3a3.72,3.72,0,0,0,2.56-.74,3.57,3.57,0,0,0,.71-2.63,57.89,57.89,0,0,0-1.4-12.52"/><path class="cls-6" d="M353.41,90.94c4.41,7.47,12.33,8,19.57,10,2.28,1.47,4.28.61,6.21-.76,8.44-1.89,16.44-1.31,24.35,2.76,4.9,2.53,10.31,4.38,16.1,3.94,7.18-.77,12.26-4.74,14-11.48,1.91-7.36-.84-13.83-6.9-18.55-6.31-4.91-12.29-9.93-12-19,.48-.46.6-.87.36-1.22s-.45-.5-.63-.47c-1.28-4-2.24-8.61-5.93-10.68-10.86-6.1-18.8-15.11-26.33-24.65-3.52-3.51-7.34-4.42-11.62-1.33-6.24,4.86-12.88,8.54-21.15,8.67-4.87.07-9.44,1.26-11.47,6.67-1.95,5.21,1.29,8.4,4.28,11.74a5.93,5.93,0,0,0,1.64,2.71,62.53,62.53,0,0,0,5.51,3.43,10.48,10.48,0,0,0,3.21,1.12c5.72.9,10.7,4.55,17.76,3.93-2.6,4.89-6.9,5.7-10.22,7.72-7.51,4.54-10,9.33-8.56,16.75Z"/><path class="cls-7" d="M263.68,19.27c-8.57,11.71-8.05,29.23,1.21,40.41a12.72,12.72,0,0,0,4,3.44c3.76,1.85,8.53.28,11.41-2.76s4.23-7.22,5-11.33a87.93,87.93,0,0,0,1-21.69,10.34,10.34,0,0,0-1.08-4.8c-1-1.64-2.76-2.61-4.47-3.49-2.79-1.43-5.72-2.85-8.86-2.91A11,11,0,0,0,263.38,20"/><path class="cls-3" d="M86.93,178.94a334.63,334.63,0,0,1,31.24,218.32,5.7,5.7,0,0,1-1.51,3.37c-2.06,1.72-5.13-.15-7-2.09-4.47-4.68-8.31-10.32-14.17-13.08s-14.61-.71-15.84,5.64c-.59,3,.68,6.07,1.24,9.1s0,6.81-2.75,8.15a8.75,8.75,0,0,1-4.08.53l-11.84-.39c-1.64-.05-3.41-.15-4.7-1.16-1.76-1.37-2-3.88-2.15-6.1A470.89,470.89,0,0,0,37,296.15c-2.22-7.5-4.71-15.13-9.54-21.29-3.52-4.48-8.16-8-11.32-12.77-5-7.47-5.66-16.93-5.67-25.9a225.74,225.74,0,0,1,4.41-44.38c.62-3.05,1.35-6.2,3.29-8.62,2.47-3.1,6.48-4.49,10.33-5.45A83.32,83.32,0,0,1,93.72,189"/><path class="cls-7" d="M114.53,133.93l12.1-3.33c5.8-1,11.6-2,17.4-2.93,1.52-.25,3.54-.75,4.07,1.18s-1.41,2.5-2.84,3.12a5.36,5.36,0,0,1-1.67.58c-9,.45-12,6.24-12.62,14.17-4.38,10.57-13.12,9.17-21.8,7.93,1.92-6.93-.82-12.09-6.2-16.24C106.4,135.81,110.92,136.05,114.53,133.93Z"/><path class="cls-8" d="M86,400.49c-9.12-1.46-11.07,5-12.91,11.64-2.77,1.94-3.43,4-.49,6.42,10,1.15,15.29,7.4,18.45,16.38a58.12,58.12,0,0,0,8.17,15.22c6,8.13,12.72,10.07,23,6.63.72-4.48-.79-9-4.32-10.79-12.93-6.5-12.85-19.07-15.47-30.49-4.32-3.21-9-6-10.79-11.68C91,401.63,89.08,399.53,86,400.49Z"/><path class="cls-9" d="M122.24,456.78c-13.88,1.89-21.31-5.94-26.31-17.45-2-4.52-3.79-9.11-6-13.52-3.61-7.28-9-10.89-17.38-7.78-6.65,4.1-1.91,8.67-.56,13.1,3.46,5.74,4.53,12.91,10.29,17.28,3.8,8.66,10.89,11.61,19.8,11.48,5.18-.07,10.35,0,15.53,0C119.87,459.89,122.15,460,122.24,456.78Z"/><path class="cls-10" d="M82.3,448.41c-1.57-6.56-4.88-12.33-8.22-18.09-3.26-2.4-5.26-6.27-9.19-7.86-2.93-1.19-5.79-1.43-8.38.83-5.11,7-5.53,15.2-5.06,23.39.31,5.27,4.69,6,8.88,6.71C68.35,454.73,75.27,451.37,82.3,448.41Z"/><path class="cls-11" d="M261,419.89c5.34,5.77,10.8,9.36,17,1.06,1.75-2.34,4.37-2.06,6.85-2.17-.5-2.63-1-5.26-1.51-7.89-6.73,1.74-12.83-1.39-19.2-2.46Q262.58,414.16,261,419.89Z"/><path class="cls-12" d="M293,436.43c.35,1.62.71,3.23,1.06,4.85,1.89-2.12,2.19-4.42.63-6.82-.34-.52-.66-2.62-1.72-.49C292.62,434.63,293,435.6,293,436.43Z"/><path class="cls-13" d="M177.46,207.3a64.37,64.37,0,0,0-.52-8.65,33.22,33.22,0,0,0-2.62-7.42c3.54-2.5,7.4-4,11.79-3.21,3.36.57,6.47-.3,9.59-1.31.78-.25,1.6-.38,2.4-.57a3.42,3.42,0,0,1,4,1.68c1.05,1.73-.32,2.63-1.71,3.47a2.23,2.23,0,0,0,2.62-.42c2.79-1.85,5.84-3.3,8.34-5.66s8.69-2.85,11.87-1.11c1.7.92,1.84,2.8,0,3.9-5.31,3.22-9.93,7.33-14.77,11.16-2.84,2.24-5.5,4.79-8.78,6.33-4.83,2.28-10,2.16-15.25,1.73C182.13,207,179.76,206.25,177.46,207.3Z"/><path class="cls-1" d="M16.4,192.28C40,204.78,63.59,206,86.89,191.6c3.45-2.13,5.67-1.89,8.43,1s5.9,4.92,8.88,7.33c8.46,4.31,16.68,9.23,26.35,10.53,12.15.12,24.29.64,36.43.28,7.08-.65,14.28-1,19.51-6.86-1.41-3.8,2.07-6.76,1.79-10.37-.17-2.27-1-4.08-3.4-4.74-3.56-2.18-7.5-1-11.26-1.14-30-.91-52.2-14.25-66-41.12,1.62-7.11-3.07-11.65-6.76-16.6C95.94,122.59,94,114,90.62,106,85.19,93.32,78.27,81.74,68,72.41c-3.46-7.86-13.57-14.28-22-14-4.17-2-8.26-4.33-12.55-6.12-13-5.42-23.27-.93-28.47,12.25C-.59,78.52-.52,93.08.61,107.65c2.06,26.62,8.24,52.58,13.05,78.76C14,188.47,15.46,190.33,16.4,192.28Z"/><path class="cls-5" d="M73.23,23.22,75.92,42a4,4,0,0,1-.25,2.71c-.88,1.37-2.89,1.14-4.5,1.41-2.5.43-4.42,2.4-6,4.38a49.75,49.75,0,0,0-3.92,5.67,11.93,11.93,0,0,1-3,3.89,9,9,0,0,1-3.54,1.31,29.64,29.64,0,0,1-10,.25c-1.94-.29-3.86-.76-5.81-1a37.57,37.57,0,0,0-6.54-.1c-2.16.13-4.53.29-6.3-1a7,7,0,0,1-2.38-3.73c-1.76-5.71.21-11.93,3.14-17.13a41.38,41.38,0,0,1,12.56-14A31.79,31.79,0,0,1,57.14,19a56.13,56.13,0,0,1,11,1.52,9.77,9.77,0,0,1,4,1.44"/><path class="cls-3" d="M41,39.89a3,3,0,1,1,3.67-4.72c.5.51.82,1.21,1.44,1.56,1.67,1,3.29-1.23,4.23-2.9a13.59,13.59,0,0,1,7.6-6.53c5.69-1.73,11.89,1.4,17.71.16,7.08-1.51,11.47-10,9.29-16.91S75-.75,67.85.11c-6.65.8-12.24,5.28-18.6,7.37C41.69,10,33,9.12,26.26,13.32,18.84,17.93,15.9,27.92,18,36.41c1,4.28,2.91,9.52-.33,12.51a106.4,106.4,0,0,0,16.54-1.3,7,7,0,0,0,2.52-.75c1.33-.81,2-2.37,2.51-3.82"/><path class="cls-6" d="M263.23,467.33c13.31,4.76,26.68,9.13,41.15,8.13,8.48-.59,8.6-.83,7.89-9.31-.58-6.87-1.52-13.6-4.67-19.83-4.47-4.12-8.88-2-12.55.85s-7.3,3.71-11.49,1.55c-3,2.5-6.22,4.44-10.24,4-7.52-.82-11.46,3-13.4,9.77C258.31,466,260.66,466.71,263.23,467.33Z"/><path class="cls-6" d="M187.82,472.62c1.34-.14,2.68-.21,4-.4,1.89-.27,2.43-.62,2.37-2.61-.15-5,1.2-10.18.38-15.06-.63-2-1.42-3.93-2.17-5.89-3.11-2.17-6.31-1.07-9,.51-4.15,2.46-7.84,3.39-11.78-.17a3.62,3.62,0,0,0-3.42-.38c-6.21,6.7-13,11.27-23,10.28-6.33-.62-9.3,4.54-10.14,10.53l.54.89a7.11,7.11,0,0,0,1.61,1.27c3.69,1.42,7.54.71,11.33.79,13.05.29,26.11-.36,39.16.25Z"/><path class="cls-5" d="M168.26,448.62a51.77,51.77,0,0,1,4.8,3.6c2.44,2.3,5,2.54,7.57.59,3.52-2.63,7.62-3.46,11.78-4.15L192,438.12c-2.49-2.41-5.93-1.37-8.8-2.43-3.6.52-6.29-1.84-9.38-2.95-3.33,2.6-1.29,6.76-2.87,9.88C170,444.57,169.16,446.61,168.26,448.62Z"/><path class="cls-5" d="M283.56,448.72c3.8,5.29,5.84,5.75,10.39,1.41a14.07,14.07,0,0,1,13.65-3.81c-1.07-3.2-2.31-6.35-3.16-9.6-.5-1.92-1.48-2.65-3.29-2.64-5.12,2.52-10.71,3.56-16.17,5C285.32,442.41,284.5,445.57,283.56,448.72Z"/><path class="cls-7" d="M176.7,73q-3.55-5.34-7.09-10.68C165.79,57.65,162,53,158.15,48.37c-1-1.2-2.22-2.95-3.93-1.81s-.59,2.87.1,4.31a5.44,5.44,0,0,0,.9,1.56c6.64,6.4,5.08,12.87.23,19.39-3.71,11.1,4,15.88,11.49,20.74,3.17-6.63,8.74-8.77,15.67-8.37C181.71,79.89,178.06,77,176.7,73Z"/><path class="cls-14" d="M314.14,174c2.39-1.73,4.3-2,5.37-4.53C317.1,170.27,315.29,170.7,314.14,174Z"/><path class="cls-2" d="M295.12,411.47a790.68,790.68,0,0,0,15.21-106.42q2-27.21,2.09-54.52c.06-17.95-1.17-36.14,3.27-53.71.47-1.87-2.42-2.67-2.9-.8-4.19,16.59-3.4,33.66-3.37,50.61q0,27.28-1.82,54.53a783.38,783.38,0,0,1-15.38,109.51c-.4,1.88,2.49,2.69,2.9.8Z"/><path class="cls-2" d="M302.42,413.44a677.38,677.38,0,0,0,15.85-104.76c1.38-17.91,2.17-35.86,2.53-53.82q.27-13.46.24-26.93c0-9.43-.39-18.9,1-28.26.27-1.89-2.62-2.7-2.9-.8-2.52,17.1-1,34.9-1.27,52.14-.3,18-1,35.91-2.31,53.83a677.32,677.32,0,0,1-16,107.8c-.45,1.88,2.45,2.68,2.89.8Z"/><path class="cls-4" d="M216.4,193.52c-7.29,32.76-26.54,61.77-35,94.25-3.33,12.82-4.94,26-6.53,39.17l-10.47,86.38c-.38,3.09-.75,6.25-.06,9.29C166.24,431,175.1,435.44,183,438.8c5.88,2.51,13.76,4.59,17.79-.37,2.09-2.57,2.24-6.16,2.26-9.47.17-23.56-.89-47.17,1.15-70.64a135.56,135.56,0,0,1,4.51-26.42,180.84,180.84,0,0,1,7.22-19.18l22.91-54.58c-3.81,20.46,2,41.31,5,61.9,2.15,14.56,2.91,29.28,4.55,43.9a370.5,370.5,0,0,0,10.86,56.6c1.16,4.22,2.45,8.53,5.17,12,4.06,5.14,10.9,7.55,17.45,7.42s12.87-2.53,18.67-5.57c2-1.07,4.15-2.33,5.21-4.38s.88-4.22.69-6.38c-2.69-29.65-16.86-57.33-19.54-87-1.06-11.76-.29-23.61-.7-35.42-.37-11-1.77-22-.45-32.84,1-8.1,3.46-15.94,5.14-23.92a124.65,124.65,0,0,0,.56-48.23,12,12,0,0,0-2-5.36c-2.39-3.05-6.86-3.24-10.74-3.16l-23.12.46c-13.68.28-27.66.6-40.46,5.42"/><path class="cls-15" d="M292.41,216.16c-2.94.51-5.9,1.51-8.81,1.41-3.34-.12-4,1.6-4.34,4.16a16.5,16.5,0,0,0-.13,10.55c.09,6,2.65,10.34,8.4,12.55A31.86,31.86,0,0,0,292.41,216.16Z"/><path class="cls-15" d="M226,240.71c1.16,5.35,5.31,8.08,9.62,10.4,3.46,1.87,12.14-3.9,14.22-9.54,2.2-5.94,1.87-12.32,1.13-18.4-.51-4.26-4.8-.26-7-1.74a9,9,0,0,0-7.29,0c-1.56,0-3.24.35-4.68-.08-5.95-1.81-7.27.85-6.23,6.07C226.93,231.83,226.59,236.26,226,240.71Z"/><path class="cls-16" d="M278.42,89.64c-2.87-5-5.85-10-10-13.92s-9.59-6.87-15.32-6.75c-8.07.17-14.92,6.21-19.27,13s-6.94,14.59-11.2,21.45-10.92,13-19,13.52a11.11,11.11,0,0,1-7.11-1.76c-2.78-2-4-5.44-5.11-8.68l-6.1-18.25c-.81-2.4-1.69-4.92-3.63-6.55a8.62,8.62,0,0,0-7.56-1.47c-6,1.49-9.74,8-10,14.15s2.26,12.12,4.94,17.71c3.41,7.09,7.23,14.05,12.32,20.05a58.94,58.94,0,0,0,29.18,18.6c3.53,1,7.47,1.8,9.68,4.71,2,2.63,2,6.24,1.68,9.52a61.51,61.51,0,0,1-5.73,20.31c-1.43,3-3,6.81-.76,9.24a7.77,7.77,0,0,0,3.67,1.85c9.54,2.84,19.58,5.7,29.31,3.59,5.86-1.27,11.18-4.27,16.8-6.33s12.09-3.13,17.5-.55a9.19,9.19,0,0,0,3.09,1.18c3.94.31,5.19-5.24,4.62-9.14s-.65-9.23,3.15-10.29c2.24-.62,4.46.82,6.59,1.75,9.29,4.07,20.58-1.92,25.59-10.74s5.15-19.52,4.43-29.64a206.88,206.88,0,0,0-8.85-46.84c-2-6.3-4.42-12.78-9.37-17.14a4.66,4.66,0,0,0-2-1.2c-2.32-.48-4,2.06-5.1,4.15-3.15,6-7.58,11.86-13.91,14.41s-14.78.63-17.74-5.52"/><path class="cls-3" d="M269.5,13a11.22,11.22,0,0,0-7.62,10.45l9.5.11a12.44,12.44,0,0,1,.59,5,9.09,9.09,0,0,1,6.57-.49c2.1.8,3.71,3.14,3.08,5.3-.7,2.37-3.42,3.34-5.42,4.77-5.54,4-6,12.18-10.45,17.3-2.44,2.78-5.91,4.43-9.27,6-6.19,2.85-12.86,6-16,12.1-3.25,6.3-1.78,13.88-2.65,20.91-1.74,14.09-13,27.52-8.48,41,.42,1.24,1.13,2.58,2.4,2.89a4.66,4.66,0,0,0,2.38-.29,58.29,58.29,0,0,1,11.7-2.25c2.48-.22,5.26-.17,7.06,1.54s2,4.18,1.94,6.51c-.15,8.83-3.24,18.34,1.06,26.05,1.53,2.73,5.06,5.1,7.62,3.29a6.63,6.63,0,0,0,2.05-3.16c4.29-11.06,6.4-24.3,16.24-30.92,1.85-1.25,4.07-2.22,6.28-1.86,6.84,1.08,6.52,11.93,12.22,15.87,5.52,3.83,13.49-1.46,15.29-7.94s-.26-13.3-1.25-19.95a62.24,62.24,0,0,1,1-23.47c1.42-6,3.69-12.41,1.13-18-1.19-2.6-3.31-4.65-4.88-7a30.49,30.49,0,0,1-4.06-11.19,71.62,71.62,0,0,1-.09-26c.82-4.47,2.06-8.91,2-13.46s-1.62-9.37-5.34-12a18.7,18.7,0,0,0-7.34-2.63,107.53,107.53,0,0,0-23.2-1.93c-3.59.1-8.49,2.2-7.26,5.57"/></g></g></svg>