<svg xmlns="http://www.w3.org/2000/svg" viewBox="0 0 561.33 343.79"><defs><style>.cls-1{fill:#f87339;}.cls-2{fill:#cb74b7;}.cls-3{fill:#272f80;}.cls-4{fill:#f5f5f6;}.cls-5{fill:#f4f4f5;}.cls-6{fill:#54a2b0;}.cls-7{fill:#1d1f4e;}.cls-8{fill:#57a4b3;}.cls-9{fill:#56a2b2;}.cls-10{fill:#5a9eb2;}.cls-11{fill:#5aa7ab;}.cls-12{fill:#5b98b1;}.cls-13{fill:#609bb3;}.cls-14{fill:#593267;}.cls-15{fill:#132b27;}.cls-16{fill:#1d3738;}.cls-17{fill:#5ca8ad;}.cls-18{fill:#0d2d22;}.cls-19{fill:#0c2729;}.cls-20{fill:#1896a0;}.cls-21{fill:#fff;}</style></defs><title>Fichier 3</title><g id="Calque_2" data-name="Calque 2"><g id="Calque_1-2" data-name="Calque 1"><path class="cls-1" d="M21,270.49l-4.4-3.92A22.1,22.1,0,0,1,19,264.94a21.33,21.33,0,0,0-2.36,1.66c-3.51-.84-5.56-3.17-6.61-6.51,0-4.18,3.33-5.73,6.11-7.56,14.69-9.62,25.49-22.59,33.31-38.2,3.07-6.11,6.06-12.27,9.28-18.3,9.79-18.29,25.83-28.67,44.7-35.51,6.42-2.33,11.32-.56,14.9,5.26a74,74,0,0,0,5,7.74c3.2,4.92,8.85,4,13.45,5.51,10.35,6.09,19.46,14.62,32.05,16.35a20.58,20.58,0,0,1,4.21,1.18,6.92,6.92,0,0,1,4,4.15c-12.46,17.73-9.08,32.65,6.13,47.54,9.64,9.42,16.29,21.76,21,34.69,7.74,21.08-2,34.87-24.58,34.84-5.1,0-10.2-.24-15.31-.37-10.86-1.64-21.64-3.73-31.95-7.6a14.13,14.13,0,0,1-7.68-7.68c-1.74-7.79,1-14.86,3.89-21.8,1.92-4.67,1-7.1-4.12-7.76a36,36,0,0,1-7-1.44c-6.86-2.36-10.89-.37-13.09,6.82-1.77,5.79-3.88,11.89-10.75,14-.67.1-1.66-.25-2,0-8.23,7.7-12.77,6.69-18.11-4-1.72-3.45-2.14-7.15-2.53-10.88-.58-5.65-3.19-8.14-8.9-5.53-1,.82-2.15,1.58-3.28,2.3a12.48,12.48,0,0,1-2.4,1.19c-3.07.69-5.74,2.58-8.89,3.09a11.17,11.17,0,0,1-2.77.1c-5.47-.78-11-.89-16.46-2a8.92,8.92,0,0,1-5.41-3.84A25.35,25.35,0,0,0,21,270.49Z"/><path class="cls-2" d="M121.94,175.81c-12.53-15-12.36-14.61-30.46-6.41C76.69,176.1,66.77,187,59.65,201.21s-13.21,29.19-25.07,40.7A123.53,123.53,0,0,1,10,260.09c-6.91-5.21-8.37-13.3-9.19-20.78-2.35-21.21.42-41.87,10-61.28,3.21-4.32,3.86-9.71,6.11-14.43,13.29-30.11,25.28-60.95,50.22-84.16,12-11.2,25.47-18.08,42.38-16.27,2.5.86,5.51.76,7.4,2.82,5.9,6.45,13.16,10.67,21.23,13.71,5.23,12.14,8.43,24.62,8.49,38,0,6.59,2.37,13.18,3.66,19.77-2.68,4.29-7.95,5.71-10.85,9.76-6.09,5.87-10.41,12.73-11.81,21.21C126,171.19,127,175.81,121.94,175.81Z"/><path class="cls-3" d="M125.44,167.86c-1-10.45,5.68-16.84,12.2-23.33,5.65,1.49,9.4-4.93,15-3.6l5.19,6.3c5.85.2,8,5.68,12,8.46C176.22,160,181.51,166,189.34,168a5.32,5.32,0,0,1,2.14,1.88c3.43,7.2,10.9,5.43,16.66,7.2,4.14,1.27,8.7,1.31,13.1,1.56q30.9,1.77,49.28,26.61c2.42,3.26,5.05,6.37,7.58,9.55,2.83,4.52,2.29,8.13-2.92,10.37-3.7,1.59-7.18,3.73-11.14,4.68-2.53,0-4,1.19-4.37,3.76-4.25,3.21-7-.19-9.76-2.44A66.2,66.2,0,0,1,232.8,211c-2.62-4.86-6.3-7.6-11.94-7.88-14.62-.73-29.23-1.61-43.84-2.42l-4.63-1.86a7.83,7.83,0,0,1,.89-1.17,6,6,0,0,0-4.39.58c-13.84-1.39-24.23-9-33.56-18.55C130.66,176.91,125.15,174.8,125.44,167.86Z"/><path class="cls-3" d="M191.48,169.84l-2.19-.06c-5.07-7.5-9.83-15.2-14.37-23.05,18.19-7.46,34.26-18.25,48.74-31.41,6.44-5.86,14.22-7.55,22.33-9.19,10-2,19.89-4.68,29.81-7.13,2.28-.56,4.9-2.12,6.65.08,1.44,1.82-.16,3.75-1.7,5.28-.83.82-2.44,2.66-.31,3,14,2.38-4.91,7.57,1,10.49-3.73,4.89-6.53-.17-9.66-1-2.25-.61-4.28-2.33-6.53-2.61-3-.37-6.72-.09-7.78,3.33s2.56,4.25,4.71,5.75c4.15,2.87,12.74,4,9.79,10.45s-9.68.26-13.38-1.48c-14.95-7-24.38-.66-33,10.79C216.68,155,205.63,164.46,191.48,169.84Z"/><path class="cls-4" d="M126,300.54a27.36,27.36,0,0,0,20.21,9.62c6.59.33,13.36,1.68,18.13,7.25l.27,4c-1.18,1.91-2.17,4-4.41,5-17.53,9.76-35.26,4.08-53,.63-8.68-1.63-18.25,3.37-26.2-3.55l1.56-16c-2.4-8.67,5.73-9.66,9.88-13.56,4.93-.71,8.61,2,12.32,4.54,3.25,3.67,7.06,3.53,11.12,1.56C119.29,299.07,122.73,297.93,126,300.54Z"/><path class="cls-5" d="M27.59,274.26c6.3-1.73,12.32.14,18.38,1.43,1.82,5.64-.78,11.73,1.76,17.3C41.13,303.4,53,305.4,56.1,311.41c1.49,3.29,3.11,6.57,1.88,10.36-12.06,3.26-24.21,4-36.48,1.25-3.14-.7-5.56-2.26-6.84-5.31-1.55-6-.17-11.68,1.58-17.35,1.81-6.47,4.43-12.7,5.9-19.29a9.46,9.46,0,0,1,.9-2.94A7.42,7.42,0,0,1,27.59,274.26Z"/><path class="cls-1" d="M92.74,295.14a26.45,26.45,0,0,0-10.19,12.31c-6-1.79-12.58-1.11-18.13-4.61-3.59-2.1-3.14-5.69-3.36-9-1.3-6.82,0-13.68-.35-20.52-.25-1-.48-2-.72-3-.2-8.9,7.71,0,10.33-4.42.47-.8,3.3,4.53,3.58,7.14.74,7,0,14.3,6.51,19.2,1.87,1.41,2.82,5.92,6.18,3.12C90.78,291.83,84,291,84.32,288c3.67-1.3,6.24.7,8.73,2.92C94,292.43,94.14,293.84,92.74,295.14Z"/><path class="cls-1" d="M174.92,146.73c10.05,4.41,13.68,12.81,14.37,23.05-7.13,2.72-10.25-4.16-15-6.71a43.65,43.65,0,0,1-16.44-15.84C163.43,143.1,169.21,146,174.92,146.73Z"/><path class="cls-6" d="M338.26,284.37l26.5,10.33a39.11,39.11,0,0,0,0,6.12c1.18,8.29-2.66,11.27-10.47,10.12-7.1-1-15.33,3.31-20.79-6.08-1.52-2.62-8.35.05-12.21,2.22-12.8,7.2-25.74,3.51-38.62.63-2.53-.56-5.64-1.92-5.35-5.28a10.93,10.93,0,0,1,6.07-8.92c6.74-3.41,14.08-4.63,21.57-5.06,6.63,4.7,13.46,2.36,20.05.15C329.38,287.13,333.67,285.3,338.26,284.37Z"/><path class="cls-7" d="M338.26,284.37c-5.3,5.68-12.41,8.14-19.53,10-5.56,1.43-11.78,2-13.81-5.9,9-1,14.84-7.08,20.84-12.91,4.3.87,7.47,3.46,10.23,6.68Z"/><path class="cls-8" d="M81,323.43l28.31,1.36c12.91,4.08,25.74,8.78,39.62,4.51,1.92-.59,4-1,5.72.75-8.42,7.05-18.6,4.82-27.56,3.39-12.88-2.06-25.61-3.84-38.63-3.42C83.87,330.16,80,329.6,81,323.43Z"/><path class="cls-9" d="M16.62,315.51c2.32,6.07,7.84,5.94,12.79,6.11,9.51.32,19.05.13,28.57.15,1.25,1.68,1.25,3.71-1,3.7-12.1-.08-24.14,4.19-36.31.38-7.21-2.26-10.68-6.76-9.82-14.38C15,308.37,15,308.37,16.62,315.51Z"/><path class="cls-3" d="M263.27,229.38c1.89-3.44,4.43-6.24,8.62-6.16,6.34.12,5.57-4.6,6.21-8.46,2.67,3,9,4.82,5.72,10-7.94,12.33-11.09,12.95-20.2,6.38-.76-.24-1.06-.58-.92-1S263.05,229.38,263.27,229.38Z"/><path class="cls-10" d="M16.62,315.51c-2.18-1-1.15-6.55-5.77-4l10.17-41,2.05.73c1.87,2.27,4.17,4.42,2.16,7.76a2.36,2.36,0,0,1-.44,1.8c-3.77,5.76-4.55,12.41-5.65,19C16.86,304.77,17,310.18,16.62,315.51Z"/><path class="cls-11" d="M154.64,330.05a73.82,73.82,0,0,1-40.73-2c-2-.67-3.85-1.08-4.61-3.29,5.62,1.09,11.38,1.72,16.84,3.35,12.21,3.66,23.23-.41,34.33-4.47,2.71,1.81,2.76,2.11,1.05,3.88-1.4,1.46-3.65,1-5,2.46C155.88,330,155.26,330.05,154.64,330.05Z"/><path class="cls-3" d="M152.66,140.93c-4.21,4.51-8.21,9.91-15,3.61a15.92,15.92,0,0,1,12.59-7Z"/><path class="cls-12" d="M16.85,163.6c-.72,5.37.36,11.49-6.11,14.43C10.74,172.36,13.24,167.74,16.85,163.6Z"/><path class="cls-13" d="M156.49,330c.46-2.66,6.34-1.92,4-6.34l4.1-2.28C167.22,329.26,161.64,329.43,156.49,330Z"/><path class="cls-7" d="M422.23,42.45C426,50.23,430,57.72,438.7,61.17c2.28-.25,4-2.19,6.32-2.21,2.91-1.17,4.79-5.86,8.77-3.17,2.95,2,2.47,5.37,1.82,8.44-1.67,7.92-.18,15.56,1.92,23.15L457,88.7c-2.88,2.75-4.32,1-6.05-1.57-2.47-3.64-1-7.68-1.76-11.47a3.08,3.08,0,0,0-3.38-1.45c.4.06.81,0,1.22,0a3.5,3.5,0,0,1,1.83.69c-1.62,6.77,4.22,12.58,2.49,19.37a3.89,3.89,0,0,1-2.73.44c-4.44-2.79-10-3.51-13.83-7.39-7-3.33-9.08-10.3-12.25-16.47q-.88-.4-.75-1c.09-.45.21-.68.37-.68-1.67-2.63-9.15-2.5-4-8.38,2-3.5,1.25-7.07.27-10.65a.73.73,0,0,0,0-1C420.8,47.51,416.84,42.39,422.23,42.45Z"/><path class="cls-7" d="M448.12,95.83a4.27,4.27,0,0,0,.3-1.8l2.72-.24c2.14-1.85,4.57-3.4,6-6l.39-.45c4.74,5.66,8.88,12,16.09,15a3.38,3.38,0,0,1,4.09,1.83c-4.87,21-7.3,26.27-15.58,33.49C455.18,124.36,452.38,109.84,448.12,95.83Z"/><path class="cls-3" d="M92.74,295.14c.11-1.39.21-2.79.31-4.18,6.32-5.37,8.29-13,10.31-20.48,1.28-4.73,2.62-6.64,8.26-4.65,7.28,2.58,17.87,1.14,21.95,5.84,3.75,4.31-4.34,13-5.43,20.27-.44,2.91.42,6.23-2.2,8.61l-10.51,2.69c-4-1.24-8.43.57-12.17-2Q98,298.18,92.74,295.14Z"/><path class="cls-3" d="M64.13,293.39c-4.82.88-10-1.25-14.59,1.53v0L46.22,293c-8.31-5.64-2.77-11.48-.25-17.29a10.44,10.44,0,0,0,1.37-.15c3.56,1.32,5.92-1.08,8.51-2.75l2.06-.44c1.82.37,3-.67,4.15-1.84C67.78,277.68,63.23,285.78,64.13,293.39Z"/><path class="cls-14" d="M125.44,167.86c2.72,4.44,8.11,6.65,9.89,11.86-5.57,2.47-10.73,3.56-13.39-3.91C124.46,173.76,122.31,169.65,125.44,167.86Z"/><path class="cls-15" d="M55.85,272.79c-1.91,3.77-3.91,7.29-8.51,2.75C49.64,273,52.8,273.05,55.85,272.79Z"/><path class="cls-1" d="M16.59,266.6c1.83-3.45,4.82-5,10.15-6.27-3.38,4.52-6.72,5.43-10.12,6.24Z"/><path class="cls-1" d="M50.22,231c.48,2.94-.78,4.44-3.35,4.88C45.65,232.64,48.87,232.44,50.22,231Z"/><path class="cls-16" d="M62.06,270.51c-.37,1.78.67,4.34-2.18,4.72-.52.07-1.31-1.87-2-2.88L60,270.26Z"/><path class="cls-17" d="M25.23,279l-2.16-7.76a5.28,5.28,0,0,1,4.52,3Z"/><path class="cls-18" d="M168.89,198.26c2.45-2,5.06-2.4,8.82-.41l-5.32,1Z"/><path class="cls-19" d="M103.26,301.24c4.11.33,8.8-2.86,12.17,2C110.92,305.32,106.62,306.16,103.26,301.24Z"/><path class="cls-17" d="M19.14,299.74c-.36-7-.34-13.87,5.65-19C23.42,287.25,22.06,293.73,19.14,299.74Z"/><path class="cls-3" d="M543.64,269.64c-1.7-3.3-5.16-5.25-8.49-6.92-13.06-6.54-26.89-11.48-39.86-18.21S470,229,462.17,216.58c-4.94-7.83-7.83-16.73-11.52-25.22a144.49,144.49,0,0,0-57.47-65.66c-2.19-1.33-4.52-2.62-7.08-2.79a13.16,13.16,0,0,0-6.84,1.83c-13.3,7.07-18.45,23.18-22.4,37.71L333,250.29c2.2.24,2,3.18,2.38,5.13-6.24.67-10.38,1.88-11.81,8.81-1.3,6.32,2.18,12.86,7.15,17s11.22,6.29,17.34,8.33c47.32,15.77,97.41,28.93,146.65,21a91.22,91.22,0,0,0,20-5.21A61.4,61.4,0,0,0,539.5,286.6C543.32,281.77,546.47,275.12,543.64,269.64ZM436.48,256.87a94,94,0,0,1-22.7-8.48c-4.84-2.53-11.29-4.13-15.41-7.75-4.42-3.89-1.54-9.37-.78-14.23.66-4.18.24-8.5.76-12.7s2.64-7.92,2.74-12.05a3.1,3.1,0,0,1,3.16-3.25,4.37,4.37,0,0,1,5.08,0c11.33,7.82,14.18,22.94,21.44,33.89,2.52,3.81,5.32,7.42,8,11.1,1.59,2.19,4,4.71,5,7.3C445.74,256.21,440.8,257.85,436.48,256.87Z"/><path class="cls-7" d="M503,280c8.12,4.83,16.27,9.56,26.18,4.89,4.8,10.39-1.71,18.37-5.72,26.88,1.06,11.69-.86,20.49-15.7,21.16-4.23.19-8.12,5.6-12.38,8.29-2.26,1.43-5.16,2.63-6.52-1.28-.78-2.24,5.5-4.58.78-6.27-3.21-1.15-5.18,3.37-7.45,5.67a3.28,3.28,0,0,0-.47.89c-1.77,3.8-4.17,4.9-7.54,1.73-1.82-3.55,1.46-6,2.64-9.05-6.22-1.55-8.28,7.78-13.86,4.41-3.18-1.92.07-4.79.85-7.18,6.09-4.52,12.38-8.2,20.29-9,10.33-1,15.56-7.49,16.5-17.71C501.28,295.59,502.16,287.78,503,280Z"/><path class="cls-7" d="M350.65,152.78c9.47-10.33,13.47-11.19,23.9-5.1,2.51,12.06,5.39,23.55,15.81,32.19,6.26,5.19,9.17,13.53,8.23,22-.41,3.63,1.55,5.65,2.66,8.36,1.78,4.32,1,6.78-4.39,5.34-4.28-1.06-9.29,3.52-13-1.67-8.31-2.79-15-7.32-17.34-16.4-1.39-3.54.19-7.44-1.32-11-2.61-8.88-7.29-16.61-13.18-23.68l-2-4.57C349.5,156.38,348.66,154.41,350.65,152.78Z"/><path class="cls-7" d="M118.08,57.85c2.65-2.28,2-6.71-.11-9.52s-5.18-4.68-7.48-7.31-3.69-6.71-1.66-9.56l2.73-2c-6.46-4.74-7.8-15.35-2.22-21.1s16.89-4.19,20.15,3.13a36.77,36.77,0,0,1,17-11.22A3.87,3.87,0,0,1,148.75.1c2.58.81,1.47,5.29,3.68,6.86,2.54,1.8,5.23-2,8-3.35,3.05-1.45,6.69.27,9.21,2.51s4.65,5.08,7.74,6.45a13.08,13.08,0,0,1,3.5,1.71c2.32,2,1.36,6-.86,8.21s-5.27,3.19-7.81,4.94c-4.86,3.33-7.55,9-11.84,13-4.12,3.87-9.51,6-14.76,8.14l-27.54,11"/><path class="cls-3" d="M138.08,79.7c-15.5,4.79-19-11.18-28.63-16.53l8.27-6.63c.9-3.25,1.48-6.59,3.08-9.62,2.55-4.85,6.1-7.65,11.37-4.19,4.78,3.14,7.34,1.21,9.65-2.92a25.15,25.15,0,0,1,4.83-6.46c3.23-3,7-4.35,11.16-2.61s6,5.1,4.81,9.76a12.37,12.37,0,0,1-.23,2C160.55,49.1,169,56.73,167,58.27c-4.94,3.86-7,7-7,13.26,0,5.79-5,8.56-10.72,8.69C145.5,80.3,141.79,79.89,138.08,79.7Z"/><path class="cls-7" d="M421.92,40.69c-1.85.14-3.21,1.92-3.58,3.74a17.75,17.75,0,0,0,.23,5.53,31.6,31.6,0,0,1-.74,11.34,6,6,0,0,0-.29,2.1,5.58,5.58,0,0,0,.82,2.07l7.5,13.31a15.15,15.15,0,0,0,3.75,4.91c3.19,2.4,7.66,1.93,11.4,3.3,6,2.18,9.17,8.57,11.41,14.52a152.9,152.9,0,0,1,9.13,40c1.63-12.8,11.9-23.31,13.22-36.15.64-6.22-.9-12.45-2.6-18.47q-3-10.69-6.72-21.18c-1.92-5.45-4.14-11.07-8.48-14.89a27.68,27.68,0,0,0-5.66-3.69,62,62,0,0,0-31.71-6.8"/><path class="cls-20" d="M350.39,161.5c-1.77-5.06,1.77-10.78,6.57-13.16s10.45-2.21,15.78-1.68l.34-7c5.64-3.38,12.87-3.3,19-1s11.36,6.6,15.94,11.32c16.55,17,25.84,39.61,37.14,60.51s26.34,41.67,48.6,50a8.11,8.11,0,0,1,3,1.61c1.51,1.52,1.44,3.94,1.6,6.08.89,12,13.86,21.54,25.57,18.84a7.23,7.23,0,0,0,4.31-2.35c1.1-1.47,1.19-3.5,2.25-5,2.24-3.15,7-2.2,10.85-2.42,9.62-.54,16.22-10.23,18.46-19.59,4.77-20-3.19-40.52-6.1-60.87-2.2-15.38-1.56-31.36-6.76-46a88.48,88.48,0,0,0-11-20.48,85.23,85.23,0,0,0-14.09-16.33A57.84,57.84,0,0,0,486,100a11,11,0,0,0-4.76.64c-3.85,1.67-4.88,6.51-5.8,10.61a68.86,68.86,0,0,1-11.33,25.16L454.05,104.7c-1.87-5.91-4-12.23-9-15.91-5.43-4-13-3.84-19.4-1.62s-12,6.19-17.87,9.48a91.61,91.61,0,0,1-44.88,11.55c-3.58,0-7.29-.23-10.61,1.12-8.32,3.41-10,14.45-9.1,23.39a89.75,89.75,0,0,0,6.67,25.82"/><path class="cls-21" d="M418.34,42.86a46.09,46.09,0,0,1,36.38-17.15,20.29,20.29,0,0,1,7.69,1.36c4.29,1.82,7.29,5.74,9.9,9.61a156.14,156.14,0,0,1,12.76,22.8c2.06,4.53,3.92,9.21,6.87,13.22C502,86.39,522.7,89.78,531.11,104.55c2.49,4.37,3.64,9.36,4.65,14.28a337.27,337.27,0,0,1,6.64,55.22c.4,10.74,0,22.47-6.95,30.71-3.1,3.69-7.26,6.33-11.47,8.67-3.39,1.88-7,3.63-10.8,4.13s-8.06-.43-10.71-3.26-3.16-7.73-.48-10.54,7.41-3.13,8.86-6.59c1.68-4-3-8-7.27-8.35s-8.56,1.37-12.87,1c-5.63-.44-10.52-4.38-13.47-9.2s-4.24-10.44-5.32-16c-1.45-7.46-2.59-15.13-1.45-22.65,1-6.59,3.72-12.8,5.25-19.3s1.73-13.79-1.93-19.37c-2.58-3.93-6.75-6.52-9.82-10.07-6.74-7.8-7.37-19-7.46-29.31a15.62,15.62,0,0,0-.91-6.28c-.88-1.94-2.85-3.57-5-3.34-2.76.31-4.32,3.35-6.78,4.62-4.66,2.42-9.81-2.16-12.85-6.44s-7.23-9.36-12.33-8.12"/></g></g></svg>