<svg xmlns="http://www.w3.org/2000/svg" viewBox="0 0 364.03 567.27"><defs><style>.cls-1{fill:#272f80;}.cls-2{fill:#1896a0;}.cls-3{fill:#593267;}.cls-4{fill:#1d1f4e;}.cls-5{fill:#f9f7f9;}.cls-6{fill:#f0ceda;}.cls-7{fill:#fff;}.cls-8{fill:#f87339;}.cls-9{fill:#fefefe;}.cls-10{fill:#aed2dd;}</style></defs><title>Fichier 2</title><g id="Calque_2" data-name="Calque 2"><g id="Calque_1-2" data-name="Calque 1"><path class="cls-1" d="M123.64,235.72c-10,1.51-20,3-30,3.65-1.68.12-3.39,0-5.08,0a65.32,65.32,0,0,1-13.26.59c-6.68-.46-10.37-3-12.2-9.46A43.06,43.06,0,0,0,52.2,211.8c-3.26-3.35-5.76-7.15-5.08-12.25a2.92,2.92,0,0,0-1.93-3.45,3.67,3.67,0,0,0-3.77,1.58,12.12,12.12,0,0,0-2.61,10.08c.47,2.61,1.23,5.17,2,8.17l-25.54-6.74c-3,.34-6.11.48-6.91,4.44-.39,1.91-2.07,1.06-3.22,1a4.35,4.35,0,0,0-4.78,2.87c-.9,2.29.2,3.93,2.19,4.95,1.19.61,1.82,1,1,2.51-2.17,4-.18,6.49,3.48,8.13,1.44.65,2.88,1.29,4.31,2,1.12.53,2,1.15,1.2,2.63-2.32,4.38.65,6.37,3.87,8,3.85,1.93,7.82,3.6,11.73,5.39a45.4,45.4,0,0,1,13.22,9.48c4.69,4.68,10.21,6.57,17,6.79,11.88.37,23.71,1.87,35.57,2.9,1.43.12,2.86.21,4.29.31Z"/><path class="cls-2" d="M133.7,344.17c.34-20.53,10-38.82,14.27-58.43,3.11-14.23,2.7-28,2-45.52-11.75,8.43-11.46,24.4-25.08,25.53-12.36-9.2-7.23-25.16-14.12-36.47C116,202.15,120,174.7,127,148c4.28-16.36,18.39-23.05,35.32-22.54,18.59,4.82,27.37,9.89,41.34,4.69,4.86,1.41,9.64,3.16,14.57,4.19,37.5,7.78,60.5,28.32,64.19,68.5,2,21.53,7.41,42.73,10.95,64.14,4.22,25.5-7.07,39.94-32.72,42.48a4.11,4.11,0,0,1-5.4.29c-2.84-8.75,5-12.81,8.38-18.78,2-3.56,2.24-7-.55-9.91-3.21-3.33-6.77-1.31-9.86.53-5.66,3.37-10,8.38-14.72,12.82-12.42,11.57-25.67,21.9-43.76,21-8.05-.39-11.38,5.07-16,9.35-8.87,6.42-21.45,6-28.62,15.57C145.26,344.28,140.69,349.56,133.7,344.17Z"/><path class="cls-3" d="M81.35,243.1c-25.3.46-47.83,19.26-58,42.43s-9.56,49.81-4.19,74.53A205.34,205.34,0,0,0,179.51,517.79c7.87,1.58,16.11,2.67,23.84.51,17.13-4.8,26.12-23.75,29.05-41.3,4.35-26.12.06-53.11-8.6-78.14s-21.57-48.33-34.86-71.23c-17.59-30.29-37.69-61.7-69.32-76.78a92,92,0,0,0-40.12-8.91c-2.62,0-5.87.62-6.58,3.14"/><path class="cls-4" d="M141.07,172.91a172,172,0,0,1,.22,42.11c6.5-9.39,11.5-20.1,12.6-31.48s-2.06-23.45-10-31.68c-7.59-7.88-19.07-11.56-29.95-10.4s-21,6.95-28.27,15.15c-9,10.18-13.56,23.67-22.7,33.7-4.7,5.16-10.57,9.34-14.24,15.28-5.66,9.15-5.11,20.87-2.42,31.28s7.29,20.3,9.29,30.86c5.79,30.49-10.69,60.73-12,91.73-.31,7.6.9,16.35,7.23,20.57,7.25,4.83,17.36.93,23.55-5.2a39.63,39.63,0,0,0,11.47-24.32c.73-8-1-16-2.57-23.85-6.61-33.14-10.21-69.11,4.8-99.39,4.1-8.27,9.65-16.49,9.3-25.71-.13-3.22-1-6.44-.53-9.63s2.85-6.49,6.07-6.4c2.21.06,4.05,1.65,6.1,2.46,5.55,2.17,11.59-1.55,16-5.57s9-8.79,14.9-9.17"/><path class="cls-5" d="M135.88,553.39c-1.87-3.44-4.13-6.65-5.56-10.35a45,45,0,0,1-2.26-10.41c-5.86-.36-11.34.71-15.87,4.69-3.47,3.06-7.67,4.26-12,5.32-1.07.27-2.11.7-3.16,1.05a4.64,4.64,0,0,0-3.39,4.76c0,2.73,2.24,2.8,4.44,2.78-.89,1.56-2.17,1.42-3.31,1.39-4.55-.16-9.09.34-13.65-.59-4.75-1-12,2.9-14.47,7.17-1.3,2.27-.12,4.53,2.75,4.51,8.41-.06,16.66,1.38,25,2.35,4.87.57,9.75,1.61,14.62,1.05,7.19-.82,13.09-4.65,18.81-8.87C130.3,556.39,132.47,553.81,135.88,553.39Z"/><path class="cls-4" d="M180.67,405.48c-.14-.52-.27-1.05-1-1.07Z"/><path class="cls-6" d="M159.93,211.18c-1,.69-.91,1.7-.81,2.71A2.94,2.94,0,0,0,159.93,211.18Z"/><path class="cls-7" d="M81.18,240.69c-1.41-6.86,2.32-13.65,6.17-19.51s8.1-12.1,7.89-19.11c-.09-3-1-5.94-1.49-8.92s-.39-6.26,1.33-8.75,5.51-3.67,7.87-1.79c.68.53,1.18,1.26,1.82,1.83,2.62,2.35,6.7,1.66,10,.54a62.62,62.62,0,0,0,25-15.83,238.76,238.76,0,0,1,2.79,25.6c.3,5.56.39,11.24-1.23,16.56-2,6.61-6.48,12.14-11,17.34-3.78,4.34-7.77,8.66-12.77,11.51-3.67,2.09-7.86,3.38-11,6.19-4.12,3.7-5.75,9.37-7.07,14.74a368.38,368.38,0,0,0-7.11,37,83.55,83.55,0,0,1-11-67"/><path class="cls-8" d="M164.08,275.73c5.18,12.76.72,27.24-4.24,40.09s-10.52,26.6-7.35,40c1.34,5.64,4.16,10.81,7.19,15.75a177.19,177.19,0,0,0,22.77,29.54c1.54,1.62,3.25,3.28,5.44,3.76,5.33,1.17,9.16-4.94,11-10.09,11.37-32.23,13.47-67.57,6.79-101.09-1.83-9.17-4.74-18.9-12.18-24.57A31.79,31.79,0,0,0,182,264c-4.46-1.14-9.38-1.72-13.5.32s-6.73,7.6-4.26,11.48"/><path class="cls-9" d="M155.21,238.86c4.5-.38,7.38-3,9.14-6.92,2-4.52,3.82-9.15,5.91-14.21,1.8,3.57,3.23,6.58,4.8,9.5,6,11.08,15.78,14.49,24.44,4.08,2.59-3.11,6.19-3.86,10.11-2.27,3.67,1.5,4.73,4.62,5,8.11a12,12,0,0,1-3.42,9.71c-7.49,7.66-11,17.13-13,27.45-.74,3.89,0,8-2,12.15-1.44-1.62-2.68-2.95-3.85-4.34a5,5,0,0,0-5.22-1.89C175,282,164.92,276,159.71,264.44,155.57,256.38,154.45,247.79,155.21,238.86Z"/><path class="cls-10" d="M193.29,287.53c-15.88,6.77-33.67,15.68-37.87,32.43-2,8.05-.38,16.56,2.12,24.47C169,380.6,197.87,410.35,203.86,447.8a31.35,31.35,0,0,1,.1,11.9c-1.1,4.8-4,9-7,12.87a162.8,162.8,0,0,1-57.67,46.67c-3.37,1.63-7,3.25-9.2,6.24-4.86,6.46-1.42,15.61,2.15,22.85,1.58,3.2,4.05,6.93,7.59,6.51a8.9,8.9,0,0,0,2.8-1L172.15,539c14.13-7.06,28.38-14.21,40.67-24.13s22.62-23,26.45-38.32c3.69-14.81,1.09-30.38-1.53-45.42l-4.07-23.42c1.83,9.91,8.78,18.28,17.06,24s17.89,9.21,27.37,12.61C302,453,327.42,461.66,352.22,456.3a14,14,0,0,0,5.68-2.23c2.32-1.78,3.44-4.7,4.21-7.52,5.67-20.64-1.84-43.11-14.69-60.24s-30.5-29.9-47.88-42.4L247.6,306.56c-8.67-6.24-17.47-12.54-27.44-16.37s-21.43-4.95-31.25-.73"/><path class="cls-8" d="M154.56,246.51a48.9,48.9,0,0,1-.57-31.19c2.23-7,6.21-13.59,12.18-17.83s13.38-5.8,20.66-6.23c11.26-.66,23.55,1.67,31.14,10s8.72,20.79,12.2,31.68a68.44,68.44,0,0,0,15.38,26c10.32,10.91,23.91,18.08,35.46,27.66a108,108,0,0,1,37.42,66c.73,4.7,1,9.95-1.81,13.78s-8.07,5.16-12.82,6.14c-11,2.27-22.36,4.54-33.41,2.46-20-3.77-34.46-20.61-47.26-36.4-9.07-11.18-18.2-22.47-24.85-35.24-2.72-5.23-5-10.82-5.45-16.7-.75-10.63,4.77-20.65,10.86-29.41,2.87-4.13,6-8.39,6.66-13.38s-2.3-10.88-7.3-11.42c-6.66-.72-10.91,7.62-17.46,9-5,1.09-10.26-2.12-15.19-.77-3.28.89-5.72,3.6-8.74,5.15s-7.7,1.23-8.67-2"/><path class="cls-4" d="M138.19,86.06c-12.36-2.2-20-18-14.06-29.07,1.16-2.16,2.74-4.14,3.41-6.5.85-3,.15-6.17,0-9.27a27.65,27.65,0,0,1,8-20.9c3.29-3.28,7.36-5.67,11.38-8l10.71-6.26c3.49-2,7-4.1,10.93-5.17C179.35-2.12,190.82,3,200,9.61S217.25,24.44,227.55,29a25.87,25.87,0,0,1,5.13,2.63c4,3,5.16,8.5,7.13,13.16,2.68,6.34,7.31,11.65,10.55,17.72s5,13.72,1.58,19.7c-4.37,7.68-15.67,10-18.53,18.4-.71,2.07-.8,4.29-1.44,6.37-2.89,9.31-15.54,11.8-24.69,8.46s-16.37-10.47-25-15c-6.4-3.33-13.45-5.17-20.43-7L136.93,87"/><path class="cls-4" d="M156.53,116.9A17.82,17.82,0,0,1,134.6,95.53c-4.5-3.13-7.06-8.57-7.55-14s.88-10.95,3-16c2.39-5.7,6.17-11.36,12-13.41,6.84-2.4,14.71,1.07,19.29,6.7s6.47,12.94,7.57,20.11a117,117,0,0,1,1.38,18.51c0,2.91-.17,5.93-1.54,8.5a19.62,19.62,0,0,1-4.75,5.21l-7.19,6.18"/><path class="cls-1" d="M147.45,72.46c5.66,3.6,7.67.39,10.57-4.36,8.33-13.67,24.38-13.85,34-.94a41.24,41.24,0,0,1,5.38,10.17l5.49-3,4.23.1c2.19,1.13,4.34,2.16,5.22,4.84,2.07,6.29-1.34,14.79-7.54,16.94-3,1-3.75,2.68-3.86,5.32-.27,6.31-.53,12.62,1.13,18.8,4.06,12,.43,22.22-7.39,31.2-9.36,10.77-24,7.78-28.95-5.65a123,123,0,0,1-4.66-17.4c-1-4.46-3.08-8-7.58-9.75-4.35-6.75-4.76-14.41-5.1-22.09-.07-1.49.31-3.2-1.44-4.07-4.64-2.3-5.63-6.57-6.07-11.14C141.58,77.34,143.43,74.1,147.45,72.46Z"/></g></g></svg>