<svg xmlns="http://www.w3.org/2000/svg" viewBox="0 0 32.68 32.68"><defs><style>.cls-1{fill:#fff;}</style></defs><title>Fichier 3</title><g id="Calque_2" data-name="Calque 2"><g id="Calque_1-2" data-name="Calque 1"><path class="cls-1" d="M2.86,25.58a10.53,10.53,0,0,0,5.28-9.24A10.54,10.54,0,0,0,2.86,7.1a16.36,16.36,0,0,0,0,18.51Z"/><path class="cls-1" d="M24.54,16.34a10.55,10.55,0,0,0,5.28,9.24v0a16.36,16.36,0,0,0,0-18.5A10.56,10.56,0,0,0,24.54,16.34Z"/><path class="cls-1" d="M22.46,16.34A12.63,12.63,0,0,1,28.52,5.45a16.34,16.34,0,0,0-24.36,0,12.63,12.63,0,0,1,6.07,10.89,12.65,12.65,0,0,1-6.07,10.9l0,0a16.35,16.35,0,0,0,24.38,0A12.64,12.64,0,0,1,22.46,16.34Z"/></g></g></svg>