<svg xmlns="http://www.w3.org/2000/svg" viewBox="0 0 253.38 538.83"><defs><style>.cls-1{fill:#558da8;}.cls-2{fill:#1896a0;}.cls-3{fill:#272f80;}.cls-4{fill:#cb74b7;}.cls-5{fill:#f87339;}.cls-6{fill:#f9f7f9;}.cls-7{fill:#1d1f4e;}.cls-8{fill:#c12656;}.cls-9{fill:#b99cb2;}.cls-10{fill:#d86352;}.cls-11{fill:#f0ceda;}</style></defs><title>Fichier 5</title><g id="Calque_2" data-name="Calque 2"><g id="Calque_1-2" data-name="Calque 1"><path class="cls-1" d="M132,367.39c7.29,8.1,11.42,18.1,16.35,27.6A105.18,105.18,0,0,1,158,421c1.7,7.74.41,13.64-6.51,18.85-18.16,13.66-37.79,25-56.58,37.71-5.49,3.7-11.07,7.31-16.88,10.46-4.17,2.25-3.62,6-4.18,9.51a53.3,53.3,0,0,0,2.7,12.43c1.7,4.41,4.39,8.24,6.62,12.34,4.59,4.93,9.93,4,15.48,2.09,12-4.18,23.45-9.5,34.91-14.91,22.64-10.7,45.12-21.7,66.23-35.27,3.71-2.38,7.37-4.87,10.94-7.46,4.84-3.53,6.75-8.77,8-14.35,1.32-6.05,2.34-12.17,1.85-18.39-.33-4.2,1-3.87,4.1-2.24,8.07,4.25,16.33,8.15,24.55,12.11a29.32,29.32,0,0,0,4.17,1.32v-187c-1.25.79-2.49,1.58-3.75,2.35-10.45,6.34-21.18,12.27-31.25,19.16-5.78,4-11.5,5.73-18.23,4.69a46.68,46.68,0,0,0-16.71.16c-4.33.89-8.64,1.91-13,2.65-3.65.61-7.32.76-8.06-4.28-.25-1.7-1.34-1.7-2.59-1.46-1.59.31-3.17.66-4.76,1-4,.85-7.17,0-7.82-4.64-.24-1.77-1-1.69-2.34-1.48-2.27.36-4.18-.33-4.82-2.77a4.48,4.48,0,0,1,2.22-5.29c1-.64,2.91-.95,2.07-2.77-1.74-3.77.73-5.75,3-7.87-2.22-2.82-2.3-6.24-2.68-9.57-.31-2.69-2.21-3.41-4-2.15-7.8,5.43-15.41,11.14-23.08,16.74-.36,3.69-2.71,5.66-5.95,6.85-.2,1.67-1.5,2.41-2.74,3.2a4.83,4.83,0,0,1-.32,1.27c-9.93,18.11-8.88,36.43-.76,54.73,5.28,11.91,13.2,22.21,20.66,32.78,1.06,1.5,2.82,2.68,2.58,4.89l0-.07C131.73,366.31,131.87,366.85,132,367.39Z"/><path class="cls-2" d="M253.38,112c-15.9-11.52-34.15-18.22-52.15-25.45,3.88,11.4.41,21.21-7,29.78-9,10.28-22.9,7.43-27.64-5.4a117.26,117.26,0,0,1-4.46-16.61c-.89-4.25-2.93-7.67-7.23-9.3a44.05,44.05,0,0,1-12.1,7.59c-1,3.23-1.22,6.77-3.76,9.38-.81,8.43-3.63,16.16-11.88,19.46-5.66,2.26-7.82,5.84-8.68,11.16-.1.56-.51,1.06-.67,1.63-3.07,10.84-6.22,21.66-6.88,33a8.05,8.05,0,0,0,1.37-2.17c1.21-4.86,3.48-9.28,7.32-12.31,6.27-4.95,12.54-10.94,21.69-6,1.16.62,2.31-.17,3.43-.43,8.21-2,15.48.13,21.92,5.29a44.19,44.19,0,0,1,12.56,16.84c3.13,6.94,3.91,14.48,6,21.69,4.06,14.13,9.82,27.05,22.33,36.06,6.12,4.4,12.94,7.58,19,12,1.42-1,2.91-1.94,4.24-3.06,7.93-6.68,15.33-13.94,22.68-21.24Z"/><path class="cls-3" d="M253.38,213.86c-7.35,7.3-14.75,14.56-22.68,21.24-1.33,1.12-2.82,2-4.23,3.06a67.79,67.79,0,0,1-10.64,8.53c-5.82,3.66-10.4,3.82-15.86-.45a44.27,44.27,0,0,0-20.35-8.88c-4.73-.8-9.1-2.44-11.63-7.08a3,3,0,0,0-3.7-1.69,3.77,3.77,0,0,0-2.17,3.6,12.46,12.46,0,0,0,3.95,9.94c2,1.88,4.16,3.54,6.58,5.59l-25.27,9.9c-2.31,2.12-4.78,4.1-3,7.87.84,1.82-1.07,2.13-2.07,2.77a4.48,4.48,0,0,0-2.22,5.29c.64,2.44,2.55,3.13,4.82,2.77,1.36-.21,2.1-.29,2.34,1.48.65,4.66,3.79,5.49,7.82,4.64,1.59-.34,3.17-.69,4.76-1,1.25-.24,2.34-.24,2.59,1.46.74,5,4.41,4.89,8.06,4.28,4.36-.74,8.67-1.76,13-2.65a46.68,46.68,0,0,1,16.71-.16c6.73,1,12.45-.73,18.23-4.69,10.07-6.89,20.8-12.82,31.25-19.16,1.26-.77,2.5-1.56,3.75-2.35Z"/><path class="cls-4" d="M131.07,366.36c.24-2.21-1.52-3.39-2.58-4.89-7.46-10.57-15.38-20.87-20.66-32.78-8.12-18.3-9.17-36.62.76-54.73a4.81,4.81,0,0,0,.32-1.28,34.15,34.15,0,0,1-2.28-24.51c2.31-8.65,5.86-17,5.47-26.23-3.63-7.06-4.61-14.58-3.94-22.39a81.64,81.64,0,0,1,1.61-26.81c-5.55-1.4-9.3-5.45-13-9.3-11.58-12-15.3-26.79-14.4-43-2.23-.65-3.92.73-5.72,1.57-12,5.61-22,13.84-30.71,23.66-21,29.17-21.2,60.91-11,93.65,8.82,28.34,25,52.57,43.86,75.09A399.47,399.47,0,0,0,131.07,366.36Z"/><path class="cls-5" d="M45.93,145.62c8.75-9.82,18.72-18.05,30.71-23.66,1.8-.84,3.49-2.22,5.72-1.58a35.1,35.1,0,0,1,2.7-9.74c3.09-6.64,5.41-13.28,2.6-20.78a5.51,5.51,0,0,1,2.85-7.14c3.07-1.59,5.69-.56,8,1.62A8.1,8.1,0,0,1,100,86c1.11,1.83,2.12,1.45,3.41.14,3.33-3.4,7.66-4.87,12.18-5.76,6.66-1.3,13.29-2.63,18.83-6.92,1.93-1.5,2.36-.26,3,1.29,1.53,3.73,1.88,7.69,2.47,11.6l2.88,6.22A44.05,44.05,0,0,0,154.85,85c-4.15-6.45-4.54-13.76-4.87-21.1-.06-1.41.3-3-1.37-3.88-4.43-2.2-5.37-6.27-5.79-10.63-3.75-4-8.81-5.77-13.53-8.11a90.49,90.49,0,0,0-19.64-2.15C90.23,39.27,77.55,49.41,69,65.91c-1.21,2.34-2.14,4.83-3.89,6.85,0,1.84.39,3.77-.06,5.5s-1-.32-1.56-.34c-2.8,1.81-3.43,5.72-6.3,7.17-3.71,1.88-4.91,6-8.42,8.12s-6.44,5.41-9.22,8.68c-1.54,1.81-.82,4.81-3.51,5.74a2,2,0,0,1-.08.68c1,2.69-1.45,4.57-1.6,7.1C33.66,127.28,37.32,137.37,45.93,145.62Z"/><path class="cls-6" d="M83.19,522.27c-2.23-4.1-4.92-7.93-6.62-12.34a53.3,53.3,0,0,1-2.7-12.43c-7-.43-13.53.85-18.93,5.6-4.14,3.65-9.16,5.08-14.3,6.35-1.28.32-2.52.83-3.77,1.25a5.53,5.53,0,0,0-4,5.68c0,3.26,2.67,3.34,5.29,3.32-1,1.85-2.58,1.69-3.94,1.65-5.42-.19-10.84.41-16.28-.71C12.22,519.48,3.53,524.1.63,529.2c-1.55,2.71-.15,5.4,3.28,5.38,10-.07,19.87,1.65,29.77,2.8,5.81.68,11.63,1.92,17.45,1.26,8.57-1,15.61-5.55,22.43-10.58C76.55,525.85,79.14,522.78,83.19,522.27Z"/><path class="cls-7" d="M132,367.39c-.15-.54-.29-1.08-1-1.1Z"/><path class="cls-3" d="M149.08,40.79c5.4,3.44,7.32.37,10.08-4.16,8-13.05,23.28-13.22,32.47-.89a39.18,39.18,0,0,1,5.14,9.7L202,42.58l4,.1c2.09,1.07,4.14,2,5,4.61,2,6-1.29,14.12-7.21,16.18-2.84,1-3.57,2.56-3.68,5.08-.26,6-.5,12,1.08,18,3.88,11.4.41,21.21-7,29.78-9,10.28-22.9,7.43-27.64-5.4a117.26,117.26,0,0,1-4.46-16.61c-.89-4.25-2.93-7.67-7.23-9.3-4.15-6.45-4.54-13.76-4.87-21.1-.06-1.41.3-3-1.37-3.88-4.43-2.2-5.37-6.27-5.79-10.63C143.47,45.45,145.23,42.36,149.08,40.79Zm13.74,18c-.86.12-1.91.05-2.26,1s.57,1.52,1.21,2.1c3,2.72,5.35,6.36,10.3,5.73,3.63-.46,6-3.6,9.59-4.16,1.36-.21.68-2.07-.65-2.49-2.64-.83-5.24-2-8.84-1.4C169.51,59.39,166.22,58.29,162.82,58.76Z"/><path class="cls-6" d="M149.08,40.79c5.4,3.44,7.32.37,10.08-4.16,8-13.05,23.28-13.22,32.47-.89a39.18,39.18,0,0,1,5.14,9.7L202,42.58a62.64,62.64,0,0,0-4.91-8.36c-3.49-5-6.47-10.21-6.69-16.53a12.39,12.39,0,0,1-.76-2.05c-1.5-8-5.79-13.57-14.14-15-9-1.51-17.59-.92-23.81,6.88-6,7.47-5.28,16.28-4.21,25C147.83,35.33,148.54,38.05,149.08,40.79Z"/><path class="cls-8" d="M190.41,17.69c.22,6.32,3.2,11.56,6.69,16.53A62.64,62.64,0,0,1,202,42.58l4,.1c.37-9.73-4.06-17.19-11.21-23.26A6.09,6.09,0,0,0,190.41,17.69Z"/><path class="cls-5" d="M109.77,172.74a81.64,81.64,0,0,0-1.61,26.81c3.94-.33,6.45-2.66,8-6.06,1.79-3.94,3.35-8,5.18-12.42,1.57,3.11,2.82,5.75,4.2,8.31,5.21,9.69,13.8,12.67,21.38,3.56,2.26-2.72,5.42-3.37,8.85-2,3.21,1.31,4.14,4,4.39,7.09a10.47,10.47,0,0,1-3,8.5c-6.56,6.71-9.62,15-11.34,24-.65,3.4,0,7-1.73,10.64-1.27-1.42-2.35-2.59-3.37-3.81a4.38,4.38,0,0,0-4.57-1.64c-10.64,1.54-19.49-3.68-24.05-13.82.39,9.21-3.16,17.58-5.47,26.23a34.15,34.15,0,0,0,2.28,24.51c1.24-.78,2.54-1.52,2.74-3.19,1.36-2.82,2.7-5.66,5.95-6.85,7.67-5.6,15.28-11.31,23.08-16.74,1.81-1.26,3.71-.54,4,2.15.38,3.33.46,6.75,2.68,9.57l25.27-9.9c-2.42-2.05-4.61-3.71-6.58-5.59a12.46,12.46,0,0,1-3.95-9.94,3.77,3.77,0,0,1,2.17-3.6,3,3,0,0,1,3.7,1.69c2.53,4.64,6.9,6.28,11.63,7.08A44.27,44.27,0,0,1,200,246.24c5.46,4.27,10,4.11,15.86.45a67.79,67.79,0,0,0,10.64-8.53c-6.05-4.45-12.87-7.63-19-12-12.51-9-18.27-21.93-22.33-36.06-2.07-7.21-2.85-14.75-6-21.69a44.19,44.19,0,0,0-12.56-16.84c-6.44-5.16-13.71-7.25-21.92-5.29-1.12.26-2.27,1.05-3.43.43-9.15-4.9-15.42,1.09-21.69,6-3.84,3-6.11,7.45-7.32,12.31a7.86,7.86,0,0,1-1.37,2.16.67.67,0,0,1-.18.56,3,3,0,0,1-.82,2.78C109.84,171.27,109.8,172,109.77,172.74Z"/><path class="cls-9" d="M117.6,262.64c-3.25,1.19-4.59,4-5.95,6.85C114.89,268.3,117.24,266.33,117.6,262.64Z"/><path class="cls-6" d="M109.88,170.53c0,.74-.08,1.47-.11,2.21-5.55-1.4-9.3-5.45-13-9.3-11.58-12-15.3-26.79-14.4-43.06a35.1,35.1,0,0,1,2.7-9.74c3.09-6.64,5.41-13.28,2.6-20.78a5.51,5.51,0,0,1,2.85-7.14c3.07-1.59,5.69-.56,8,1.62A8.1,8.1,0,0,1,100,86c1.11,1.83,2.12,1.45,3.41.14,3.33-3.4,7.66-4.87,12.18-5.76,6.66-1.3,13.29-2.63,18.83-6.92,1.93-1.5,2.36-.26,3,1.29,1.53,3.73,1.88,7.69,2.47,11.6-5.94-2.75-7.23-2.38-11.15,3.25-1.56,2.26-2.89,2.22-4-.37-1.46-3.57-3.79-6-7.94-5.75-3.69.26-5.86,2.66-6.92,5.94-1.26,3.91-.69,7.64,2.37,10.6,3.82,3.69,9.37,2.27,12-2.89.53-1.05.15-3,2.12-2.87s1.45,1.92,1.8,3c1.8,5.75,5,7.16,10.79,4.66-.81,8.43-3.63,16.16-11.88,19.46-5.66,2.26-7.82,5.84-8.68,11.16-.1.56-.51,1.06-.67,1.63-3.07,10.84-6.22,21.66-6.88,33a.67.67,0,0,1-.18.56C109.69,168.46,109.77,169.49,109.88,170.53Zm8.33-63.2c-.28,2.14,2.49,2.91,4.38,3.67a7.1,7.1,0,0,0,1.72.35c3,.37,6.42-.23,6.91-3.16.54-3.15-2.92-2.5-5.1-2.7a10.69,10.69,0,0,1-2.42-.84C121.62,105.34,118.54,104.89,118.21,107.33Z"/><path class="cls-7" d="M142.75,92.56c-1,3.23-1.22,6.77-3.76,9.38-5.81,2.5-9,1.09-10.79-4.66-.35-1.11.2-3-1.8-3s-1.59,1.82-2.12,2.87c-2.63,5.16-8.18,6.58-12,2.89-3.06-3-3.63-6.69-2.37-10.6,1.06-3.28,3.23-5.68,6.92-5.94,4.15-.28,6.48,2.18,7.94,5.75,1.06,2.59,2.39,2.63,4,.37,3.92-5.63,5.21-6,11.15-3.25ZM117,98.69c3.77.1,4.91-2.91,5-6s-1.19-5.91-4.54-6c-3.62-.1-4.73,2.88-5.09,6.13C112.71,95.72,113.53,98.59,117,98.69ZM135,88.11c-3.2.15-3.83,3.19-3.88,5.92s.47,5.94,3.68,6c3.46,0,3.77-3.42,4.3-6C138.57,91.22,138.44,88,135,88.11Z"/><path class="cls-6" d="M108.16,199.55c3.94-.33,6.45-2.66,8-6.06,1.79-3.94,3.35-8,5.18-12.42,1.57,3.11,2.82,5.75,4.2,8.31,5.21,9.69,13.8,12.67,21.38,3.56,2.26-2.72,5.42-3.37,8.85-2,3.21,1.31,4.14,4,4.39,7.09a10.47,10.47,0,0,1-3,8.5c-6.56,6.71-9.62,15-11.34,24-.65,3.4,0,7-1.73,10.64-1.27-1.42-2.35-2.59-3.37-3.81a4.38,4.38,0,0,0-4.57-1.64c-10.64,1.54-19.49-3.68-24.05-13.82C108.47,214.88,107.49,207.36,108.16,199.55ZM135.65,217c1.11-1.1,1.22-2.43-.38-3.26-5.53-2.86-11.29-3.91-17.4-2-2,.61-2.5,1.49-1.56,3.55,2,4.28,5.21,6.34,11.33,6.29C130.63,221.65,133.22,219.43,135.65,217Z"/><path class="cls-10" d="M172.17,59.55c-2.66-.16-5.95-1.26-9.35-.79-.86.12-1.91.05-2.26,1s.57,1.52,1.21,2.1c3,2.72,5.35,6.36,10.3,5.73,3.63-.46,6-3.6,9.59-4.16,1.36-.21.68-2.07-.65-2.49C178.37,60.12,175.77,58.94,172.17,59.55Z"/><path class="cls-11" d="M110.7,167.75c-1,.71-.93,1.74-.82,2.78A3,3,0,0,0,110.7,167.75Z"/><path class="cls-10" d="M123.7,104.65c-2.08.69-5.16.24-5.49,2.68-.28,2.14,2.49,2.91,4.38,3.67a7.1,7.1,0,0,0,1.72.35c3,.37,6.42-.23,6.91-3.16.54-3.15-2.92-2.5-5.1-2.7A10.69,10.69,0,0,1,123.7,104.65Z"/><path class="cls-6" d="M112.44,92.79c.27,2.93,1.09,5.8,4.6,5.9,3.77.1,4.91-2.91,5-6s-1.19-5.91-4.54-6C113.91,86.56,112.8,89.54,112.44,92.79Z"/><path class="cls-6" d="M139.06,94c-.49-2.82-.62-6.09-4.1-5.93-3.2.15-3.83,3.19-3.88,5.92s.47,5.94,3.68,6C138.22,100,138.53,96.58,139.06,94Z"/><path class="cls-10" d="M116.31,215.29c-.94-2.06-.44-2.94,1.56-3.55,6.11-1.88,11.87-.83,17.4,2,1.6.83,1.49,2.16.38,3.26-2.43,2.4-5,4.62-8,4.55C121.52,221.63,118.29,219.57,116.31,215.29Zm4.6-1.39c-.82.2-2.06-.34-2.4.6-.54,1.47,1,1.44,1.83,1.86,4.4,2.34,8.73,1.63,13.15-.46-.73-1.73-2.23-1-3.36-1.24C127.19,212.82,124.14,212.22,120.91,213.9Z"/><path class="cls-7" d="M120.91,213.9c-.82.2-2.06-.34-2.4.6-.54,1.47,1,1.44,1.83,1.86,4.4,2.34,8.73,1.63,13.15-.46-.73-1.73-2.23-1-3.36-1.24A9.78,9.78,0,0,1,120.91,213.9Z"/><path class="cls-11" d="M120.91,213.9a9.78,9.78,0,0,0,9.22.76C127.19,212.82,124.14,212.22,120.91,213.9Z"/></g></g></svg>